<svg xmlns="http://www.w3.org/2000/svg" viewBox="-275 -98 635 410" width="635" height="410">
<g id="room-shell">
<polygon points="340,80 85,207.5 85,297.5 340,170" fill="#f6ead6" stroke="#4a3222" stroke-width="1.3" stroke-linejoin="round"></polygon>
<polygon points="-51,-64.5 -255,37.5 -255,127.5 -51,25.5" fill="#e9e1d2" stroke="#4a3222" stroke-width="1.3" stroke-linejoin="round"></polygon>
<polygon points="-51,-64.5 238,80 238,170 -51,25.5" fill="#fbf2e2" stroke="#4a3222" stroke-width="1.3" stroke-linejoin="round"></polygon>
<polygon points="289,54.5 238,80 238,170 289,144.5" fill="#e2dacb" stroke="#4a3222" stroke-width="1.3" stroke-linejoin="round"></polygon>
<polygon points="289,54.5 340,80 340,170 289,144.5" fill="#fbf2e2" stroke="#4a3222" stroke-width="1.3" stroke-linejoin="round"></polygon>
<polygon points="-45.9,-67.05 243.1,77.45 238,80 -51,-64.5" fill="#fffdf5" stroke="#4a3222" stroke-width="1.3" stroke-linejoin="round"></polygon>
<polygon points="-56.1,-67.05 -260.1,34.95 -255,37.5 -51,-64.5" fill="#fffdf5" stroke="#4a3222" stroke-width="1.3" stroke-linejoin="round"></polygon>
<polygon points="283.9,51.95 232.9,77.45 238,80 289,54.5" fill="#fffdf5" stroke="#4a3222" stroke-width="1.3" stroke-linejoin="round"></polygon>
<polygon points="294.1,51.95 345.1,77.45 340,80 289,54.5" fill="#fffdf5" stroke="#4a3222" stroke-width="1.3" stroke-linejoin="round"></polygon>
<polygon points="-51,22.38 238,166.88 238,170 -51,25.5" fill="#fff6e6" stroke="#4a3222" stroke-width="0.8" stroke-linejoin="round"></polygon>
<polygon points="-51,22.38 -255,124.38 -255,127.5 -51,25.5" fill="#f5e9d2" stroke="#4a3222" stroke-width="0.8" stroke-linejoin="round"></polygon>
<polygon points="289,141.38 238,166.88 238,170 289,144.5" fill="#f5e9d2" stroke="#4a3222" stroke-width="0.8" stroke-linejoin="round"></polygon>
<polygon points="289,141.38 340,166.88 340,170 289,144.5" fill="#fff6e6" stroke="#4a3222" stroke-width="0.8" stroke-linejoin="round"></polygon>
<polygon points="-170,10.6 -231.2,41.2 -231.2,85.6 -170,55" fill="#fffdf5" stroke="#4a3222" stroke-width="1.3" stroke-linejoin="round"></polygon>
<polygon points="-172.72,13.88 -228.48,41.76 -228.48,82.32 -172.72,54.44" fill="#cfe9f2" stroke="#4a3222" stroke-width="1" stroke-linejoin="round"></polygon>
<line x1="-200.6" y1="68.38" x2="-200.6" y2="27.82" stroke="#fffdf5" stroke-width="3"></line>
<line x1="-172.72" y1="34.16" x2="-228.48" y2="62.04" stroke="#fffdf5" stroke-width="2.5"></line>
<polygon points="-108.8,-20 -163.2,7.2 -163.2,51.6 -108.8,24.4" fill="#fffdf5" stroke="#4a3222" stroke-width="1.3" stroke-linejoin="round"></polygon>
<polygon points="-111.52,-16.72 -160.48,7.76 -160.48,48.32 -111.52,23.84" fill="#cfe9f2" stroke="#4a3222" stroke-width="1" stroke-linejoin="round"></polygon>
<line x1="-136" y1="36.08" x2="-136" y2="-4.48" stroke="#fffdf5" stroke-width="3"></line>
<line x1="-111.52" y1="3.56" x2="-160.48" y2="28.04" stroke="#fffdf5" stroke-width="2.5"></line>
<polygon points="-55.76,-54.92 -102.34,-31.63 -102.34,51.17 -55.76,27.88" fill="#e8d9bd" stroke="#4a3222" stroke-width="1" stroke-linejoin="round"></polygon>
<polygon points="-57.8,-52.1 -100.3,-30.85 -100.3,50.15 -57.8,28.9" fill="#fffdf5" stroke="#4a3222" stroke-width="1.3" stroke-linejoin="round"></polygon>
<polygon points="-62.9,-42.95 -95.2,-26.8 -95.2,39.2 -62.9,23.05" fill="none" stroke="#e8d9bd" stroke-width="1" stroke-linejoin="round"></polygon>
<circle cx="-63.75" cy="-8.92" r="2.6" fill="#e9c46a" stroke="#4a3222" stroke-width="1"></circle>
<polygon points="-41.14,-52.37 5.44,-29.08 5.44,53.72 -41.14,30.43" fill="#e8d9bd" stroke="#4a3222" stroke-width="1" stroke-linejoin="round"></polygon>
<polygon points="-39.1,-49.55 3.4,-28.3 3.4,52.7 -39.1,31.45" fill="#fffdf5" stroke="#4a3222" stroke-width="1.3" stroke-linejoin="round"></polygon>
<polygon points="-34,-40.4 -1.7,-24.25 -1.7,41.75 -34,25.6" fill="none" stroke="#e8d9bd" stroke-width="1" stroke-linejoin="round"></polygon>
<circle cx="-25.5" cy="-2.55" r="2.6" fill="#e9c46a" stroke="#4a3222" stroke-width="1"></circle>
<polygon points="-51,25.5 238,170 289,144.5 340,170 85,297.5 -255,127.5" fill="#e9b878" stroke="#4a3222" stroke-width="2" stroke-linejoin="round"></polygon>
<line x1="272" y1="153" x2="323" y2="178.5" stroke="#d39c60" stroke-width="1" opacity="0.85"></line>
<line x1="255" y1="161.5" x2="306" y2="187" stroke="#d39c60" stroke-width="1" opacity="0.85"></line>
<line x1="-51" y1="25.5" x2="289" y2="195.5" stroke="#d39c60" stroke-width="1" opacity="0.85"></line>
<line x1="-68" y1="34" x2="272" y2="204" stroke="#d39c60" stroke-width="1" opacity="0.85"></line>
<line x1="-85" y1="42.5" x2="255" y2="212.5" stroke="#d39c60" stroke-width="1" opacity="0.85"></line>
<line x1="-102" y1="51" x2="238" y2="221" stroke="#d39c60" stroke-width="1" opacity="0.85"></line>
<line x1="-119" y1="59.5" x2="221" y2="229.5" stroke="#d39c60" stroke-width="1" opacity="0.85"></line>
<line x1="-136" y1="68" x2="204" y2="238" stroke="#d39c60" stroke-width="1" opacity="0.85"></line>
<line x1="-153" y1="76.5" x2="187" y2="246.5" stroke="#d39c60" stroke-width="1" opacity="0.85"></line>
<line x1="-170" y1="85" x2="170" y2="255" stroke="#d39c60" stroke-width="1" opacity="0.85"></line>
<line x1="-187" y1="93.5" x2="153" y2="263.5" stroke="#d39c60" stroke-width="1" opacity="0.85"></line>
<line x1="-204" y1="102" x2="136" y2="272" stroke="#d39c60" stroke-width="1" opacity="0.85"></line>
<line x1="-221" y1="110.5" x2="119" y2="280.5" stroke="#d39c60" stroke-width="1" opacity="0.85"></line>
<line x1="-238" y1="119" x2="102" y2="289" stroke="#d39c60" stroke-width="1" opacity="0.85"></line>
<line x1="224.4" y1="163.2" x2="207.4" y2="171.7" stroke="#d39c60" stroke-width="1" opacity="0.85"></line>
<line x1="37.4" y1="69.7" x2="20.4" y2="78.2" stroke="#d39c60" stroke-width="1" opacity="0.85"></line>
<line x1="156.4" y1="129.2" x2="139.4" y2="137.7" stroke="#d39c60" stroke-width="1" opacity="0.85"></line>
<line x1="-13.6" y1="61.2" x2="-30.6" y2="69.7" stroke="#d39c60" stroke-width="1" opacity="0.85"></line>
<line x1="105.4" y1="120.7" x2="88.4" y2="129.2" stroke="#d39c60" stroke-width="1" opacity="0.85"></line>
<line x1="224.4" y1="180.2" x2="207.4" y2="188.7" stroke="#d39c60" stroke-width="1" opacity="0.85"></line>
<line x1="54.4" y1="112.2" x2="37.4" y2="120.7" stroke="#d39c60" stroke-width="1" opacity="0.85"></line>
<line x1="173.4" y1="171.7" x2="156.4" y2="180.2" stroke="#d39c60" stroke-width="1" opacity="0.85"></line>
<line x1="-13.6" y1="78.2" x2="-30.6" y2="86.7" stroke="#d39c60" stroke-width="1" opacity="0.85"></line>
<line x1="122.4" y1="163.2" x2="105.4" y2="171.7" stroke="#d39c60" stroke-width="1" opacity="0.85"></line>
<line x1="-64.6" y1="69.7" x2="-81.6" y2="78.2" stroke="#d39c60" stroke-width="1" opacity="0.85"></line>
<line x1="54.4" y1="129.2" x2="37.4" y2="137.7" stroke="#d39c60" stroke-width="1" opacity="0.85"></line>
<line x1="190.4" y1="214.2" x2="173.4" y2="222.7" stroke="#d39c60" stroke-width="1" opacity="0.85"></line>
<line x1="3.4" y1="120.7" x2="-13.6" y2="129.2" stroke="#d39c60" stroke-width="1" opacity="0.85"></line>
<line x1="122.4" y1="180.2" x2="105.4" y2="188.7" stroke="#d39c60" stroke-width="1" opacity="0.85"></line>
<line x1="-47.6" y1="112.2" x2="-64.6" y2="120.7" stroke="#d39c60" stroke-width="1" opacity="0.85"></line>
<line x1="71.4" y1="171.7" x2="54.4" y2="180.2" stroke="#d39c60" stroke-width="1" opacity="0.85"></line>
<line x1="-115.6" y1="78.2" x2="-132.6" y2="86.7" stroke="#d39c60" stroke-width="1" opacity="0.85"></line>
<line x1="20.4" y1="163.2" x2="3.4" y2="171.7" stroke="#d39c60" stroke-width="1" opacity="0.85"></line>
<line x1="139.4" y1="222.7" x2="122.4" y2="231.2" stroke="#d39c60" stroke-width="1" opacity="0.85"></line>
<line x1="-47.6" y1="129.2" x2="-64.6" y2="137.7" stroke="#d39c60" stroke-width="1" opacity="0.85"></line>
<line x1="88.4" y1="214.2" x2="71.4" y2="222.7" stroke="#d39c60" stroke-width="1" opacity="0.85"></line>
<line x1="-98.6" y1="120.7" x2="-115.6" y2="129.2" stroke="#d39c60" stroke-width="1" opacity="0.85"></line>
<line x1="20.4" y1="180.2" x2="3.4" y2="188.7" stroke="#d39c60" stroke-width="1" opacity="0.85"></line>
<line x1="-149.6" y1="112.2" x2="-166.6" y2="120.7" stroke="#d39c60" stroke-width="1" opacity="0.85"></line>
<line x1="-30.6" y1="171.7" x2="-47.6" y2="180.2" stroke="#d39c60" stroke-width="1" opacity="0.85"></line>
<line x1="88.4" y1="231.2" x2="71.4" y2="239.7" stroke="#d39c60" stroke-width="1" opacity="0.85"></line>
<line x1="-81.6" y1="163.2" x2="-98.6" y2="171.7" stroke="#d39c60" stroke-width="1" opacity="0.85"></line>
<line x1="37.4" y1="222.7" x2="20.4" y2="231.2" stroke="#d39c60" stroke-width="1" opacity="0.85"></line>
<line x1="-149.6" y1="129.2" x2="-166.6" y2="137.7" stroke="#d39c60" stroke-width="1" opacity="0.85"></line>
<line x1="-13.6" y1="214.2" x2="-30.6" y2="222.7" stroke="#d39c60" stroke-width="1" opacity="0.85"></line>
<line x1="-200.6" y1="120.7" x2="-217.6" y2="129.2" stroke="#d39c60" stroke-width="1" opacity="0.85"></line>
<line x1="-81.6" y1="180.2" x2="-98.6" y2="188.7" stroke="#d39c60" stroke-width="1" opacity="0.85"></line>
<line x1="54.4" y1="265.2" x2="37.4" y2="273.7" stroke="#d39c60" stroke-width="1" opacity="0.85"></line>
<line x1="-132.6" y1="171.7" x2="-149.6" y2="180.2" stroke="#d39c60" stroke-width="1" opacity="0.85"></line>
<line x1="-13.6" y1="231.2" x2="-30.6" y2="239.7" stroke="#d39c60" stroke-width="1" opacity="0.85"></line>
<polygon points="-255,127.5 85,297.5 85,301.34 -255,131.34" fill="#cf9a58" stroke="#4a3222" stroke-width="1.3" stroke-linejoin="round"></polygon>
<polygon points="340,170 85,297.5 85,301.34 340,173.84" fill="#b9834a" stroke="#4a3222" stroke-width="1.3" stroke-linejoin="round"></polygon>
</g>
</svg>