<svg xmlns="http://www.w3.org/2000/svg" viewBox="-89 -36.4 206.9 139.85" width="206.9" height="139.85">
<rect id="bounds" x="-89" y="-36.4" width="206.9" height="139.85" fill="none" stroke="none"></rect>
<polygon points="5.95,-29.43 -79.05,13.07 -79.05,45.47 5.95,2.97" fill="#5f4029" stroke="#4a3222" stroke-width="1.3" stroke-linejoin="round"></polygon>
<polygon points="-85,10.1 -79.05,13.07 -79.05,45.47 -85,42.5" fill="#765033" stroke="#4a3222" stroke-width="1.3" stroke-linejoin="round"></polygon>
<polygon points="0,-32.4 5.95,-29.43 -79.05,13.07 -85,10.1" fill="#996742" stroke="#4a3222" stroke-width="1.3" stroke-linejoin="round"></polygon>
<polygon points="113.9,46.75 28.9,89.25 28.9,99.45 113.9,56.95" fill="#734f33" stroke="#4a3222" stroke-width="1.3" stroke-linejoin="round"></polygon>
<polygon points="-81.6,34 28.9,89.25 28.9,99.45 -81.6,44.2" fill="#906340" stroke="#4a3222" stroke-width="1.3" stroke-linejoin="round"></polygon>
<polygon points="3.4,-8.5 113.9,46.75 28.9,89.25 -81.6,34" fill="#ba8053" stroke="#4a3222" stroke-width="1.3" stroke-linejoin="round"></polygon>
<polygon points="108.8,39.55 28.9,79.5 28.9,86.7 108.8,46.75" fill="#a8a396" stroke="#4a3222" stroke-width="1.3" stroke-linejoin="round"></polygon>
<polygon points="-75.65,27.23 28.9,79.5 28.9,86.7 -75.65,34.43" fill="#d2cbbc" stroke="#4a3222" stroke-width="1.3" stroke-linejoin="round"></polygon>
<polygon points="4.25,-12.72 108.8,39.55 28.9,79.5 -75.65,27.23" fill="#fffff3" stroke="#4a3222" stroke-width="1.3" stroke-linejoin="round"></polygon>
<polygon points="22.1,-4.59 -11.05,11.99 -11.05,17.03 22.1,0.45" fill="#adaca7" stroke="#4a3222" stroke-width="1.3" stroke-linejoin="round"></polygon>
<polygon points="-29.75,2.64 -11.05,11.99 -11.05,17.03 -29.75,7.68" fill="#d9d7d1" stroke="#4a3222" stroke-width="1.3" stroke-linejoin="round"></polygon>
<polygon points="3.4,-13.94 22.1,-4.59 -11.05,11.99 -29.75,2.64" fill="#ffffff" stroke="#4a3222" stroke-width="1.3" stroke-linejoin="round"></polygon>
<polygon points="107.95,35.77 28.05,75.72 28.05,79.08 107.95,39.13" fill="#6a824b" stroke="#4a3222" stroke-width="1.3" stroke-linejoin="round"></polygon>
<polygon points="-31.2,46.09 28.05,75.72 28.05,79.08 -31.2,49.45" fill="#85a25e" stroke="#4a3222" stroke-width="1.3" stroke-linejoin="round"></polygon>
<polygon points="48.71,6.14 107.95,35.77 28.05,75.72 -31.2,46.09" fill="#acd279" stroke="#4a3222" stroke-width="1.3" stroke-linejoin="round"></polygon>
<polygon points="-16.15,14.53 -49.3,31.11 -49.3,36.15 -16.15,19.57" fill="#adaca7" stroke="#4a3222" stroke-width="1.3" stroke-linejoin="round"></polygon>
<polygon points="-68,21.76 -49.3,31.11 -49.3,36.15 -68,26.8" fill="#d9d7d1" stroke="#4a3222" stroke-width="1.3" stroke-linejoin="round"></polygon>
<polygon points="-34.85,5.18 -16.15,14.53 -49.3,31.11 -68,21.76" fill="#ffffff" stroke="#4a3222" stroke-width="1.3" stroke-linejoin="round"></polygon>
</svg>