<svg width="201" height="134" viewBox="0 0 201 134" fill="none" xmlns="http://www.w3.org/2000/svg">
<path d="M0.649979 43.15L6.59998 46.12V78.52L0.649979 75.55V43.15Z" fill="#5F4029" stroke="#4A3222" stroke-width="1.3" stroke-linejoin="round"/>
<path d="M91.6 3.62L6.59998 46.12V78.52L91.6 36.02V3.62Z" fill="#765033" stroke="#4A3222" stroke-width="1.3" stroke-linejoin="round"/>
<path d="M85.65 0.650024L0.649979 43.15L6.59998 46.12L91.6 3.62003L85.65 0.650024Z" fill="#996742" stroke="#4A3222" stroke-width="1.3" stroke-linejoin="round"/>
<path d="M4.04999 67.05L114.55 122.3V132.5L4.04999 77.25V67.05Z" fill="#734F33" stroke="#4A3222" stroke-width="1.3" stroke-linejoin="round"/>
<path d="M199.55 79.8L114.55 122.3V132.5L199.55 90V79.8Z" fill="#906340" stroke="#4A3222" stroke-width="1.3" stroke-linejoin="round"/>
<path d="M89.05 24.55L4.04999 67.05L114.55 122.3L199.55 79.8L89.05 24.55Z" fill="#BA8053" stroke="#4A3222" stroke-width="1.3" stroke-linejoin="round"/>
<path d="M9.99999 60.28L66.55 87.95V95.15L9.99999 67.48V60.28Z" fill="#A8A396" stroke="#4A3222" stroke-width="1.3" stroke-linejoin="round"/>
<path d="M89.9 20.3301L10.0002 60.2801L93.05 101.801L172.95 61.8511L89.9 20.3301Z" fill="#FFFFF3" stroke="#4A3222" stroke-width="1.3" stroke-linejoin="round"/>
<path d="M55.9 35.6901L74.6 45.0401V50.0801L55.9 40.7301V35.6901Z" fill="#ADACA7" stroke="#4A3222" stroke-width="1.3" stroke-linejoin="round"/>
<path d="M107.75 28.4601L74.6 45.0401V50.0801L107.75 33.5001V28.4601Z" fill="#D9D7D1" stroke="#4A3222" stroke-width="1.3" stroke-linejoin="round"/>
<path d="M89.05 19.1101L55.9 35.6901L74.6 45.0401L107.75 28.4601L89.05 19.1101Z" fill="white" stroke="#4A3222" stroke-width="1.3" stroke-linejoin="round"/>
<path d="M41.55 72.64L113.7 108.77V118.78L41.55 82.65V72.64Z" fill="#688593" stroke="#4A3222" stroke-width="1.3" stroke-linejoin="round"/>
<path d="M193.6 68.8201L113.7 108.77V119.15L193.6 79.2V68.8201Z" fill="#93B0BD" stroke="#4A3222" stroke-width="1.3" stroke-linejoin="round"/>
<path d="M120.96 32.7L41.05 72.65L113.7 108.77L193.6 68.8201L120.96 32.7Z" fill="#AFCAD7" stroke="#4A3222" stroke-width="1.3" stroke-linejoin="round"/>
<path d="M17.65 54.8101L36.35 64.1601V69.2001L17.65 59.8501V54.8101Z" fill="#ADACA7" stroke="#4A3222" stroke-width="1.3" stroke-linejoin="round"/>
<path d="M69.5 47.5801L36.35 64.1601V69.2001L69.5 52.6201V47.5801Z" fill="#D9D7D1" stroke="#4A3222" stroke-width="1.3" stroke-linejoin="round"/>
<path d="M50.8 38.2301L17.65 54.8101L36.35 64.1601L69.5 47.5801L50.8 38.2301Z" fill="white" stroke="#4A3222" stroke-width="1.3" stroke-linejoin="round"/>
</svg>
