<svg xmlns="http://www.w3.org/2000/svg" viewBox="-89 -21.78 206.9 125.23" width="206.9" height="125.23">
<rect id="bounds" x="-89" y="-21.78" width="206.9" height="125.23" fill="none" stroke="none"></rect>
<polygon points="110.5,45.05 25.5,87.55 25.5,97.75 110.5,55.25" fill="#734f33" stroke="#4a3222" stroke-width="1.3" stroke-linejoin="round"></polygon>
<polygon points="-85,32.3 25.5,87.55 25.5,97.75 -85,42.5" fill="#906340" stroke="#4a3222" stroke-width="1.3" stroke-linejoin="round"></polygon>
<polygon points="0,-10.2 110.5,45.05 25.5,87.55 -85,32.3" fill="#ba8053" stroke="#4a3222" stroke-width="1.3" stroke-linejoin="round"></polygon>
<polygon points="104.55,37.42 24.65,77.38 24.65,84.57 104.55,44.63" fill="#a8a396" stroke="#4a3222" stroke-width="1.3" stroke-linejoin="round"></polygon>
<polygon points="-79.9,25.1 24.65,77.38 24.65,84.57 -79.9,32.3" fill="#d2cbbc" stroke="#4a3222" stroke-width="1.3" stroke-linejoin="round"></polygon>
<polygon points="0,-14.85 104.55,37.42 24.65,77.38 -79.9,25.1" fill="#fffff3" stroke="#4a3222" stroke-width="1.3" stroke-linejoin="round"></polygon>
<polygon points="60.1,11.84 -19.8,51.79 -19.8,55.15 60.1,15.2" fill="#6a824b" stroke="#4a3222" stroke-width="1.3" stroke-linejoin="round"></polygon>
<polygon points="-79.05,22.17 -19.8,51.79 -19.8,55.15 -79.05,25.53" fill="#85a25e" stroke="#4a3222" stroke-width="1.3" stroke-linejoin="round"></polygon>
<polygon points="0.85,-17.78 60.1,11.84 -19.8,51.79 -79.05,22.17" fill="#acd279" stroke="#4a3222" stroke-width="1.3" stroke-linejoin="round"></polygon>
<polygon points="96.9,32.81 63.75,49.39 63.75,54.43 96.9,37.85" fill="#adaca7" stroke="#4a3222" stroke-width="1.3" stroke-linejoin="round"></polygon>
<polygon points="45.05,40.04 63.75,49.39 63.75,54.43 45.05,45.08" fill="#d9d7d1" stroke="#4a3222" stroke-width="1.3" stroke-linejoin="round"></polygon>
<polygon points="78.2,23.46 96.9,32.81 63.75,49.39 45.05,40.04" fill="#ffffff" stroke="#4a3222" stroke-width="1.3" stroke-linejoin="round"></polygon>
<polygon points="113.9,24.55 28.9,67.05 28.9,99.45 113.9,56.95" fill="#5f4029" stroke="#4a3222" stroke-width="1.3" stroke-linejoin="round"></polygon>
<polygon points="22.95,64.08 28.9,67.05 28.9,99.45 22.95,96.48" fill="#765033" stroke="#4a3222" stroke-width="1.3" stroke-linejoin="round"></polygon>
<polygon points="107.95,21.57 113.9,24.55 28.9,67.05 22.95,64.08" fill="#996742" stroke="#4a3222" stroke-width="1.3" stroke-linejoin="round"></polygon>
<polygon points="58.65,51.94 25.5,68.51 25.5,73.55 58.65,56.98" fill="#adaca7" stroke="#4a3222" stroke-width="1.3" stroke-linejoin="round"></polygon>
<polygon points="6.8,59.16 25.5,68.51 25.5,73.55 6.8,64.2" fill="#d9d7d1" stroke="#4a3222" stroke-width="1.3" stroke-linejoin="round"></polygon>
<polygon points="39.95,42.59 58.65,51.94 25.5,68.51 6.8,59.16" fill="#ffffff" stroke="#4a3222" stroke-width="1.3" stroke-linejoin="round"></polygon>
</svg>