<svg width="201" height="134" viewBox="0 0 201 134" fill="none" xmlns="http://www.w3.org/2000/svg">
<path d="M199.55 43.15L193.6 46.12V78.52L199.55 75.55V43.15Z" fill="#5F4029" stroke="#4A3222" stroke-width="1.3" stroke-linejoin="round"/>
<path d="M108.6 3.62L193.6 46.12V78.52L108.6 36.02V3.62Z" fill="#765033" stroke="#4A3222" stroke-width="1.3" stroke-linejoin="round"/>
<path d="M114.55 0.650024L199.55 43.15L193.6 46.12L108.6 3.62003L114.55 0.650024Z" fill="#996742" stroke="#4A3222" stroke-width="1.3" stroke-linejoin="round"/>
<path d="M196.15 67.05L85.65 122.3V132.5L196.15 77.25V67.05Z" fill="#734F33" stroke="#4A3222" stroke-width="1.3" stroke-linejoin="round"/>
<path d="M0.650024 79.8L85.65 122.3V132.5L0.650024 90V79.8Z" fill="#906340" stroke="#4A3222" stroke-width="1.3" stroke-linejoin="round"/>
<path d="M111.15 24.55L196.15 67.05L85.65 122.3L0.650024 79.8L111.15 24.55Z" fill="#BA8053" stroke="#4A3222" stroke-width="1.3" stroke-linejoin="round"/>
<path d="M190.2 60.28L133.65 87.95V95.15L190.2 67.48V60.28Z" fill="#A8A396" stroke="#4A3222" stroke-width="1.3" stroke-linejoin="round"/>
<path d="M110.3 20.3301L190.2 60.2801L107.15 101.801L27.25 61.8511L110.3 20.3301Z" fill="#FFFFF3" stroke="#4A3222" stroke-width="1.3" stroke-linejoin="round"/>
<path d="M144.3 35.6901L125.6 45.0401V50.0801L144.3 40.7301V35.6901Z" fill="#ADACA7" stroke="#4A3222" stroke-width="1.3" stroke-linejoin="round"/>
<path d="M92.45 28.4601L125.6 45.0401V50.0801L92.45 33.5001V28.4601Z" fill="#D9D7D1" stroke="#4A3222" stroke-width="1.3" stroke-linejoin="round"/>
<path d="M111.15 19.1101L144.3 35.6901L125.6 45.0401L92.45 28.4601L111.15 19.1101Z" fill="white" stroke="#4A3222" stroke-width="1.3" stroke-linejoin="round"/>
<path d="M158.65 72.64L86.5 108.77V118.78L158.65 82.65V72.64Z" fill="#688593" stroke="#4A3222" stroke-width="1.3" stroke-linejoin="round"/>
<path d="M6.60004 68.8201L86.5 108.77V119.15L6.60004 79.2V68.8201Z" fill="#93B0BD" stroke="#4A3222" stroke-width="1.3" stroke-linejoin="round"/>
<path d="M79.24 32.7L159.15 72.65L86.5 108.77L6.60004 68.8201L79.24 32.7Z" fill="#AFCAD7" stroke="#4A3222" stroke-width="1.3" stroke-linejoin="round"/>
<path d="M182.55 54.8101L163.85 64.1601V69.2001L182.55 59.8501V54.8101Z" fill="#ADACA7" stroke="#4A3222" stroke-width="1.3" stroke-linejoin="round"/>
<path d="M130.7 47.5801L163.85 64.1601V69.2001L130.7 52.6201V47.5801Z" fill="#D9D7D1" stroke="#4A3222" stroke-width="1.3" stroke-linejoin="round"/>
<path d="M149.4 38.2301L182.55 54.8101L163.85 64.1601L130.7 47.5801L149.4 38.2301Z" fill="white" stroke="#4A3222" stroke-width="1.3" stroke-linejoin="round"/>
</svg>
