<svg width="111" height="75" viewBox="0 0 111 75" fill="none" xmlns="http://www.w3.org/2000/svg">
<path d="M27 19.22L24.45 20.5V25.3L27 24.02V19.22Z" fill="#4B3726" stroke="#4A3222" stroke-width="1.3" stroke-linejoin="round"/>
<path d="M21.9 19.22L24.45 20.5V25.3L21.9 24.02V19.22Z" fill="#5E4530" stroke="#4A3222" stroke-width="1.3" stroke-linejoin="round"/>
<path d="M24.45 17.9501L27 19.2201L24.45 20.5001L21.9 19.2201L24.45 17.9501Z" fill="#7A593E" stroke="#4A3222" stroke-width="1.3" stroke-linejoin="round"/>
<path d="M9.15004 28.15L6.60004 29.42V34.23L9.15004 32.95V28.15Z" fill="#4B3726" stroke="#4A3222" stroke-width="1.3" stroke-linejoin="round"/>
<path d="M4.05005 28.15L6.60005 29.42V34.23L4.05005 32.95V28.15Z" fill="#5E4530" stroke="#4A3222" stroke-width="1.3" stroke-linejoin="round"/>
<path d="M6.60005 26.8701L9.15005 28.1501L6.60005 29.4201L4.05005 28.1501L6.60005 26.8701Z" fill="#7A593E" stroke="#4A3222" stroke-width="1.3" stroke-linejoin="round"/>
<path d="M106.05 58.7501L103.5 60.0301V64.8301L106.05 63.5501V58.7501Z" fill="#4B3726" stroke="#4A3222" stroke-width="1.3" stroke-linejoin="round"/>
<path d="M100.95 58.7501L103.5 60.0301V64.8301L100.95 63.5501V58.7501Z" fill="#5E4530" stroke="#4A3222" stroke-width="1.3" stroke-linejoin="round"/>
<path d="M103.5 57.47L106.05 58.75L103.5 60.03L100.95 58.75L103.5 57.47Z" fill="#7A593E" stroke="#4A3222" stroke-width="1.3" stroke-linejoin="round"/>
<path d="M88.2 67.6801L85.65 68.9501V73.7501L88.2 72.4801V67.6801Z" fill="#4B3726" stroke="#4A3222" stroke-width="1.3" stroke-linejoin="round"/>
<path d="M83.1 67.6801L85.65 68.9501V73.7501L83.1 72.4801V67.6801Z" fill="#5E4530" stroke="#4A3222" stroke-width="1.3" stroke-linejoin="round"/>
<path d="M85.65 66.4001L88.2 67.6801L85.65 68.9501L83.1 67.6801L85.65 66.4001Z" fill="#7A593E" stroke="#4A3222" stroke-width="1.3" stroke-linejoin="round"/>
<path d="M109.45 43.15L85.65 55.05V70.65L109.45 58.75V43.15Z" fill="#A39A88" stroke="#4A3222" stroke-width="1.3" stroke-linejoin="round"/>
<path d="M0.650024 12.55L85.65 55.05V70.65L0.650024 28.15V12.55Z" fill="#CCC1AA" stroke="#4A3222" stroke-width="1.3" stroke-linejoin="round"/>
<path d="M24.45 0.650024L109.45 43.15L85.65 55.05L0.650024 12.55L24.45 0.650024Z" fill="#FFFADC" stroke="#4A3222" stroke-width="1.3" stroke-linejoin="round"/>
<path d="M3.20001 27.0301L42.3 46.5801V35.1801L3.20001 15.6201V27.0301Z" fill="#FEF1D4" stroke="#4A3222" stroke-linejoin="round"/>
<path d="M44 47.42L83.1 66.98V55.58L44 36.02V47.42Z" fill="#FEF1D4" stroke="#4A3222" stroke-linejoin="round"/>
<path d="M38.9 42.2701C40.115 42.2701 41.1 41.2851 41.1 40.0701C41.1 38.855 40.115 37.8701 38.9 37.8701C37.685 37.8701 36.7 38.855 36.7 40.0701C36.7 41.2851 37.685 42.2701 38.9 42.2701Z" fill="#D2C8B1" stroke="#4A3222"/>
<path d="M47.4 46.5301C48.615 46.5301 49.6 45.5451 49.6 44.3301C49.6 43.115 48.615 42.1301 47.4 42.1301C46.185 42.1301 45.2 43.115 45.2 44.3301C45.2 45.5451 46.185 46.5301 47.4 46.5301Z" fill="#D2C8B1" stroke="#4A3222"/>
</svg>
