<svg width="111" height="75" viewBox="0 0 111 75" fill="none" xmlns="http://www.w3.org/2000/svg">
<path d="M27 19.22L24.45 20.5V25.3L27 24.03V19.22Z" fill="#4B3726" stroke="#4A3222" stroke-width="1.3" stroke-linejoin="round"/>
<path d="M21.9 19.22L24.45 20.5V25.3L21.9 24.02V19.22Z" fill="#5E4530" stroke="#4A3222" stroke-width="1.3" stroke-linejoin="round"/>
<path d="M24.45 17.9501L27 19.2201L24.45 20.5001L21.9 19.2201L24.45 17.9501Z" fill="#7A593E" stroke="#4A3222" stroke-width="1.3" stroke-linejoin="round"/>
<path d="M9.14998 28.15L6.59998 29.42V34.23L9.14998 32.95V28.15Z" fill="#4B3726" stroke="#4A3222" stroke-width="1.3" stroke-linejoin="round"/>
<path d="M4.04999 28.15L6.59999 29.42V34.23L4.04999 32.95V28.15Z" fill="#5E4530" stroke="#4A3222" stroke-width="1.3" stroke-linejoin="round"/>
<path d="M6.59999 26.8701L9.14999 28.1501L6.59999 29.4201L4.04999 28.1501L6.59999 26.8701Z" fill="#7A593E" stroke="#4A3222" stroke-width="1.3" stroke-linejoin="round"/>
<path d="M106.05 58.7501L103.5 60.0301V64.8301L106.05 63.5501V58.7501Z" fill="#4B3726" stroke="#4A3222" stroke-width="1.3" stroke-linejoin="round"/>
<path d="M100.95 58.7501L103.5 60.0301V64.8301L100.95 63.5501V58.7501Z" fill="#5E4530" stroke="#4A3222" stroke-width="1.3" stroke-linejoin="round"/>
<path d="M103.5 57.47L106.05 58.75L103.5 60.03L100.95 58.75L103.5 57.47Z" fill="#7A593E" stroke="#4A3222" stroke-width="1.3" stroke-linejoin="round"/>
<path d="M88.2 67.6801L85.65 68.9501V73.7501L88.2 72.4801V67.6801Z" fill="#4B3726" stroke="#4A3222" stroke-width="1.3" stroke-linejoin="round"/>
<path d="M83.1 67.6801L85.65 68.9501V73.7501L83.1 72.4801V67.6801Z" fill="#5E4530" stroke="#4A3222" stroke-width="1.3" stroke-linejoin="round"/>
<path d="M85.65 66.4001L88.2 67.6801L85.65 68.9501L83.1 67.6801L85.65 66.4001Z" fill="#7A593E" stroke="#4A3222" stroke-width="1.3" stroke-linejoin="round"/>
<path d="M109.45 43.15L85.65 55.05V70.65L109.45 58.75V43.15Z" fill="#A39A88" stroke="#4A3222" stroke-width="1.3" stroke-linejoin="round"/>
<path d="M0.649979 12.55L85.65 55.05V70.65L0.649979 28.15V12.55Z" fill="#CCC1AA" stroke="#4A3222" stroke-width="1.3" stroke-linejoin="round"/>
<path d="M24.45 0.650024L109.45 43.15L85.65 55.05L0.649979 12.55L24.45 0.650024Z" fill="#FFFADC" stroke="#4A3222" stroke-width="1.3" stroke-linejoin="round"/>
</svg>
