<svg width="111" height="75" viewBox="0 0 111 75" fill="none" xmlns="http://www.w3.org/2000/svg">
<path d="M88.2 19.22L85.65 20.5V25.3L88.2 24.02V19.22Z" fill="#4B3726" stroke="#4A3222" stroke-width="1.3" stroke-linejoin="round"/>
<path d="M83.1 19.22L85.65 20.5V25.3L83.1 24.02V19.22Z" fill="#5E4530" stroke="#4A3222" stroke-width="1.3" stroke-linejoin="round"/>
<path d="M85.65 17.9501L88.2 19.2201L85.65 20.5001L83.1 19.2201L85.65 17.9501Z" fill="#7A593E" stroke="#4A3222" stroke-width="1.3" stroke-linejoin="round"/>
<path d="M106.05 28.15L103.5 29.42V34.23L106.05 32.95V28.15Z" fill="#4B3726" stroke="#4A3222" stroke-width="1.3" stroke-linejoin="round"/>
<path d="M100.95 28.15L103.5 29.42V34.23L100.95 32.95V28.15Z" fill="#5E4530" stroke="#4A3222" stroke-width="1.3" stroke-linejoin="round"/>
<path d="M103.5 26.8701L106.05 28.1501L103.5 29.4201L100.95 28.1501L103.5 26.8701Z" fill="#7A593E" stroke="#4A3222" stroke-width="1.3" stroke-linejoin="round"/>
<path d="M9.15004 58.7501L6.60004 60.0301V64.8301L9.15004 63.5501V58.7501Z" fill="#4B3726" stroke="#4A3222" stroke-width="1.3" stroke-linejoin="round"/>
<path d="M4.05002 58.7501L6.60001 60.0301V64.8301L4.05002 63.5501V58.7501Z" fill="#5E4530" stroke="#4A3222" stroke-width="1.3" stroke-linejoin="round"/>
<path d="M6.60001 57.47L9.15002 58.75L6.60001 60.03L4.05002 58.75L6.60001 57.47Z" fill="#7A593E" stroke="#4A3222" stroke-width="1.3" stroke-linejoin="round"/>
<path d="M27 67.6801L24.45 68.9501V73.7501L27 72.4801V67.6801Z" fill="#4B3726" stroke="#4A3222" stroke-width="1.3" stroke-linejoin="round"/>
<path d="M21.9 67.6801L24.45 68.9501V73.7501L21.9 72.4801V67.6801Z" fill="#5E4530" stroke="#4A3222" stroke-width="1.3" stroke-linejoin="round"/>
<path d="M24.45 66.4001L27 67.6801L24.45 68.9501L21.9 67.6801L24.45 66.4001Z" fill="#7A593E" stroke="#4A3222" stroke-width="1.3" stroke-linejoin="round"/>
<path d="M109.45 12.55L24.45 55.05V70.65L109.45 28.15V12.55Z" fill="#A39A88" stroke="#4A3222" stroke-width="1.3" stroke-linejoin="round"/>
<path d="M0.650024 43.15L24.45 55.05V70.65L0.650024 58.75V43.15Z" fill="#CCC1AA" stroke="#4A3222" stroke-width="1.3" stroke-linejoin="round"/>
<path d="M85.65 0.650024L109.45 12.55L24.45 55.05L0.650024 43.15L85.65 0.650024Z" fill="#FFFADC" stroke="#4A3222" stroke-width="1.3" stroke-linejoin="round"/>
<path d="M106.9 27.0301L67.8 46.5801V35.1801L106.9 15.6201V27.0301Z" fill="#FEF1D4" stroke="#4A3222" stroke-linejoin="round"/>
<path d="M66.1 47.42L27 66.98V55.58L66.1 36.02V47.42Z" fill="#FEF1D4" stroke="#4A3222" stroke-linejoin="round"/>
<path d="M71.2 42.2701C72.4151 42.2701 73.4 41.2851 73.4 40.0701C73.4 38.855 72.4151 37.8701 71.2 37.8701C69.985 37.8701 69 38.855 69 40.0701C69 41.2851 69.985 42.2701 71.2 42.2701Z" fill="#D2C8B1" stroke="#4A3222"/>
<path d="M62.7 46.5301C63.9151 46.5301 64.9 45.5451 64.9 44.3301C64.9 43.115 63.9151 42.1301 62.7 42.1301C61.485 42.1301 60.5 43.115 60.5 44.3301C60.5 45.5451 61.485 46.5301 62.7 46.5301Z" fill="#D2C8B1" stroke="#4A3222"/>
</svg>
