<svg xmlns="http://www.w3.org/2000/svg" viewBox="-27.8 -24.4 116.8 81.1" width="116.8" height="81.1">
<rect id="bounds" x="-27.8" y="-24.4" width="116.8" height="81.1" fill="none" stroke="none"></rect>
<polygon points="85,22.1 61.2,34 61.2,49.6 85,37.7" fill="#a39a88" stroke="#4a3222" stroke-width="1.3" stroke-linejoin="round"></polygon>
<polygon points="-23.8,-8.5 61.2,34 61.2,49.6 -23.8,7.1" fill="#ccc1aa" stroke="#4a3222" stroke-width="1.3" stroke-linejoin="round"></polygon>
<polygon points="0,-20.4 85,22.1 61.2,34 -23.8,-8.5" fill="#fffadc" stroke="#4a3222" stroke-width="1.3" stroke-linejoin="round"></polygon>
<polygon points="2.55,-1.83 0,-0.55 0,4.25 2.55,2.98" fill="#4b3726" stroke="#4a3222" stroke-width="1.3" stroke-linejoin="round"></polygon>
<polygon points="-2.55,-1.83 0,-0.55 0,4.25 -2.55,2.97" fill="#5e4530" stroke="#4a3222" stroke-width="1.3" stroke-linejoin="round"></polygon>
<polygon points="0,-3.1 2.55,-1.83 0,-0.55 -2.55,-1.83" fill="#7a593e" stroke="#4a3222" stroke-width="1.3" stroke-linejoin="round"></polygon>
<polygon points="-15.3,7.1 -17.85,8.37 -17.85,13.18 -15.3,11.9" fill="#4b3726" stroke="#4a3222" stroke-width="1.3" stroke-linejoin="round"></polygon>
<polygon points="-20.4,7.1 -17.85,8.37 -17.85,13.18 -20.4,11.9" fill="#5e4530" stroke="#4a3222" stroke-width="1.3" stroke-linejoin="round"></polygon>
<polygon points="-17.85,5.82 -15.3,7.1 -17.85,8.37 -20.4,7.1" fill="#7a593e" stroke="#4a3222" stroke-width="1.3" stroke-linejoin="round"></polygon>
<polygon points="81.6,37.7 79.05,38.98 79.05,43.78 81.6,42.5" fill="#4b3726" stroke="#4a3222" stroke-width="1.3" stroke-linejoin="round"></polygon>
<polygon points="76.5,37.7 79.05,38.98 79.05,43.78 76.5,42.5" fill="#5e4530" stroke="#4a3222" stroke-width="1.3" stroke-linejoin="round"></polygon>
<polygon points="79.05,36.42 81.6,37.7 79.05,38.98 76.5,37.7" fill="#7a593e" stroke="#4a3222" stroke-width="1.3" stroke-linejoin="round"></polygon>
<polygon points="63.75,46.63 61.2,47.9 61.2,52.7 63.75,51.43" fill="#4b3726" stroke="#4a3222" stroke-width="1.3" stroke-linejoin="round"></polygon>
<polygon points="58.65,46.63 61.2,47.9 61.2,52.7 58.65,51.43" fill="#5e4530" stroke="#4a3222" stroke-width="1.3" stroke-linejoin="round"></polygon>
<polygon points="61.2,45.35 63.75,46.63 61.2,47.9 58.65,46.63" fill="#7a593e" stroke="#4a3222" stroke-width="1.3" stroke-linejoin="round"></polygon>
</svg>