<svg width="111" height="75" viewBox="0 0 111 75" fill="none" xmlns="http://www.w3.org/2000/svg">
<path d="M88.2 19.22L85.65 20.5V25.3L88.2 24.02V19.22Z" fill="#4B3726" stroke="#4A3222" stroke-width="1.3" stroke-linejoin="round"/>
<path d="M83.1 19.22L85.65 20.5V25.3L83.1 24.03V19.22Z" fill="#5E4530" stroke="#4A3222" stroke-width="1.3" stroke-linejoin="round"/>
<path d="M85.65 17.9501L88.2 19.2201L85.65 20.5001L83.1 19.2201L85.65 17.9501Z" fill="#7A593E" stroke="#4A3222" stroke-width="1.3" stroke-linejoin="round"/>
<path d="M106.05 28.15L103.5 29.42V34.23L106.05 32.95V28.15Z" fill="#4B3726" stroke="#4A3222" stroke-width="1.3" stroke-linejoin="round"/>
<path d="M100.95 28.15L103.5 29.42V34.23L100.95 32.95V28.15Z" fill="#5E4530" stroke="#4A3222" stroke-width="1.3" stroke-linejoin="round"/>
<path d="M103.5 26.8701L106.05 28.1501L103.5 29.4201L100.95 28.1501L103.5 26.8701Z" fill="#7A593E" stroke="#4A3222" stroke-width="1.3" stroke-linejoin="round"/>
<path d="M9.14999 58.7501L6.59999 60.0301V64.8301L9.14999 63.5501V58.7501Z" fill="#4B3726" stroke="#4A3222" stroke-width="1.3" stroke-linejoin="round"/>
<path d="M4.05 58.7501L6.59999 60.0301V64.8301L4.05 63.5501V58.7501Z" fill="#5E4530" stroke="#4A3222" stroke-width="1.3" stroke-linejoin="round"/>
<path d="M6.59999 57.47L9.14999 58.75L6.59999 60.03L4.05 58.75L6.59999 57.47Z" fill="#7A593E" stroke="#4A3222" stroke-width="1.3" stroke-linejoin="round"/>
<path d="M27 67.6801L24.45 68.9501V73.7501L27 72.4801V67.6801Z" fill="#4B3726" stroke="#4A3222" stroke-width="1.3" stroke-linejoin="round"/>
<path d="M21.9 67.6801L24.45 68.9501V73.7501L21.9 72.4801V67.6801Z" fill="#5E4530" stroke="#4A3222" stroke-width="1.3" stroke-linejoin="round"/>
<path d="M24.45 66.4001L27 67.6801L24.45 68.9501L21.9 67.6801L24.45 66.4001Z" fill="#7A593E" stroke="#4A3222" stroke-width="1.3" stroke-linejoin="round"/>
<path d="M109.45 12.55L24.45 55.05V70.65L109.45 28.15V12.55Z" fill="#A39A88" stroke="#4A3222" stroke-width="1.3" stroke-linejoin="round"/>
<path d="M0.649994 43.15L24.45 55.05V70.65L0.649994 58.75V43.15Z" fill="#CCC1AA" stroke="#4A3222" stroke-width="1.3" stroke-linejoin="round"/>
<path d="M85.65 0.650024L109.45 12.55L24.45 55.05L0.649994 43.15L85.65 0.650024Z" fill="#FFFADC" stroke="#4A3222" stroke-width="1.3" stroke-linejoin="round"/>
</svg>
