<svg xmlns="http://www.w3.org/2000/svg" viewBox="-34.6 -21.65 96.4 66.11" width="96.4" height="66.11">
<rect id="bounds" x="-34.6" y="-21.65" width="96.4" height="66.11" fill="none" stroke="none"></rect>
<polygon points="57.8,11.25 27.2,26.55 27.2,29.19 57.8,13.89" fill="#5f4029" stroke="#4a3222" stroke-width="1.3" stroke-linejoin="round"></polygon>
<polygon points="-30.6,-2.35 27.2,26.55 27.2,29.19 -30.6,0.29" fill="#765033" stroke="#4a3222" stroke-width="1.3" stroke-linejoin="round"></polygon>
<polygon points="0,-17.65 57.8,11.25 27.2,26.55 -30.6,-2.35" fill="#996742" stroke="#4a3222" stroke-width="1.3" stroke-linejoin="round"></polygon>
<polygon points="2.72,-10.76 0,-9.4 0,4.76 2.72,3.4" fill="#442e1d" stroke="#4a3222" stroke-width="1.3" stroke-linejoin="round"></polygon>
<polygon points="-2.72,-10.76 0,-9.4 0,4.76 -2.72,3.4" fill="#553a25" stroke="#4a3222" stroke-width="1.3" stroke-linejoin="round"></polygon>
<polygon points="0,-12.12 2.72,-10.76 0,-9.4 -2.72,-10.76" fill="#6e4b2f" stroke="#4a3222" stroke-width="1.3" stroke-linejoin="round"></polygon>
<polygon points="-19.38,0.29 -22.1,1.65 -22.1,15.81 -19.38,14.45" fill="#442e1d" stroke="#4a3222" stroke-width="1.3" stroke-linejoin="round"></polygon>
<polygon points="-24.82,0.29 -22.1,1.65 -22.1,15.81 -24.82,14.45" fill="#553a25" stroke="#4a3222" stroke-width="1.3" stroke-linejoin="round"></polygon>
<polygon points="-22.1,-1.07 -19.38,0.29 -22.1,1.65 -24.82,0.29" fill="#6e4b2f" stroke="#4a3222" stroke-width="1.3" stroke-linejoin="round"></polygon>
<polygon points="52.02,13.89 49.3,15.25 49.3,29.41 52.02,28.05" fill="#442e1d" stroke="#4a3222" stroke-width="1.3" stroke-linejoin="round"></polygon>
<polygon points="46.58,13.89 49.3,15.25 49.3,29.41 46.58,28.05" fill="#553a25" stroke="#4a3222" stroke-width="1.3" stroke-linejoin="round"></polygon>
<polygon points="49.3,12.53 52.02,13.89 49.3,15.25 46.58,13.89" fill="#6e4b2f" stroke="#4a3222" stroke-width="1.3" stroke-linejoin="round"></polygon>
<polygon points="29.92,24.94 27.2,26.3 27.2,40.46 29.92,39.1" fill="#442e1d" stroke="#4a3222" stroke-width="1.3" stroke-linejoin="round"></polygon>
<polygon points="24.48,24.94 27.2,26.3 27.2,40.46 24.48,39.1" fill="#553a25" stroke="#4a3222" stroke-width="1.3" stroke-linejoin="round"></polygon>
<polygon points="27.2,23.58 29.92,24.94 27.2,26.3 24.48,24.94" fill="#6e4b2f" stroke="#4a3222" stroke-width="1.3" stroke-linejoin="round"></polygon>
</svg>