<svg width="90" height="60" viewBox="0 0 90 60" fill="none" xmlns="http://www.w3.org/2000/svg">
<path d="M33.97 7.54004L31.25 8.90004V23.06L33.97 21.7V7.54004Z" fill="#442E1D" stroke="#4A3222" stroke-width="1.3" stroke-linejoin="round"/>
<path d="M28.53 7.54004L31.25 8.90004V23.06L28.53 21.7V7.54004Z" fill="#553A25" stroke="#4A3222" stroke-width="1.3" stroke-linejoin="round"/>
<path d="M31.25 6.18005L33.97 7.54005L31.25 8.90005L28.53 7.54005L31.25 6.18005Z" fill="#6E4B2F" stroke="#4A3222" stroke-width="1.3" stroke-linejoin="round"/>
<path d="M11.87 18.59L9.15002 19.95V34.11L11.87 32.75V18.59Z" fill="#442E1D" stroke="#4A3222" stroke-width="1.3" stroke-linejoin="round"/>
<path d="M6.43005 18.59L9.15005 19.95V34.11L6.43005 32.75V18.59Z" fill="#553A25" stroke="#4A3222" stroke-width="1.3" stroke-linejoin="round"/>
<path d="M9.15005 17.23L11.8701 18.59L9.15005 19.95L6.43005 18.59L9.15005 17.23Z" fill="#6E4B2F" stroke="#4A3222" stroke-width="1.3" stroke-linejoin="round"/>
<path d="M83.27 32.1901L80.55 33.5501V47.7101L83.27 46.3501V32.1901Z" fill="#442E1D" stroke="#4A3222" stroke-width="1.3" stroke-linejoin="round"/>
<path d="M77.83 32.1901L80.55 33.5501V47.7101L77.83 46.3501V32.1901Z" fill="#553A25" stroke="#4A3222" stroke-width="1.3" stroke-linejoin="round"/>
<path d="M80.55 30.8301L83.27 32.1901L80.55 33.5501L77.83 32.1901L80.55 30.8301Z" fill="#6E4B2F" stroke="#4A3222" stroke-width="1.3" stroke-linejoin="round"/>
<path d="M61.17 43.2401L58.45 44.6V58.76L61.17 57.4V43.2401Z" fill="#442E1D" stroke="#4A3222" stroke-width="1.3" stroke-linejoin="round"/>
<path d="M55.73 43.2401L58.45 44.6V58.76L55.73 57.4V43.2401Z" fill="#553A25" stroke="#4A3222" stroke-width="1.3" stroke-linejoin="round"/>
<path d="M58.45 41.8801L61.17 43.2401L58.45 44.6001L55.73 43.2401L58.45 41.8801Z" fill="#6E4B2F" stroke="#4A3222" stroke-width="1.3" stroke-linejoin="round"/>
<path d="M31.25 0.650024L89.05 29.55L58.45 44.85L0.650024 15.95L31.25 0.650024Z" fill="#996742" stroke="#4A3222" stroke-width="1.3" stroke-linejoin="round"/>
<path d="M89.05 29.55L58.45 44.85V47.49L89.05 32.19V29.55Z" fill="#5F4029" stroke="#4A3222" stroke-width="1.3" stroke-linejoin="round"/>
<path d="M0.650024 15.9501L58.45 44.8501V47.4901L0.650024 18.5901V15.9501Z" fill="#765033" stroke="#4A3222" stroke-width="1.3" stroke-linejoin="round"/>
</svg>
