<svg width="90" height="60" viewBox="0 0 90 60" fill="none" xmlns="http://www.w3.org/2000/svg">
<path d="M61.17 7.54004L58.45 8.90004V23.06L61.17 21.7V7.54004Z" fill="#442E1D" stroke="#4A3222" stroke-width="1.3" stroke-linejoin="round"/>
<path d="M55.73 7.54004L58.45 8.90004V23.06L55.73 21.7V7.54004Z" fill="#553A25" stroke="#4A3222" stroke-width="1.3" stroke-linejoin="round"/>
<path d="M58.45 6.18005L61.17 7.54005L58.45 8.90005L55.73 7.54005L58.45 6.18005Z" fill="#6E4B2F" stroke="#4A3222" stroke-width="1.3" stroke-linejoin="round"/>
<path d="M83.27 18.59L80.55 19.95V34.11L83.27 32.75V18.59Z" fill="#442E1D" stroke="#4A3222" stroke-width="1.3" stroke-linejoin="round"/>
<path d="M77.83 18.59L80.55 19.95V34.11L77.83 32.75V18.59Z" fill="#553A25" stroke="#4A3222" stroke-width="1.3" stroke-linejoin="round"/>
<path d="M80.55 17.23L83.27 18.59L80.55 19.95L77.83 18.59L80.55 17.23Z" fill="#6E4B2F" stroke="#4A3222" stroke-width="1.3" stroke-linejoin="round"/>
<path d="M11.87 32.1901L9.14998 33.5501V47.7101L11.87 46.3501V32.1901Z" fill="#442E1D" stroke="#4A3222" stroke-width="1.3" stroke-linejoin="round"/>
<path d="M6.42998 32.1901L9.14998 33.5501V47.7101L6.42998 46.3501V32.1901Z" fill="#553A25" stroke="#4A3222" stroke-width="1.3" stroke-linejoin="round"/>
<path d="M9.14998 30.8301L11.87 32.1901L9.14998 33.5501L6.42998 32.1901L9.14998 30.8301Z" fill="#6E4B2F" stroke="#4A3222" stroke-width="1.3" stroke-linejoin="round"/>
<path d="M33.97 43.2401L31.25 44.6V58.76L33.97 57.4V43.2401Z" fill="#442E1D" stroke="#4A3222" stroke-width="1.3" stroke-linejoin="round"/>
<path d="M28.53 43.2401L31.25 44.6V58.76L28.53 57.4V43.2401Z" fill="#553A25" stroke="#4A3222" stroke-width="1.3" stroke-linejoin="round"/>
<path d="M31.25 41.8801L33.97 43.2401L31.25 44.6001L28.53 43.2401L31.25 41.8801Z" fill="#6E4B2F" stroke="#4A3222" stroke-width="1.3" stroke-linejoin="round"/>
<path d="M89.05 15.9501L31.25 44.8501V47.4901L89.05 18.5901V15.9501Z" fill="#5F4029" stroke="#4A3222" stroke-width="1.3" stroke-linejoin="round"/>
<path d="M0.649979 29.55L31.25 44.85V47.49L0.649979 32.19V29.55Z" fill="#765033" stroke="#4A3222" stroke-width="1.3" stroke-linejoin="round"/>
<path d="M58.45 0.650024L89.05 15.95L31.25 44.85L0.649979 29.55L58.45 0.650024Z" fill="#996742" stroke="#4A3222" stroke-width="1.3" stroke-linejoin="round"/>
</svg>
