<svg width="53" height="61" viewBox="0 0 53 61" fill="none" xmlns="http://www.w3.org/2000/svg">
<g id="dchair-r1">
<g id="seat-bottom">
<path id="backleg-right" d="M28.53 24.2L26.15 25.39V39.19L28.53 38V24.2Z" fill="#4B3726" stroke="#4A3222" stroke-width="1.3" stroke-linejoin="round"/>
<path id="backleg-left" d="M23.77 24.2L26.15 25.39V39.19L23.77 38V24.2Z" fill="#5E4530" stroke="#4A3222" stroke-width="1.3" stroke-linejoin="round"/>
<path id="backleg-top" d="M26.15 23.01L28.53 24.2L26.15 25.39L23.77 24.2L26.15 23.01Z" fill="#7A593E" stroke="#4A3222" stroke-width="1.3" stroke-linejoin="round"/>
<path id="leftleg-right" d="M8.13 34.4L5.75 35.59V49.39L8.13 48.2V34.4Z" fill="#4B3726" stroke="#4A3222" stroke-width="1.3" stroke-linejoin="round"/>
<path id="leftleg-left" d="M3.37 34.4L5.75 35.59V49.39L3.37 48.2V34.4Z" fill="#5E4530" stroke="#4A3222" stroke-width="1.3" stroke-linejoin="round"/>
<path id="leftleg-top" d="M5.75 33.21L8.13 34.4L5.75 35.59L3.37 34.4L5.75 33.21Z" fill="#7A593E" stroke="#4A3222" stroke-width="1.3" stroke-linejoin="round"/>
<path id="rightleg-right" d="M48.93 34.4L46.55 35.59V49.39L48.93 48.2V34.4Z" fill="#4B3726" stroke="#4A3222" stroke-width="1.3" stroke-linejoin="round"/>
<path id="rightleg-left" d="M44.17 34.4L46.55 35.59V49.39L44.17 48.2V34.4Z" fill="#5E4530" stroke="#4A3222" stroke-width="1.3" stroke-linejoin="round"/>
<path id="rightleg-top" d="M46.55 33.21L48.93 34.4L46.55 35.59L44.17 34.4L46.55 33.21Z" fill="#7A593E" stroke="#4A3222" stroke-width="1.3" stroke-linejoin="round"/>
<path id="frontleg-right" d="M28.53 44.6L26.15 45.79V59.59L28.53 58.4V44.6Z" fill="#4B3726" stroke="#4A3222" stroke-width="1.3" stroke-linejoin="round"/>
<path id="frontleg-left" d="M23.77 44.6L26.15 45.79V59.59L23.77 58.4V44.6Z" fill="#5E4530" stroke="#4A3222" stroke-width="1.3" stroke-linejoin="round"/>
<path id="frontleg-top" d="M26.15 43.41L28.53 44.6L26.15 45.79L23.77 44.6L26.15 43.41Z" fill="#7A593E" stroke="#4A3222" stroke-width="1.3" stroke-linejoin="round"/>
</g>
<g id="seat-top">
<path id="chairseat-right" d="M51.65 30.8L26.15 43.55V47.15L51.65 34.4V30.8Z" fill="#734F33" stroke="#4A3222" stroke-width="1.3" stroke-linejoin="round"/>
<path id="chairseat-left" d="M0.649994 30.8L26.15 43.55V47.15L0.649994 34.4V30.8Z" fill="#906340" stroke="#4A3222" stroke-width="1.3" stroke-linejoin="round"/>
<path id="chairseat-top" d="M26.15 18.05L51.65 30.8L26.15 43.55L0.649994 30.8L26.15 18.05Z" fill="#BA8053" stroke="#4A3222" stroke-width="1.3" stroke-linejoin="round"/>
<path id="chairback-front" d="M29.89 2.51999L4.38998 15.27V32.67L29.89 19.92V2.51999Z" fill="#734F33" stroke="#4A3222" stroke-width="1.3" stroke-linejoin="round"/>
<path id="chairback-side" d="M0.649994 13.4L4.38999 15.27V32.67L0.649994 30.8V13.4Z" fill="#906340" stroke="#4A3222" stroke-width="1.3" stroke-linejoin="round"/>
<path id="chairback-top" d="M26.15 0.649994L29.89 2.51999L4.38999 15.27L0.649994 13.4L26.15 0.649994Z" fill="#BA8053" stroke="#4A3222" stroke-width="1.3" stroke-linejoin="round"/>
</g>
</g>
</svg>
