<svg width="53" height="50" viewBox="0 0 53 50" fill="none" xmlns="http://www.w3.org/2000/svg">
<g id="dchair-r3">
<g id="seat-bottom">
<path id="backleg-right" d="M28.53 13.32L26.15 14.51V28.31L28.53 27.12V13.32Z" fill="#4B3726" stroke="#4A3222" stroke-width="1.3" stroke-linejoin="round"/>
<path id="backleg-left" d="M23.77 13.32L26.15 14.51V28.31L23.77 27.12V13.32Z" fill="#5E4530" stroke="#4A3222" stroke-width="1.3" stroke-linejoin="round"/>
<path id="backleg-top" d="M26.15 12.13L28.53 13.32L26.15 14.51L23.77 13.32L26.15 12.13Z" fill="#7A593E" stroke="#4A3222" stroke-width="1.3" stroke-linejoin="round"/>
<path id="rightleg-right" d="M48.93 23.52L46.55 24.71V38.51L48.93 37.32V23.52Z" fill="#4B3726" stroke="#4A3222" stroke-width="1.3" stroke-linejoin="round"/>
<path id="rightleg-left" d="M44.17 23.52L46.55 24.71V38.51L44.17 37.32V23.52Z" fill="#5E4530" stroke="#4A3222" stroke-width="1.3" stroke-linejoin="round"/>
<path id="rightleg-top" d="M46.55 22.33L48.93 23.52L46.55 24.71L44.17 23.52L46.55 22.33Z" fill="#7A593E" stroke="#4A3222" stroke-width="1.3" stroke-linejoin="round"/>
<path id="leftleg-right" d="M8.13 23.52L5.75 24.71V38.51L8.13 37.32V23.52Z" fill="#4B3726" stroke="#4A3222" stroke-width="1.3" stroke-linejoin="round"/>
<path id="leftleg-left" d="M3.37 23.52L5.75 24.71V38.51L3.37 37.32V23.52Z" fill="#5E4530" stroke="#4A3222" stroke-width="1.3" stroke-linejoin="round"/>
<path id="leftleg-top" d="M5.75 22.33L8.13 23.52L5.75 24.71L3.37 23.52L5.75 22.33Z" fill="#7A593E" stroke="#4A3222" stroke-width="1.3" stroke-linejoin="round"/>
<path id="frontleg-right" d="M28.53 33.72L26.15 34.91V48.71L28.53 47.52V33.72Z" fill="#4B3726" stroke="#4A3222" stroke-width="1.3" stroke-linejoin="round"/>
<path id="frontleg-left" d="M23.77 33.72L26.15 34.91V48.71L23.77 47.52V33.72Z" fill="#5E4530" stroke="#4A3222" stroke-width="1.3" stroke-linejoin="round"/>
<path id="frontleg-top" d="M26.15 32.53L28.53 33.72L26.15 34.91L23.77 33.72L26.15 32.53Z" fill="#7A593E" stroke="#4A3222" stroke-width="1.3" stroke-linejoin="round"/>
</g>
<g id="seat-top">
<path id="chairseat-right" d="M51.65 19.92L26.15 32.67V36.27L51.65 23.52V19.92Z" fill="#734F33" stroke="#4A3222" stroke-width="1.3" stroke-linejoin="round"/>
<path id="chairseat-left" d="M0.649994 19.92L26.15 32.67V36.27L0.649994 23.52V19.92Z" fill="#906340" stroke="#4A3222" stroke-width="1.3" stroke-linejoin="round"/>
<path id="chairseat-top" d="M26.15 7.17001L51.65 19.92L26.15 32.67L0.649994 19.92L26.15 7.17001Z" fill="#BA8053" stroke="#4A3222" stroke-width="1.3" stroke-linejoin="round"/>
<path id="chairback-front" d="M51.65 2.52002L26.15 15.27V32.67L51.65 19.92V2.52002Z" fill="#734F33" stroke="#4A3222" stroke-width="1.3" stroke-linejoin="round"/>
<path id="chairback-side" d="M22.41 13.4L26.15 15.27V32.67L22.41 30.8V13.4Z" fill="#906340" stroke="#4A3222" stroke-width="1.3" stroke-linejoin="round"/>
<path id="chairback-top" d="M47.91 0.649994L51.65 2.51999L26.15 15.27L22.41 13.4L47.91 0.649994Z" fill="#BA8053" stroke="#4A3222" stroke-width="1.3" stroke-linejoin="round"/>
</g>
</g>
</svg>
