<svg width="53" height="50" viewBox="0 0 53 50" fill="none" xmlns="http://www.w3.org/2000/svg">
<path d="M28.53 13.32L26.15 14.51V28.31L28.53 27.12V13.32Z" fill="#4B3726" stroke="#4A3222" stroke-width="1.3" stroke-linejoin="round"/>
<path d="M23.77 13.32L26.15 14.51V28.31L23.77 27.12V13.32Z" fill="#5E4530" stroke="#4A3222" stroke-width="1.3" stroke-linejoin="round"/>
<path d="M26.15 12.13L28.53 13.32L26.15 14.51L23.77 13.32L26.15 12.13Z" fill="#7A593E" stroke="#4A3222" stroke-width="1.3" stroke-linejoin="round"/>
<path d="M8.13003 23.5201L5.75003 24.71V38.51L8.13003 37.3201V23.5201Z" fill="#4B3726" stroke="#4A3222" stroke-width="1.3" stroke-linejoin="round"/>
<path d="M3.37003 23.5201L5.75003 24.71V38.51L3.37003 37.3201V23.5201Z" fill="#5E4530" stroke="#4A3222" stroke-width="1.3" stroke-linejoin="round"/>
<path d="M5.75003 22.33L8.13003 23.52L5.75003 24.71L3.37003 23.52L5.75003 22.33Z" fill="#7A593E" stroke="#4A3222" stroke-width="1.3" stroke-linejoin="round"/>
<path d="M48.93 23.5201L46.55 24.71V38.51L48.93 37.3201V23.5201Z" fill="#4B3726" stroke="#4A3222" stroke-width="1.3" stroke-linejoin="round"/>
<path d="M44.17 23.5201L46.55 24.71V38.51L44.17 37.3201V23.5201Z" fill="#5E4530" stroke="#4A3222" stroke-width="1.3" stroke-linejoin="round"/>
<path d="M46.55 22.33L48.93 23.52L46.55 24.71L44.17 23.52L46.55 22.33Z" fill="#7A593E" stroke="#4A3222" stroke-width="1.3" stroke-linejoin="round"/>
<path d="M28.53 33.72L26.15 34.91V48.71L28.53 47.52V33.72Z" fill="#4B3726" stroke="#4A3222" stroke-width="1.3" stroke-linejoin="round"/>
<path d="M23.77 33.72L26.15 34.91V48.71L23.77 47.52V33.72Z" fill="#5E4530" stroke="#4A3222" stroke-width="1.3" stroke-linejoin="round"/>
<path d="M26.15 32.53L28.53 33.72L26.15 34.91L23.77 33.72L26.15 32.53Z" fill="#7A593E" stroke="#4A3222" stroke-width="1.3" stroke-linejoin="round"/>
<path d="M51.65 19.92L26.15 32.67V36.27L51.65 23.52V19.92Z" fill="#734F33" stroke="#4A3222" stroke-width="1.3" stroke-linejoin="round"/>
<path d="M0.650024 19.92L26.15 32.67V36.27L0.650024 23.52V19.92Z" fill="#906340" stroke="#4A3222" stroke-width="1.3" stroke-linejoin="round"/>
<path d="M26.15 7.17004L51.65 19.92L26.15 32.67L0.650024 19.92L26.15 7.17004Z" fill="#BA8053" stroke="#4A3222" stroke-width="1.3" stroke-linejoin="round"/>
<path d="M29.89 13.4L26.15 15.27V32.67L29.89 30.8V13.4Z" fill="#734F33" stroke="#4A3222" stroke-width="1.3" stroke-linejoin="round"/>
<path d="M0.650024 2.52005L26.15 15.27V32.67L0.650024 19.92V2.52005Z" fill="#906340" stroke="#4A3222" stroke-width="1.3" stroke-linejoin="round"/>
<path d="M4.39002 0.650024L29.89 13.4L26.15 15.27L0.650024 2.52003L4.39002 0.650024Z" fill="#BA8053" stroke="#4A3222" stroke-width="1.3" stroke-linejoin="round"/>
</svg>
