<svg width="53" height="61" viewBox="0 0 53 61" fill="none" xmlns="http://www.w3.org/2000/svg">
<path d="M28.53 24.2L26.15 25.39V39.19L28.53 38V24.2Z" fill="#4B3726" stroke="#4A3222" stroke-width="1.3" stroke-linejoin="round"/>
<path d="M23.77 24.2L26.15 25.39V39.19L23.77 38V24.2Z" fill="#5E4530" stroke="#4A3222" stroke-width="1.3" stroke-linejoin="round"/>
<path d="M26.15 23.01L28.53 24.2L26.15 25.39L23.77 24.2L26.15 23.01Z" fill="#7A593E" stroke="#4A3222" stroke-width="1.3" stroke-linejoin="round"/>
<path d="M48.93 34.4L46.55 35.59V49.39L48.93 48.2V34.4Z" fill="#4B3726" stroke="#4A3222" stroke-width="1.3" stroke-linejoin="round"/>
<path d="M44.17 34.4L46.55 35.59V49.39L44.17 48.2V34.4Z" fill="#5E4530" stroke="#4A3222" stroke-width="1.3" stroke-linejoin="round"/>
<path d="M46.55 33.21L48.93 34.4L46.55 35.59L44.17 34.4L46.55 33.21Z" fill="#7A593E" stroke="#4A3222" stroke-width="1.3" stroke-linejoin="round"/>
<path d="M8.13 34.4L5.75 35.59V49.39L8.13 48.2V34.4Z" fill="#4B3726" stroke="#4A3222" stroke-width="1.3" stroke-linejoin="round"/>
<path d="M3.37 34.4L5.75 35.59V49.39L3.37 48.2V34.4Z" fill="#5E4530" stroke="#4A3222" stroke-width="1.3" stroke-linejoin="round"/>
<path d="M5.75 33.21L8.13 34.4L5.75 35.59L3.37 34.4L5.75 33.21Z" fill="#7A593E" stroke="#4A3222" stroke-width="1.3" stroke-linejoin="round"/>
<path d="M28.53 44.6L26.15 45.79V59.59L28.53 58.4V44.6Z" fill="#4B3726" stroke="#4A3222" stroke-width="1.3" stroke-linejoin="round"/>
<path d="M23.77 44.6L26.15 45.79V59.59L23.77 58.4V44.6Z" fill="#5E4530" stroke="#4A3222" stroke-width="1.3" stroke-linejoin="round"/>
<path d="M26.15 43.41L28.53 44.6L26.15 45.79L23.77 44.6L26.15 43.41Z" fill="#7A593E" stroke="#4A3222" stroke-width="1.3" stroke-linejoin="round"/>
<path d="M51.65 30.8L26.15 43.55V47.15L51.65 34.4V30.8Z" fill="#734F33" stroke="#4A3222" stroke-width="1.3" stroke-linejoin="round"/>
<path d="M0.650024 30.8L26.15 43.55V47.15L0.650024 34.4V30.8Z" fill="#906340" stroke="#4A3222" stroke-width="1.3" stroke-linejoin="round"/>
<path d="M26.15 18.05L51.65 30.8L26.15 43.55L0.650024 30.8L26.15 18.05Z" fill="#BA8053" stroke="#4A3222" stroke-width="1.3" stroke-linejoin="round"/>
<path d="M51.65 13.4L47.91 15.27V32.67L51.65 30.8V13.4Z" fill="#734F33" stroke="#4A3222" stroke-width="1.3" stroke-linejoin="round"/>
<path d="M22.41 2.52002L47.91 15.27V32.67L22.41 19.92V2.52002Z" fill="#906340" stroke="#4A3222" stroke-width="1.3" stroke-linejoin="round"/>
<path d="M26.15 0.650024L51.65 13.4L47.91 15.27L22.41 2.52002L26.15 0.650024Z" fill="#BA8053" stroke="#4A3222" stroke-width="1.3" stroke-linejoin="round"/>
</svg>
