<svg xmlns="http://www.w3.org/2000/svg" viewBox="-29.5 -27.92 59 56.06" width="59" height="56.06">
<rect id="bounds" x="-29.5" y="-27.92" width="59" height="56.06" fill="none" stroke="none"></rect>
<polygon points="25.5,-4.65 0,8.1 0,11.7 25.5,-1.05" fill="#734f33" stroke="#4a3222" stroke-width="1.3" stroke-linejoin="round"></polygon>
<polygon points="-25.5,-4.65 0,8.1 0,11.7 -25.5,-1.05" fill="#906340" stroke="#4a3222" stroke-width="1.3" stroke-linejoin="round"></polygon>
<polygon points="0,-17.4 25.5,-4.65 0,8.1 -25.5,-4.65" fill="#ba8053" stroke="#4a3222" stroke-width="1.3" stroke-linejoin="round"></polygon>
<polygon points="2.38,-11.25 0,-10.06 0,3.74 2.38,2.55" fill="#4b3726" stroke="#4a3222" stroke-width="1.3" stroke-linejoin="round"></polygon>
<polygon points="-2.38,-11.25 0,-10.06 0,3.74 -2.38,2.55" fill="#5e4530" stroke="#4a3222" stroke-width="1.3" stroke-linejoin="round"></polygon>
<polygon points="0,-12.44 2.38,-11.25 0,-10.06 -2.38,-11.25" fill="#7a593e" stroke="#4a3222" stroke-width="1.3" stroke-linejoin="round"></polygon>
<polygon points="3.74,-11.17 0,-9.3 0,8.1 3.74,6.23" fill="#734f33" stroke="#4a3222" stroke-width="1.3" stroke-linejoin="round"></polygon>
<polygon points="-25.5,-22.05 0,-9.3 0,8.1 -25.5,-4.65" fill="#906340" stroke="#4a3222" stroke-width="1.3" stroke-linejoin="round"></polygon>
<polygon points="-21.76,-23.92 3.74,-11.17 0,-9.3 -25.5,-22.05" fill="#ba8053" stroke="#4a3222" stroke-width="1.3" stroke-linejoin="round"></polygon>
<polygon points="-18.02,-1.05 -20.4,0.14 -20.4,13.94 -18.02,12.75" fill="#4b3726" stroke="#4a3222" stroke-width="1.3" stroke-linejoin="round"></polygon>
<polygon points="-22.78,-1.05 -20.4,0.14 -20.4,13.94 -22.78,12.75" fill="#5e4530" stroke="#4a3222" stroke-width="1.3" stroke-linejoin="round"></polygon>
<polygon points="-20.4,-2.24 -18.02,-1.05 -20.4,0.14 -22.78,-1.05" fill="#7a593e" stroke="#4a3222" stroke-width="1.3" stroke-linejoin="round"></polygon>
<polygon points="22.78,-1.05 20.4,0.14 20.4,13.94 22.78,12.75" fill="#4b3726" stroke="#4a3222" stroke-width="1.3" stroke-linejoin="round"></polygon>
<polygon points="18.02,-1.05 20.4,0.14 20.4,13.94 18.02,12.75" fill="#5e4530" stroke="#4a3222" stroke-width="1.3" stroke-linejoin="round"></polygon>
<polygon points="20.4,-2.24 22.78,-1.05 20.4,0.14 18.02,-1.05" fill="#7a593e" stroke="#4a3222" stroke-width="1.3" stroke-linejoin="round"></polygon>
<polygon points="2.38,9.15 0,10.34 0,24.14 2.38,22.95" fill="#4b3726" stroke="#4a3222" stroke-width="1.3" stroke-linejoin="round"></polygon>
<polygon points="-2.38,9.15 0,10.34 0,24.14 -2.38,22.95" fill="#5e4530" stroke="#4a3222" stroke-width="1.3" stroke-linejoin="round"></polygon>
<polygon points="0,7.96 2.38,9.15 0,10.34 -2.38,9.15" fill="#7a593e" stroke="#4a3222" stroke-width="1.3" stroke-linejoin="round"></polygon>
</svg>