<svg width="107" height="80" viewBox="0 0 107 80" fill="none" xmlns="http://www.w3.org/2000/svg">
<path d="M73.07 7.54004L70.35 8.90004V35.06L73.07 33.7V7.54004Z" fill="#634B33" stroke="#4A3222" stroke-width="1.3" stroke-linejoin="round"/>
<path d="M67.63 7.54004L70.35 8.90004V35.06L67.63 33.7V7.54004Z" fill="#7B5E40" stroke="#4A3222" stroke-width="1.3" stroke-linejoin="round"/>
<path d="M70.35 6.18005L73.07 7.54005L70.35 8.90005L67.63 7.54005L70.35 6.18005Z" fill="#A07A53" stroke="#4A3222" stroke-width="1.3" stroke-linejoin="round"/>
<path d="M100.27 21.14L97.55 22.5V48.66L100.27 47.3V21.14Z" fill="#634B33" stroke="#4A3222" stroke-width="1.3" stroke-linejoin="round"/>
<path d="M94.83 21.14L97.55 22.5V48.66L94.83 47.3V21.14Z" fill="#7B5E40" stroke="#4A3222" stroke-width="1.3" stroke-linejoin="round"/>
<path d="M97.55 19.78L100.27 21.14L97.55 22.5L94.83 21.14L97.55 19.78Z" fill="#A07A53" stroke="#4A3222" stroke-width="1.3" stroke-linejoin="round"/>
<path d="M11.87 38.14L9.15002 39.5V65.66L11.87 64.3V38.14Z" fill="#634B33" stroke="#4A3222" stroke-width="1.3" stroke-linejoin="round"/>
<path d="M6.43002 38.14L9.15002 39.5V65.66L6.43002 64.3V38.14Z" fill="#7B5E40" stroke="#4A3222" stroke-width="1.3" stroke-linejoin="round"/>
<path d="M9.15002 36.78L11.87 38.14L9.15002 39.5L6.43002 38.14L9.15002 36.78Z" fill="#A07A53" stroke="#4A3222" stroke-width="1.3" stroke-linejoin="round"/>
<path d="M39.07 51.74L36.35 53.1V79.26L39.07 77.9V51.74Z" fill="#634B33" stroke="#4A3222" stroke-width="1.3" stroke-linejoin="round"/>
<path d="M33.63 51.74L36.35 53.1V79.26L33.63 77.9V51.74Z" fill="#7B5E40" stroke="#4A3222" stroke-width="1.3" stroke-linejoin="round"/>
<path d="M36.35 50.38L39.07 51.74L36.35 53.1L33.63 51.74L36.35 50.38Z" fill="#A07A53" stroke="#4A3222" stroke-width="1.3" stroke-linejoin="round"/>
<path d="M106.05 18.5L36.35 53.35V55.99L106.05 21.14V18.5Z" fill="#896947" stroke="#4A3222" stroke-width="1.3" stroke-linejoin="round"/>
<path d="M0.650024 35.5L36.35 53.35V55.99L0.650024 38.14V35.5Z" fill="#AB8358" stroke="#4A3222" stroke-width="1.3" stroke-linejoin="round"/>
<path d="M70.35 0.650024L106.05 18.5L36.35 53.35L0.650024 35.5L70.35 0.650024Z" fill="#DDA972" stroke="#4A3222" stroke-width="1.3" stroke-linejoin="round"/>
</svg>
