<svg width="107" height="80" viewBox="0 0 107 80" fill="none" xmlns="http://www.w3.org/2000/svg">
<g id="desk-r2">
<path id="Vector" d="M39.07 7.54004L36.35 8.90004V35.06L39.07 33.7V7.54004Z" fill="#634B33" stroke="#4A3222" stroke-width="1.3" stroke-linejoin="round"/>
<path id="Vector_2" d="M33.63 7.54004L36.35 8.90004V35.06L33.63 33.7V7.54004Z" fill="#7B5E40" stroke="#4A3222" stroke-width="1.3" stroke-linejoin="round"/>
<path id="Vector_3" d="M36.35 6.18005L39.07 7.54005L36.35 8.90005L33.63 7.54005L36.35 6.18005Z" fill="#A07A53" stroke="#4A3222" stroke-width="1.3" stroke-linejoin="round"/>
<path id="Vector_4" d="M11.87 21.14L9.14999 22.5V48.66L11.87 47.3V21.14Z" fill="#634B33" stroke="#4A3222" stroke-width="1.3" stroke-linejoin="round"/>
<path id="Vector_5" d="M6.42999 21.14L9.14999 22.5V48.66L6.42999 47.3V21.14Z" fill="#7B5E40" stroke="#4A3222" stroke-width="1.3" stroke-linejoin="round"/>
<path id="Vector_6" d="M9.14999 19.78L11.87 21.14L9.14999 22.5L6.42999 21.14L9.14999 19.78Z" fill="#A07A53" stroke="#4A3222" stroke-width="1.3" stroke-linejoin="round"/>
<path id="Vector_7" d="M100.27 38.14L97.55 39.5V65.66L100.27 64.3V38.14Z" fill="#634B33" stroke="#4A3222" stroke-width="1.3" stroke-linejoin="round"/>
<path id="Vector_8" d="M94.83 38.14L97.55 39.5V65.66L94.83 64.3V38.14Z" fill="#7B5E40" stroke="#4A3222" stroke-width="1.3" stroke-linejoin="round"/>
<path id="Vector_9" d="M97.55 36.78L100.27 38.14L97.55 39.5L94.83 38.14L97.55 36.78Z" fill="#A07A53" stroke="#4A3222" stroke-width="1.3" stroke-linejoin="round"/>
<path id="Vector_10" d="M73.07 51.74L70.35 53.1V79.26L73.07 77.9V51.74Z" fill="#634B33" stroke="#4A3222" stroke-width="1.3" stroke-linejoin="round"/>
<path id="Vector_11" d="M67.63 51.74L70.35 53.1V79.26L67.63 77.9V51.74Z" fill="#7B5E40" stroke="#4A3222" stroke-width="1.3" stroke-linejoin="round"/>
<path id="Vector_12" d="M70.35 50.38L73.07 51.74L70.35 53.1L67.63 51.74L70.35 50.38Z" fill="#A07A53" stroke="#4A3222" stroke-width="1.3" stroke-linejoin="round"/>
<path id="Vector_13" d="M106.05 35.5L70.35 53.35V55.99L106.05 38.14V35.5Z" fill="#896947" stroke="#4A3222" stroke-width="1.3" stroke-linejoin="round"/>
<path id="Vector_14" d="M0.649994 18.5L70.35 53.35V55.99L0.649994 21.14V18.5Z" fill="#AB8358" stroke="#4A3222" stroke-width="1.3" stroke-linejoin="round"/>
<path id="Vector_15" d="M36.35 0.650024L106.05 35.5L70.35 53.35L0.649994 18.5L36.35 0.650024Z" fill="#DDA972" stroke="#4A3222" stroke-width="1.3" stroke-linejoin="round"/>
</g>
</svg>
