<svg xmlns="http://www.w3.org/2000/svg" viewBox="-39.7 -33.65 113.4 86.61" width="113.4" height="86.61">
<rect id="bounds" x="-39.7" y="-33.65" width="113.4" height="86.61" fill="none" stroke="none"></rect>
<polygon points="69.7,5.2 34,23.05 34,25.69 69.7,7.84" fill="#896947" stroke="#4a3222" stroke-width="1.3" stroke-linejoin="round"></polygon>
<polygon points="-35.7,-11.8 34,23.05 34,25.69 -35.7,-9.16" fill="#ab8358" stroke="#4a3222" stroke-width="1.3" stroke-linejoin="round"></polygon>
<polygon points="0,-29.65 69.7,5.2 34,23.05 -35.7,-11.8" fill="#dda972" stroke="#4a3222" stroke-width="1.3" stroke-linejoin="round"></polygon>
<polygon points="2.72,-22.76 0,-21.4 0,4.76 2.72,3.4" fill="#634b33" stroke="#4a3222" stroke-width="1.3" stroke-linejoin="round"></polygon>
<polygon points="-2.72,-22.76 0,-21.4 0,4.76 -2.72,3.4" fill="#7b5e40" stroke="#4a3222" stroke-width="1.3" stroke-linejoin="round"></polygon>
<polygon points="0,-24.12 2.72,-22.76 0,-21.4 -2.72,-22.76" fill="#a07a53" stroke="#4a3222" stroke-width="1.3" stroke-linejoin="round"></polygon>
<polygon points="-24.48,-9.16 -27.2,-7.8 -27.2,18.36 -24.48,17" fill="#634b33" stroke="#4a3222" stroke-width="1.3" stroke-linejoin="round"></polygon>
<polygon points="-29.92,-9.16 -27.2,-7.8 -27.2,18.36 -29.92,17" fill="#7b5e40" stroke="#4a3222" stroke-width="1.3" stroke-linejoin="round"></polygon>
<polygon points="-27.2,-10.52 -24.48,-9.16 -27.2,-7.8 -29.92,-9.16" fill="#a07a53" stroke="#4a3222" stroke-width="1.3" stroke-linejoin="round"></polygon>
<polygon points="63.92,7.84 61.2,9.2 61.2,35.36 63.92,34" fill="#634b33" stroke="#4a3222" stroke-width="1.3" stroke-linejoin="round"></polygon>
<polygon points="58.48,7.84 61.2,9.2 61.2,35.36 58.48,34" fill="#7b5e40" stroke="#4a3222" stroke-width="1.3" stroke-linejoin="round"></polygon>
<polygon points="61.2,6.48 63.92,7.84 61.2,9.2 58.48,7.84" fill="#a07a53" stroke="#4a3222" stroke-width="1.3" stroke-linejoin="round"></polygon>
<polygon points="36.72,21.44 34,22.8 34,48.96 36.72,47.6" fill="#634b33" stroke="#4a3222" stroke-width="1.3" stroke-linejoin="round"></polygon>
<polygon points="31.28,21.44 34,22.8 34,48.96 31.28,47.6" fill="#7b5e40" stroke="#4a3222" stroke-width="1.3" stroke-linejoin="round"></polygon>
<polygon points="34,20.08 36.72,21.44 34,22.8 31.28,21.44" fill="#a07a53" stroke="#4a3222" stroke-width="1.3" stroke-linejoin="round"></polygon>
</svg>