<svg width="31" height="41" viewBox="0 0 31 41" fill="none" xmlns="http://www.w3.org/2000/svg">
<path d="M24.95 32.72L14.75 37.82V39.5L24.95 34.4V32.72Z" fill="#4B3726" stroke="#4A3222" stroke-width="1.3" stroke-linejoin="round"/>
<path d="M4.55005 32.72L14.75 37.82V39.5L4.55005 34.4V32.72Z" fill="#5E4530" stroke="#4A3222" stroke-width="1.3" stroke-linejoin="round"/>
<path d="M14.75 27.62L24.95 32.72L14.75 37.82L4.55005 32.72L14.75 27.62Z" fill="#7A593E" stroke="#4A3222" stroke-width="1.3" stroke-linejoin="round"/>
<path d="M14.75 32.72V23" stroke="#6F5138" stroke-width="2.5" stroke-linecap="round"/>
<path d="M7.35002 14H22.15L27.85 23.6H1.65002L7.35002 14Z" fill="#F2D38A" stroke="#4A3222" stroke-width="1.3" stroke-linejoin="round"/>
<path d="M26.2496 5L29.3668 24.4844C29.4212 24.6539 29.4498 24.8257 29.4498 25C29.4498 27.6509 23.0031 29.7997 15.0504 29.7998C7.09751 29.7998 0.650024 27.651 0.650024 25C0.650027 24.8258 0.677785 24.6538 0.732056 24.4844L3.85022 5H26.2496Z" fill="#F2D38A"/>
<path d="M26.2496 5L26.8915 4.89732L26.8039 4.35H26.2496V5ZM29.3668 24.4844L28.725 24.5871L28.7328 24.6358L28.7479 24.6828L29.3668 24.4844ZM29.4498 25H30.0998V25L29.4498 25ZM15.0504 29.7998V30.4498H15.0504L15.0504 29.7998ZM0.650024 25L2.44379e-05 25V25H0.650024ZM0.732056 24.4844L1.35106 24.6827L1.3661 24.6358L1.37389 24.5871L0.732056 24.4844ZM3.85022 5V4.35H3.29597L3.20839 4.89728L3.85022 5ZM26.2496 5L25.6078 5.10268L28.725 24.5871L29.3668 24.4844L30.0087 24.3817L26.8915 4.89732L26.2496 5ZM29.3668 24.4844L28.7479 24.6828C28.7832 24.7932 28.7998 24.8981 28.7998 25L29.4498 25L30.0998 25C30.0998 24.7533 30.0591 24.5145 29.9858 24.2859L29.3668 24.4844ZM29.4498 25H28.7998C28.7998 25.3782 28.5705 25.842 27.9159 26.3578C27.2687 26.8679 26.2919 27.3557 25.0268 27.7773C22.5036 28.6184 18.9764 29.1498 15.0504 29.1498L15.0504 29.7998L15.0504 30.4498C19.0772 30.4498 22.7497 29.9067 25.4379 29.0106C26.7787 28.5637 27.9106 28.0172 28.7206 27.3788C29.5233 26.7462 30.0998 25.9472 30.0998 25H29.4498ZM15.0504 29.7998V29.1498C11.1244 29.1498 7.5969 28.6185 5.07341 27.7774C3.80827 27.3557 2.83133 26.8679 2.18402 26.3578C1.52939 25.8419 1.30002 25.3782 1.30002 25H0.650024H2.44379e-05C2.44379e-05 25.9473 0.5766 26.7463 1.3794 27.3789C2.18952 28.0173 3.32151 28.5638 4.66235 29.0107C7.35083 29.9067 11.0235 30.4498 15.0504 30.4498V29.7998ZM0.650024 25L1.30002 25C1.30003 24.896 1.31644 24.7908 1.35106 24.6827L0.732056 24.4844L0.113051 24.286C0.0391296 24.5168 2.81334e-05 24.7556 2.44379e-05 25L0.650024 25ZM0.732056 24.4844L1.37389 24.5871L4.49205 5.10272L3.85022 5L3.20839 4.89728L0.0902227 24.3817L0.732056 24.4844ZM3.85022 5V5.65H26.2496V5V4.35H3.85022V5Z" fill="#4A3222"/>
<ellipse cx="15.05" cy="5" rx="11.2" ry="4" fill="#F9E5B5" stroke="#4A3222" stroke-width="1.3"/>
</svg>
