<svg xmlns="http://www.w3.org/2000/svg" viewBox="-49.9 -34 79.4 71.54" width="79.4" height="71.54">
<rect id="bounds" x="-49.9" y="-34" width="79.4" height="71.54" fill="none" stroke="none"></rect>
<polygon points="25.5,-17.25 -20.4,5.7 -20.4,33.54 25.5,10.59" fill="#947249" stroke="#4a3222" stroke-width="1.3" stroke-linejoin="round"></polygon>
<polygon points="-45.9,-7.05 -20.4,5.7 -20.4,33.54 -45.9,20.79" fill="#b88f5c" stroke="#4a3222" stroke-width="1.3" stroke-linejoin="round"></polygon>
<polygon points="0,-30 25.5,-17.25 -20.4,5.7 -45.9,-7.05" fill="#efb977" stroke="#4a3222" stroke-width="1.3" stroke-linejoin="round"></polygon>
<polygon points="23.46,10.17 -18.36,31.08 -18.36,23.56 23.46,2.65" fill="#efb977" stroke="#4a3222" stroke-width="1" stroke-linejoin="round"></polygon>
<circle cx="2.55" cy="16.87" r="2.2" fill="#e9c46a" stroke="#4a3222" stroke-width="1"></circle>
<polygon points="23.46,1.45 -18.36,22.36 -18.36,14.84 23.46,-6.07" fill="#efb977" stroke="#4a3222" stroke-width="1" stroke-linejoin="round"></polygon>
<circle cx="2.55" cy="8.15" r="2.2" fill="#e9c46a" stroke="#4a3222" stroke-width="1"></circle>
<polygon points="23.46,-7.27 -18.36,13.64 -18.36,6.12 23.46,-14.79" fill="#efb977" stroke="#4a3222" stroke-width="1" stroke-linejoin="round"></polygon>
<circle cx="2.55" cy="-0.58" r="2.2" fill="#e9c46a" stroke="#4a3222" stroke-width="1"></circle>
</svg>