<svg width="22" height="81" viewBox="0 0 22 81" fill="none" xmlns="http://www.w3.org/2000/svg">
<path d="M21.05 73.32L10.85 78.42V80.1L21.05 75V73.32Z" fill="#4B3726" stroke="#4A3222" stroke-width="1.3" stroke-linejoin="round"/>
<path d="M0.649994 73.32L10.85 78.42V80.1L0.649994 75V73.32Z" fill="#5E4530" stroke="#4A3222" stroke-width="1.3" stroke-linejoin="round"/>
<path d="M10.85 68.22L21.05 73.32L10.85 78.42L0.649994 73.32L10.85 68.22Z" fill="#7A593E" stroke="#4A3222" stroke-width="1.3" stroke-linejoin="round"/>
<path d="M10.85 73.32V24" stroke="#6F5138" stroke-width="2.5" stroke-linecap="round"/>
<path d="M11.0502 60.7802C13.7655 60.7802 16.1854 61.3638 17.8979 62.2704C19.6452 63.1955 20.4701 64.3404 20.4701 65.4003C20.4699 66.46 19.6449 67.6042 17.8979 68.5292C16.1854 69.4358 13.7655 70.0194 11.0502 70.0194C8.33489 70.0194 5.91502 69.4357 4.20255 68.5292C2.45537 67.6042 1.63048 66.46 1.63028 65.4003C1.63028 64.3404 2.45516 63.1955 4.20255 62.2704C5.91502 61.3639 8.33493 60.7802 11.0502 60.7802Z" fill="#F9E5B5" stroke="#4A3222" stroke-width="1.56"/>
<path d="M11.0502 51.1802C13.7655 51.1802 16.1854 51.7638 17.8979 52.6704C19.6452 53.5955 20.4701 54.7404 20.4701 55.8003C20.4699 56.86 19.6449 58.0042 17.8979 58.9292C16.1854 59.8358 13.7655 60.4194 11.0502 60.4194C8.33489 60.4194 5.91502 59.8358 4.20255 58.9292C2.45537 58.0042 1.63048 56.8601 1.63028 55.8003C1.63028 54.7404 2.45516 53.5955 4.20255 52.6704C5.91502 51.7639 8.33493 51.1802 11.0502 51.1802Z" fill="#F9E5B5" stroke="#4A3222" stroke-width="1.56"/>
<mask id="path-7-inside-1_22_2280" fill="white">
<path d="M0.850006 56.3999H21.25V64.7999H0.850006V56.3999Z"/>
</mask>
<path d="M0.850006 56.3999H21.25V64.7999H0.850006V56.3999Z" fill="#F9E5B5"/>
<path d="M21.25 56.3999H19.69V64.7999H21.25H22.81V56.3999H21.25ZM0.850006 64.7999H2.41001V56.3999H0.850006H-0.709994V64.7999H0.850006Z" fill="#4A3222" mask="url(#path-7-inside-1_22_2280)"/>
<path d="M11.0502 53.5802C13.7655 53.5802 16.1854 54.1638 17.8979 55.0704C19.6452 55.9955 20.4701 57.1404 20.4701 58.2003C20.4699 59.2601 19.6449 60.4043 17.8979 61.3292C16.1854 62.2358 13.7655 62.8194 11.0502 62.8195C8.33489 62.8195 5.91502 62.2358 4.20255 61.3292C2.45537 60.4042 1.63048 59.2601 1.63028 58.2003C1.63028 57.1404 2.45516 55.9955 4.20255 55.0704C5.91502 54.1639 8.33493 53.5802 11.0502 53.5802Z" fill="#F9E5B5" stroke="#4A3222" stroke-width="1.56"/>
<path d="M11.0502 43.9802C13.7655 43.9802 16.1854 44.5638 17.8979 45.4704C19.6452 46.3955 20.4701 47.5404 20.4701 48.6003C20.4699 49.66 19.6449 50.8042 17.8979 51.7292C16.1854 52.6358 13.7655 53.2194 11.0502 53.2194C8.33489 53.2194 5.91502 52.6357 4.20255 51.7292C2.45537 50.8042 1.63048 49.6601 1.63028 48.6003C1.63028 47.5404 2.45516 46.3955 4.20255 45.4704C5.91502 44.5639 8.33493 43.9802 11.0502 43.9802Z" fill="#F9E5B5" stroke="#4A3222" stroke-width="1.56"/>
<mask id="path-11-inside-2_22_2280" fill="white">
<path d="M0.850006 49.1999H21.25V57.5999H0.850006V49.1999Z"/>
</mask>
<path d="M0.850006 49.1999H21.25V57.5999H0.850006V49.1999Z" fill="#F9E5B5"/>
<path d="M21.25 49.1999H19.69V57.5999H21.25H22.81V49.1999H21.25ZM0.850006 57.5999H2.41001V49.1999H0.850006H-0.709994V57.5999H0.850006Z" fill="#4A3222" mask="url(#path-11-inside-2_22_2280)"/>
<path d="M11.0502 46.3802C13.7655 46.3802 16.1854 46.9638 17.8979 47.8704C19.6452 48.7955 20.4701 49.9404 20.4701 51.0003C20.4699 52.06 19.6449 53.2042 17.8979 54.1292C16.1854 55.0358 13.7655 55.6194 11.0502 55.6194C8.33489 55.6194 5.91502 55.0358 4.20255 54.1292C2.45537 53.2042 1.63048 52.0601 1.63028 51.0003C1.63028 49.9404 2.45516 48.7955 4.20255 47.8704C5.91502 46.9639 8.33493 46.3802 11.0502 46.3802Z" fill="#F9E5B5" stroke="#4A3222" stroke-width="1.56"/>
<path d="M11.0502 36.7802C13.7655 36.7802 16.1854 37.3638 17.8979 38.2704C19.6452 39.1955 20.4701 40.3404 20.4701 41.4003C20.4699 42.46 19.6449 43.6042 17.8979 44.5292C16.1854 45.4358 13.7655 46.0194 11.0502 46.0194C8.33489 46.0194 5.91502 45.4357 4.20255 44.5292C2.45537 43.6042 1.63048 42.46 1.63028 41.4003C1.63028 40.3404 2.45516 39.1955 4.20255 38.2704C5.91502 37.3639 8.33493 36.7802 11.0502 36.7802Z" fill="#F9E5B5" stroke="#4A3222" stroke-width="1.56"/>
<mask id="path-15-inside-3_22_2280" fill="white">
<path d="M0.850006 41.9999H21.25V50.3999H0.850006V41.9999Z"/>
</mask>
<path d="M0.850006 41.9999H21.25V50.3999H0.850006V41.9999Z" fill="#F9E5B5"/>
<path d="M21.25 41.9999H19.69V50.3999H21.25H22.81V41.9999H21.25ZM0.850006 50.3999H2.41001V41.9999H0.850006H-0.709994V50.3999H0.850006Z" fill="#4A3222" mask="url(#path-15-inside-3_22_2280)"/>
<path d="M11.0502 39.1802C13.7655 39.1802 16.1854 39.7638 17.8979 40.6704C19.6452 41.5955 20.4701 42.7404 20.4701 43.8003C20.4699 44.86 19.6449 46.0042 17.8979 46.9292C16.1854 47.8358 13.7655 48.4194 11.0502 48.4194C8.33489 48.4194 5.91502 47.8358 4.20255 46.9292C2.45537 46.0042 1.63048 44.8601 1.63028 43.8003C1.63028 42.7404 2.45516 41.5955 4.20255 40.6704C5.91502 39.7639 8.33493 39.1802 11.0502 39.1802Z" fill="#F9E5B5" stroke="#4A3222" stroke-width="1.56"/>
<path d="M11.0502 29.5802C13.7655 29.5802 16.1854 30.1638 17.8979 31.0704C19.6452 31.9955 20.4701 33.1404 20.4701 34.2003C20.4699 35.2601 19.6449 36.4043 17.8979 37.3292C16.1854 38.2358 13.7655 38.8194 11.0502 38.8195C8.33489 38.8195 5.91502 38.2358 4.20255 37.3292C2.45537 36.4042 1.63048 35.2601 1.63028 34.2003C1.63028 33.1404 2.45516 31.9955 4.20255 31.0704C5.91502 30.1639 8.33493 29.5802 11.0502 29.5802Z" fill="#F9E5B5" stroke="#4A3222" stroke-width="1.56"/>
<mask id="path-19-inside-4_22_2280" fill="white">
<path d="M0.850006 34.7999H21.25V43.1999H0.850006V34.7999Z"/>
</mask>
<path d="M0.850006 34.7999H21.25V43.1999H0.850006V34.7999Z" fill="#F9E5B5"/>
<path d="M21.25 34.7999H19.69V43.1999H21.25H22.81V34.7999H21.25ZM0.850006 43.1999H2.41001V34.7999H0.850006H-0.709994V43.1999H0.850006Z" fill="#4A3222" mask="url(#path-19-inside-4_22_2280)"/>
<path d="M11.0502 31.9802C13.7655 31.9802 16.1854 32.5638 17.8979 33.4704C19.6452 34.3955 20.4701 35.5404 20.4701 36.6003C20.4699 37.66 19.6449 38.8042 17.8979 39.7292C16.1854 40.6358 13.7655 41.2194 11.0502 41.2194C8.33489 41.2194 5.91502 40.6357 4.20255 39.7292C2.45537 38.8042 1.63048 37.6601 1.63028 36.6003C1.63028 35.5404 2.45516 34.3955 4.20255 33.4704C5.91502 32.5639 8.33493 31.9802 11.0502 31.9802Z" fill="#F9E5B5" stroke="#4A3222" stroke-width="1.56"/>
<path d="M11.0502 22.3802C13.7655 22.3802 16.1854 22.9638 17.8979 23.8704C19.6452 24.7955 20.4701 25.9404 20.4701 27.0003C20.4699 28.06 19.6449 29.2042 17.8979 30.1292C16.1854 31.0358 13.7655 31.6194 11.0502 31.6194C8.33489 31.6194 5.91502 31.0358 4.20255 30.1292C2.45537 29.2042 1.63048 28.0601 1.63028 27.0003C1.63028 25.9404 2.45516 24.7955 4.20255 23.8704C5.91502 22.9639 8.33493 22.3802 11.0502 22.3802Z" fill="#F9E5B5" stroke="#4A3222" stroke-width="1.56"/>
<mask id="path-23-inside-5_22_2280" fill="white">
<path d="M0.850006 27.5999H21.25V35.9999H0.850006V27.5999Z"/>
</mask>
<path d="M0.850006 27.5999H21.25V35.9999H0.850006V27.5999Z" fill="#F9E5B5"/>
<path d="M21.25 27.5999H19.69V35.9999H21.25H22.81V27.5999H21.25ZM0.850006 35.9999H2.41001V27.5999H0.850006H-0.709994V35.9999H0.850006Z" fill="#4A3222" mask="url(#path-23-inside-5_22_2280)"/>
<path d="M11.0502 24.7802C13.7655 24.7802 16.1854 25.3638 17.8979 26.2704C19.6452 27.1955 20.4701 28.3404 20.4701 29.4003C20.4699 30.46 19.6449 31.6042 17.8979 32.5292C16.1854 33.4358 13.7655 34.0194 11.0502 34.0194C8.33489 34.0194 5.91502 33.4357 4.20255 32.5292C2.45537 31.6042 1.63048 30.46 1.63028 29.4003C1.63028 28.3404 2.45516 27.1955 4.20255 26.2704C5.91502 25.3639 8.33493 24.7802 11.0502 24.7802Z" fill="#F9E5B5" stroke="#4A3222" stroke-width="1.56"/>
<path d="M11.0502 15.1802C13.7655 15.1802 16.1854 15.7638 17.8979 16.6704C19.6452 17.5955 20.4701 18.7404 20.4701 19.8003C20.4699 20.86 19.6449 22.0042 17.8979 22.9292C16.1854 23.8358 13.7655 24.4194 11.0502 24.4194C8.33489 24.4194 5.91502 23.8358 4.20255 22.9292C2.45537 22.0042 1.63048 20.8601 1.63028 19.8003C1.63028 18.7404 2.45516 17.5955 4.20255 16.6704C5.91502 15.7639 8.33493 15.1802 11.0502 15.1802Z" fill="#F9E5B5" stroke="#4A3222" stroke-width="1.56"/>
<mask id="path-27-inside-6_22_2280" fill="white">
<path d="M0.850006 20.3999H21.25V28.7999H0.850006V20.3999Z"/>
</mask>
<path d="M0.850006 20.3999H21.25V28.7999H0.850006V20.3999Z" fill="#F9E5B5"/>
<path d="M21.25 20.3999H19.69V28.7999H21.25H22.81V20.3999H21.25ZM0.850006 28.7999H2.41001V20.3999H0.850006H-0.709994V28.7999H0.850006Z" fill="#4A3222" mask="url(#path-27-inside-6_22_2280)"/>
<path d="M11.0502 17.5802C13.7655 17.5802 16.1854 18.1638 17.8979 19.0704C19.6452 19.9955 20.4701 21.1404 20.4701 22.2003C20.4699 23.2601 19.6449 24.4043 17.8979 25.3292C16.1854 26.2358 13.7655 26.8194 11.0502 26.8195C8.33489 26.8195 5.91502 26.2358 4.20255 25.3292C2.45537 24.4042 1.63048 23.2601 1.63028 22.2003C1.63028 21.1404 2.45516 19.9955 4.20255 19.0704C5.91502 18.1639 8.33493 17.5802 11.0502 17.5802Z" fill="#F9E5B5" stroke="#4A3222" stroke-width="1.56"/>
<path d="M11.0502 7.98016C13.7655 7.98019 16.1854 8.56381 17.8979 9.4704C19.6452 10.3955 20.4701 11.5404 20.4701 12.6003C20.4699 13.66 19.6449 14.8042 17.8979 15.7292C16.1854 16.6358 13.7655 17.2194 11.0502 17.2194C8.33489 17.2194 5.91502 16.6357 4.20255 15.7292C2.45537 14.8042 1.63048 13.6601 1.63028 12.6003C1.63028 11.5404 2.45516 10.3955 4.20255 9.4704C5.91502 8.56386 8.33493 7.98016 11.0502 7.98016Z" fill="#F9E5B5" stroke="#4A3222" stroke-width="1.56"/>
<mask id="path-31-inside-7_22_2280" fill="white">
<path d="M0.850006 13.1999H21.25V21.5999H0.850006V13.1999Z"/>
</mask>
<path d="M0.850006 13.1999H21.25V21.5999H0.850006V13.1999Z" fill="#F9E5B5"/>
<path d="M21.25 13.1999H19.69V21.5999H21.25H22.81V13.1999H21.25ZM0.850006 21.5999H2.41001V13.1999H0.850006H-0.709994V21.5999H0.850006Z" fill="#4A3222" mask="url(#path-31-inside-7_22_2280)"/>
<path d="M11.0502 10.3802C13.7655 10.3802 16.1854 10.9638 17.8979 11.8704C19.6452 12.7955 20.4701 13.9404 20.4701 15.0003C20.4699 16.06 19.6449 17.2042 17.8979 18.1292C16.1854 19.0358 13.7655 19.6194 11.0502 19.6194C8.33489 19.6194 5.91502 19.0358 4.20255 18.1292C2.45537 17.2042 1.63048 16.0601 1.63028 15.0003C1.63028 13.9404 2.45516 12.7955 4.20255 11.8704C5.91502 10.9639 8.33493 10.3802 11.0502 10.3802Z" fill="#F9E5B5" stroke="#4A3222" stroke-width="1.56"/>
<mask id="path-34-inside-8_22_2280" fill="white">
<path d="M0.850006 5.99988H21.25V14.3999H0.850006V5.99988Z"/>
</mask>
<path d="M0.850006 5.99988H21.25V14.3999H0.850006V5.99988Z" fill="#F9E5B5"/>
<path d="M21.25 5.99988H19.69V14.3999H21.25H22.81V5.99988H21.25ZM0.850006 14.3999H2.41001V5.99988H0.850006H-0.709994V14.3999H0.850006Z" fill="#4A3222" mask="url(#path-34-inside-8_22_2280)"/>
<path d="M11.0502 0.780273C13.7655 0.780301 16.1854 1.36392 17.8979 2.27051C19.6452 3.19559 20.4701 4.34052 20.4701 5.40039C20.4699 6.46013 19.6449 7.60434 17.8979 8.5293C16.1854 9.43589 13.7655 10.0195 11.0502 10.0195C8.33489 10.0195 5.91502 9.43586 4.20255 8.5293C2.45537 7.60432 1.63048 6.46016 1.63028 5.40039C1.63028 4.34051 2.45516 3.1956 4.20255 2.27051C5.91502 1.36397 8.33493 0.780273 11.0502 0.780273Z" fill="#F9E5B5" stroke="#4A3222" stroke-width="1.56"/>
</svg>
