<svg width="22" height="81" viewBox="0 0 22 81" fill="none" xmlns="http://www.w3.org/2000/svg">
<path d="M21.05 73.32L10.85 78.42V80.1L21.05 75V73.32Z" fill="#4B3726" stroke="#4A3222" stroke-width="1.3" stroke-linejoin="round"/>
<path d="M0.650024 73.32L10.85 78.42V80.1L0.650024 75V73.32Z" fill="#5E4530" stroke="#4A3222" stroke-width="1.3" stroke-linejoin="round"/>
<path d="M10.85 68.22L21.05 73.32L10.85 78.42L0.650024 73.32L10.85 68.22Z" fill="#7A593E" stroke="#4A3222" stroke-width="1.3" stroke-linejoin="round"/>
<path d="M10.85 73.32V24" stroke="#6F5138" stroke-width="2.5" stroke-linecap="round"/>
<path d="M11.0502 60.7802C13.7656 60.7802 16.1854 61.3638 17.8979 62.2704C19.6452 63.1955 20.4702 64.3404 20.4702 65.4003C20.47 66.46 19.645 67.6042 17.8979 68.5292C16.1854 69.4358 13.7656 70.0194 11.0502 70.0194C8.33492 70.0194 5.91505 69.4357 4.20258 68.5292C2.4554 67.6042 1.63051 66.46 1.63031 65.4003C1.63031 64.3404 2.45519 63.1955 4.20258 62.2704C5.91505 61.3639 8.33496 60.7802 11.0502 60.7802Z" fill="#F9E5B5" stroke="#4A3222" stroke-width="1.56"/>
<path d="M11.0502 51.1802C13.7656 51.1802 16.1854 51.7638 17.8979 52.6704C19.6452 53.5955 20.4702 54.7404 20.4702 55.8003C20.47 56.86 19.645 58.0042 17.8979 58.9292C16.1854 59.8358 13.7656 60.4194 11.0502 60.4194C8.33492 60.4194 5.91505 59.8358 4.20258 58.9292C2.4554 58.0042 1.63051 56.8601 1.63031 55.8003C1.63031 54.7404 2.45519 53.5955 4.20258 52.6704C5.91505 51.7639 8.33496 51.1802 11.0502 51.1802Z" fill="#F9E5B5" stroke="#4A3222" stroke-width="1.56"/>
<mask id="path-7-inside-1_22_2240" fill="white">
<path d="M0.850037 56.3999H21.25V64.7999H0.850037V56.3999Z"/>
</mask>
<path d="M0.850037 56.3999H21.25V64.7999H0.850037V56.3999Z" fill="#F9E5B5"/>
<path d="M21.25 56.3999H19.69V64.7999H21.25H22.81V56.3999H21.25ZM0.850037 64.7999H2.41004V56.3999H0.850037H-0.709963V64.7999H0.850037Z" fill="#4A3222" mask="url(#path-7-inside-1_22_2240)"/>
<path d="M11.0502 53.5802C13.7656 53.5802 16.1854 54.1638 17.8979 55.0704C19.6452 55.9955 20.4702 57.1404 20.4702 58.2003C20.47 59.2601 19.645 60.4043 17.8979 61.3292C16.1854 62.2358 13.7656 62.8194 11.0502 62.8195C8.33492 62.8195 5.91505 62.2358 4.20258 61.3292C2.4554 60.4042 1.63051 59.2601 1.63031 58.2003C1.63031 57.1404 2.45519 55.9955 4.20258 55.0704C5.91505 54.1639 8.33496 53.5802 11.0502 53.5802Z" fill="#F9E5B5" stroke="#4A3222" stroke-width="1.56"/>
<path d="M11.0502 43.9802C13.7656 43.9802 16.1854 44.5638 17.8979 45.4704C19.6452 46.3955 20.4702 47.5404 20.4702 48.6003C20.47 49.66 19.645 50.8042 17.8979 51.7292C16.1854 52.6358 13.7656 53.2194 11.0502 53.2194C8.33492 53.2194 5.91505 52.6357 4.20258 51.7292C2.4554 50.8042 1.63051 49.6601 1.63031 48.6003C1.63031 47.5404 2.45519 46.3955 4.20258 45.4704C5.91505 44.5639 8.33496 43.9802 11.0502 43.9802Z" fill="#F9E5B5" stroke="#4A3222" stroke-width="1.56"/>
<mask id="path-11-inside-2_22_2240" fill="white">
<path d="M0.850037 49.1999H21.25V57.5999H0.850037V49.1999Z"/>
</mask>
<path d="M0.850037 49.1999H21.25V57.5999H0.850037V49.1999Z" fill="#F9E5B5"/>
<path d="M21.25 49.1999H19.69V57.5999H21.25H22.81V49.1999H21.25ZM0.850037 57.5999H2.41004V49.1999H0.850037H-0.709963V57.5999H0.850037Z" fill="#4A3222" mask="url(#path-11-inside-2_22_2240)"/>
<path d="M11.0502 46.3802C13.7656 46.3802 16.1854 46.9638 17.8979 47.8704C19.6452 48.7955 20.4702 49.9404 20.4702 51.0003C20.47 52.06 19.645 53.2042 17.8979 54.1292C16.1854 55.0358 13.7656 55.6194 11.0502 55.6194C8.33492 55.6194 5.91505 55.0358 4.20258 54.1292C2.4554 53.2042 1.63051 52.0601 1.63031 51.0003C1.63031 49.9404 2.45519 48.7955 4.20258 47.8704C5.91505 46.9639 8.33496 46.3802 11.0502 46.3802Z" fill="#F9E5B5" stroke="#4A3222" stroke-width="1.56"/>
<path d="M11.0502 36.7802C13.7656 36.7802 16.1854 37.3638 17.8979 38.2704C19.6452 39.1955 20.4702 40.3404 20.4702 41.4003C20.47 42.46 19.645 43.6042 17.8979 44.5292C16.1854 45.4358 13.7656 46.0194 11.0502 46.0194C8.33492 46.0194 5.91505 45.4357 4.20258 44.5292C2.4554 43.6042 1.63051 42.46 1.63031 41.4003C1.63031 40.3404 2.45519 39.1955 4.20258 38.2704C5.91505 37.3639 8.33496 36.7802 11.0502 36.7802Z" fill="#F9E5B5" stroke="#4A3222" stroke-width="1.56"/>
<mask id="path-15-inside-3_22_2240" fill="white">
<path d="M0.850037 41.9999H21.25V50.3999H0.850037V41.9999Z"/>
</mask>
<path d="M0.850037 41.9999H21.25V50.3999H0.850037V41.9999Z" fill="#F9E5B5"/>
<path d="M21.25 41.9999H19.69V50.3999H21.25H22.81V41.9999H21.25ZM0.850037 50.3999H2.41004V41.9999H0.850037H-0.709963V50.3999H0.850037Z" fill="#4A3222" mask="url(#path-15-inside-3_22_2240)"/>
<path d="M11.0502 39.1802C13.7656 39.1802 16.1854 39.7638 17.8979 40.6704C19.6452 41.5955 20.4702 42.7404 20.4702 43.8003C20.47 44.86 19.645 46.0042 17.8979 46.9292C16.1854 47.8358 13.7656 48.4194 11.0502 48.4194C8.33492 48.4194 5.91505 47.8358 4.20258 46.9292C2.4554 46.0042 1.63051 44.8601 1.63031 43.8003C1.63031 42.7404 2.45519 41.5955 4.20258 40.6704C5.91505 39.7639 8.33496 39.1802 11.0502 39.1802Z" fill="#F9E5B5" stroke="#4A3222" stroke-width="1.56"/>
<path d="M11.0502 29.5802C13.7656 29.5802 16.1854 30.1638 17.8979 31.0704C19.6452 31.9955 20.4702 33.1404 20.4702 34.2003C20.47 35.2601 19.645 36.4043 17.8979 37.3292C16.1854 38.2358 13.7656 38.8194 11.0502 38.8195C8.33492 38.8195 5.91505 38.2358 4.20258 37.3292C2.4554 36.4042 1.63051 35.2601 1.63031 34.2003C1.63031 33.1404 2.45519 31.9955 4.20258 31.0704C5.91505 30.1639 8.33496 29.5802 11.0502 29.5802Z" fill="#F9E5B5" stroke="#4A3222" stroke-width="1.56"/>
<mask id="path-19-inside-4_22_2240" fill="white">
<path d="M0.850037 34.7999H21.25V43.1999H0.850037V34.7999Z"/>
</mask>
<path d="M0.850037 34.7999H21.25V43.1999H0.850037V34.7999Z" fill="#F9E5B5"/>
<path d="M21.25 34.7999H19.69V43.1999H21.25H22.81V34.7999H21.25ZM0.850037 43.1999H2.41004V34.7999H0.850037H-0.709963V43.1999H0.850037Z" fill="#4A3222" mask="url(#path-19-inside-4_22_2240)"/>
<path d="M11.0502 31.9802C13.7656 31.9802 16.1854 32.5638 17.8979 33.4704C19.6452 34.3955 20.4702 35.5404 20.4702 36.6003C20.47 37.66 19.645 38.8042 17.8979 39.7292C16.1854 40.6358 13.7656 41.2194 11.0502 41.2194C8.33492 41.2194 5.91505 40.6357 4.20258 39.7292C2.4554 38.8042 1.63051 37.6601 1.63031 36.6003C1.63031 35.5404 2.45519 34.3955 4.20258 33.4704C5.91505 32.5639 8.33496 31.9802 11.0502 31.9802Z" fill="#F9E5B5" stroke="#4A3222" stroke-width="1.56"/>
<path d="M11.0502 22.3802C13.7656 22.3802 16.1854 22.9638 17.8979 23.8704C19.6452 24.7955 20.4702 25.9404 20.4702 27.0003C20.47 28.06 19.645 29.2042 17.8979 30.1292C16.1854 31.0358 13.7656 31.6194 11.0502 31.6194C8.33492 31.6194 5.91505 31.0358 4.20258 30.1292C2.4554 29.2042 1.63051 28.0601 1.63031 27.0003C1.63031 25.9404 2.45519 24.7955 4.20258 23.8704C5.91505 22.9639 8.33496 22.3802 11.0502 22.3802Z" fill="#F9E5B5" stroke="#4A3222" stroke-width="1.56"/>
<mask id="path-23-inside-5_22_2240" fill="white">
<path d="M0.850037 27.5999H21.25V35.9999H0.850037V27.5999Z"/>
</mask>
<path d="M0.850037 27.5999H21.25V35.9999H0.850037V27.5999Z" fill="#F9E5B5"/>
<path d="M21.25 27.5999H19.69V35.9999H21.25H22.81V27.5999H21.25ZM0.850037 35.9999H2.41004V27.5999H0.850037H-0.709963V35.9999H0.850037Z" fill="#4A3222" mask="url(#path-23-inside-5_22_2240)"/>
<path d="M11.0502 24.7802C13.7656 24.7802 16.1854 25.3638 17.8979 26.2704C19.6452 27.1955 20.4702 28.3404 20.4702 29.4003C20.47 30.46 19.645 31.6042 17.8979 32.5292C16.1854 33.4358 13.7656 34.0194 11.0502 34.0194C8.33492 34.0194 5.91505 33.4357 4.20258 32.5292C2.4554 31.6042 1.63051 30.46 1.63031 29.4003C1.63031 28.3404 2.45519 27.1955 4.20258 26.2704C5.91505 25.3639 8.33496 24.7802 11.0502 24.7802Z" fill="#F9E5B5" stroke="#4A3222" stroke-width="1.56"/>
<path d="M11.0502 15.1802C13.7656 15.1802 16.1854 15.7638 17.8979 16.6704C19.6452 17.5955 20.4702 18.7404 20.4702 19.8003C20.47 20.86 19.645 22.0042 17.8979 22.9292C16.1854 23.8358 13.7656 24.4194 11.0502 24.4194C8.33492 24.4194 5.91505 23.8358 4.20258 22.9292C2.4554 22.0042 1.63051 20.8601 1.63031 19.8003C1.63031 18.7404 2.45519 17.5955 4.20258 16.6704C5.91505 15.7639 8.33496 15.1802 11.0502 15.1802Z" fill="#F9E5B5" stroke="#4A3222" stroke-width="1.56"/>
<mask id="path-27-inside-6_22_2240" fill="white">
<path d="M0.850037 20.3999H21.25V28.7999H0.850037V20.3999Z"/>
</mask>
<path d="M0.850037 20.3999H21.25V28.7999H0.850037V20.3999Z" fill="#F9E5B5"/>
<path d="M21.25 20.3999H19.69V28.7999H21.25H22.81V20.3999H21.25ZM0.850037 28.7999H2.41004V20.3999H0.850037H-0.709963V28.7999H0.850037Z" fill="#4A3222" mask="url(#path-27-inside-6_22_2240)"/>
<path d="M11.0502 17.5802C13.7656 17.5802 16.1854 18.1638 17.8979 19.0704C19.6452 19.9955 20.4702 21.1404 20.4702 22.2003C20.47 23.2601 19.645 24.4043 17.8979 25.3292C16.1854 26.2358 13.7656 26.8194 11.0502 26.8195C8.33492 26.8195 5.91505 26.2358 4.20258 25.3292C2.4554 24.4042 1.63051 23.2601 1.63031 22.2003C1.63031 21.1404 2.45519 19.9955 4.20258 19.0704C5.91505 18.1639 8.33496 17.5802 11.0502 17.5802Z" fill="#F9E5B5" stroke="#4A3222" stroke-width="1.56"/>
<path d="M11.0502 7.98016C13.7656 7.98019 16.1854 8.56381 17.8979 9.4704C19.6452 10.3955 20.4702 11.5404 20.4702 12.6003C20.47 13.66 19.645 14.8042 17.8979 15.7292C16.1854 16.6358 13.7656 17.2194 11.0502 17.2194C8.33492 17.2194 5.91505 16.6357 4.20258 15.7292C2.4554 14.8042 1.63051 13.6601 1.63031 12.6003C1.63031 11.5404 2.45519 10.3955 4.20258 9.4704C5.91505 8.56386 8.33496 7.98016 11.0502 7.98016Z" fill="#F9E5B5" stroke="#4A3222" stroke-width="1.56"/>
<mask id="path-31-inside-7_22_2240" fill="white">
<path d="M0.850037 13.1999H21.25V21.5999H0.850037V13.1999Z"/>
</mask>
<path d="M0.850037 13.1999H21.25V21.5999H0.850037V13.1999Z" fill="#F9E5B5"/>
<path d="M21.25 13.1999H19.69V21.5999H21.25H22.81V13.1999H21.25ZM0.850037 21.5999H2.41004V13.1999H0.850037H-0.709963V21.5999H0.850037Z" fill="#4A3222" mask="url(#path-31-inside-7_22_2240)"/>
<path d="M11.0502 10.3802C13.7656 10.3802 16.1854 10.9638 17.8979 11.8704C19.6452 12.7955 20.4702 13.9404 20.4702 15.0003C20.47 16.06 19.645 17.2042 17.8979 18.1292C16.1854 19.0358 13.7656 19.6194 11.0502 19.6194C8.33492 19.6194 5.91505 19.0358 4.20258 18.1292C2.4554 17.2042 1.63051 16.0601 1.63031 15.0003C1.63031 13.9404 2.45519 12.7955 4.20258 11.8704C5.91505 10.9639 8.33496 10.3802 11.0502 10.3802Z" fill="#F9E5B5" stroke="#4A3222" stroke-width="1.56"/>
<mask id="path-34-inside-8_22_2240" fill="white">
<path d="M0.850037 5.99988H21.25V14.3999H0.850037V5.99988Z"/>
</mask>
<path d="M0.850037 5.99988H21.25V14.3999H0.850037V5.99988Z" fill="#F9E5B5"/>
<path d="M21.25 5.99988H19.69V14.3999H21.25H22.81V5.99988H21.25ZM0.850037 14.3999H2.41004V5.99988H0.850037H-0.709963V14.3999H0.850037Z" fill="#4A3222" mask="url(#path-34-inside-8_22_2240)"/>
<path d="M11.0502 0.780273C13.7656 0.780301 16.1854 1.36392 17.8979 2.27051C19.6452 3.19559 20.4702 4.34052 20.4702 5.40039C20.47 6.46013 19.645 7.60434 17.8979 8.5293C16.1854 9.43589 13.7656 10.0195 11.0502 10.0195C8.33492 10.0195 5.91505 9.43586 4.20258 8.5293C2.4554 7.60432 1.63051 6.46016 1.63031 5.40039C1.63031 4.34051 2.45519 3.1956 4.20258 2.27051C5.91505 1.36397 8.33496 0.780273 11.0502 0.780273Z" fill="#F9E5B5" stroke="#4A3222" stroke-width="1.56"/>
</svg>
