<svg xmlns="http://www.w3.org/2000/svg" viewBox="-26.1 -34 111.7 89.85" width="111.7" height="89.85">
<rect id="bounds" x="-26.1" y="-34" width="111.7" height="89.85" fill="none" stroke="none"></rect>
<polygon points="81.6,10.8 59.5,21.85 59.5,51.85 81.6,40.8" fill="#9c9481" stroke="#4a3222" stroke-width="1.3" stroke-linejoin="round"></polygon>
<polygon points="-22.1,-18.95 59.5,21.85 59.5,51.85 -22.1,11.05" fill="#c4b8a1" stroke="#4a3222" stroke-width="1.3" stroke-linejoin="round"></polygon>
<polygon points="0,-30 81.6,10.8 59.5,21.85 -22.1,-18.95" fill="#fdefd0" stroke="#4a3222" stroke-width="1.3" stroke-linejoin="round"></polygon>
<polygon points="-19.72,10.56 -1.66,19.59 -1.66,6.81 -19.72,-2.22" fill="#6b4a32" stroke="#4a3222" stroke-width="1" stroke-linejoin="round"></polygon>
<polygon points="-0.13,20.36 17.93,29.39 17.93,16.61 -0.13,7.58" fill="#6b4a32" stroke="#4a3222" stroke-width="1" stroke-linejoin="round"></polygon>
<polygon points="19.47,30.15 37.53,39.18 37.53,26.4 19.47,17.37" fill="#6b4a32" stroke="#4a3222" stroke-width="1" stroke-linejoin="round"></polygon>
<polygon points="39.06,39.95 57.12,48.98 57.12,36.2 39.06,27.17" fill="#6b4a32" stroke="#4a3222" stroke-width="1" stroke-linejoin="round"></polygon>
<polygon points="-19.72,-3.3 -1.66,5.73 -1.66,-7.05 -19.72,-16.08" fill="#6b4a32" stroke="#4a3222" stroke-width="1" stroke-linejoin="round"></polygon>
<polygon points="-0.13,6.5 17.93,15.53 17.93,2.75 -0.13,-6.28" fill="#6b4a32" stroke="#4a3222" stroke-width="1" stroke-linejoin="round"></polygon>
<polygon points="19.47,16.29 37.53,25.32 37.53,12.54 19.47,3.51" fill="#6b4a32" stroke="#4a3222" stroke-width="1" stroke-linejoin="round"></polygon>
<polygon points="39.06,26.09 57.12,35.12 57.12,22.34 39.06,13.31" fill="#6b4a32" stroke="#4a3222" stroke-width="1" stroke-linejoin="round"></polygon>
</svg>