<svg xmlns="http://www.w3.org/2000/svg" viewBox="-34.6 -40 69.2 73.24" width="69.2" height="73.24">
<rect id="bounds" x="-34.6" y="-40" width="69.2" height="73.24" fill="none" stroke="none"></rect>
<polygon points="30.6,-2.1 0,13.2 0,16.8 30.6,1.5" fill="#566153" stroke="#4a3222" stroke-width="1.3" stroke-linejoin="round"></polygon>
<polygon points="-30.6,-2.1 0,13.2 0,16.8 -30.6,1.5" fill="#6b7a68" stroke="#4a3222" stroke-width="1.3" stroke-linejoin="round"></polygon>
<polygon points="0,-17.4 30.6,-2.1 0,13.2 -30.6,-2.1" fill="#8b9d86" stroke="#4a3222" stroke-width="1.3" stroke-linejoin="round"></polygon>
<polygon points="30.6,-20.7 26.86,-18.83 26.86,-0.23 30.6,-2.1" fill="#566153" stroke="#4a3222" stroke-width="1.3" stroke-linejoin="round"></polygon>
<polygon points="-3.74,-34.13 26.86,-18.83 26.86,-0.23 -3.74,-15.53" fill="#6b7a68" stroke="#4a3222" stroke-width="1.3" stroke-linejoin="round"></polygon>
<polygon points="0,-36 30.6,-20.7 26.86,-18.83 -3.74,-34.13" fill="#8b9d86" stroke="#4a3222" stroke-width="1.3" stroke-linejoin="round"></polygon>
<polygon points="2.38,-11.25 0,-10.06 0,3.74 2.38,2.55" fill="#4b3726" stroke="#4a3222" stroke-width="1.3" stroke-linejoin="round"></polygon>
<polygon points="-2.38,-11.25 0,-10.06 0,3.74 -2.38,2.55" fill="#5e4530" stroke="#4a3222" stroke-width="1.3" stroke-linejoin="round"></polygon>
<polygon points="0,-12.44 2.38,-11.25 0,-10.06 -2.38,-11.25" fill="#7a593e" stroke="#4a3222" stroke-width="1.3" stroke-linejoin="round"></polygon>
<polygon points="27.88,1.5 25.5,2.69 25.5,16.49 27.88,15.3" fill="#4b3726" stroke="#4a3222" stroke-width="1.3" stroke-linejoin="round"></polygon>
<polygon points="23.12,1.5 25.5,2.69 25.5,16.49 23.12,15.3" fill="#5e4530" stroke="#4a3222" stroke-width="1.3" stroke-linejoin="round"></polygon>
<polygon points="25.5,0.31 27.88,1.5 25.5,2.69 23.12,1.5" fill="#7a593e" stroke="#4a3222" stroke-width="1.3" stroke-linejoin="round"></polygon>
<polygon points="-23.12,1.5 -25.5,2.69 -25.5,16.49 -23.12,15.3" fill="#4b3726" stroke="#4a3222" stroke-width="1.3" stroke-linejoin="round"></polygon>
<polygon points="-27.88,1.5 -25.5,2.69 -25.5,16.49 -27.88,15.3" fill="#5e4530" stroke="#4a3222" stroke-width="1.3" stroke-linejoin="round"></polygon>
<polygon points="-25.5,0.31 -23.12,1.5 -25.5,2.69 -27.88,1.5" fill="#7a593e" stroke="#4a3222" stroke-width="1.3" stroke-linejoin="round"></polygon>
<polygon points="2.38,14.25 0,15.44 0,29.24 2.38,28.05" fill="#4b3726" stroke="#4a3222" stroke-width="1.3" stroke-linejoin="round"></polygon>
<polygon points="-2.38,14.25 0,15.44 0,29.24 -2.38,28.05" fill="#5e4530" stroke="#4a3222" stroke-width="1.3" stroke-linejoin="round"></polygon>
<polygon points="0,13.06 2.38,14.25 0,15.44 -2.38,14.25" fill="#7a593e" stroke="#4a3222" stroke-width="1.3" stroke-linejoin="round"></polygon>
</svg>