<svg width="63" height="54" viewBox="0 0 63 54" fill="none" xmlns="http://www.w3.org/2000/svg">
<path d="M33.63 11.97L31.25 13.16V26.96L33.63 25.77V11.97Z" fill="#4B3726" stroke="#4A3222" stroke-width="1.3" stroke-linejoin="round"/>
<path d="M28.87 11.97L31.25 13.16V26.96L28.87 25.77V11.97Z" fill="#5E4530" stroke="#4A3222" stroke-width="1.3" stroke-linejoin="round"/>
<path d="M31.25 10.78L33.63 11.97L31.25 13.16L28.87 11.97L31.25 10.78Z" fill="#7A593E" stroke="#4A3222" stroke-width="1.3" stroke-linejoin="round"/>
<path d="M8.13003 24.72L5.75003 25.91V39.71L8.13003 38.52V24.72Z" fill="#4B3726" stroke="#4A3222" stroke-width="1.3" stroke-linejoin="round"/>
<path d="M3.37003 24.72L5.75002 25.91V39.71L3.37003 38.52V24.72Z" fill="#5E4530" stroke="#4A3222" stroke-width="1.3" stroke-linejoin="round"/>
<path d="M5.75002 23.53L8.13002 24.72L5.75002 25.91L3.37003 24.72L5.75002 23.53Z" fill="#7A593E" stroke="#4A3222" stroke-width="1.3" stroke-linejoin="round"/>
<path d="M59.13 24.72L56.75 25.91V39.71L59.13 38.52V24.72Z" fill="#4B3726" stroke="#4A3222" stroke-width="1.3" stroke-linejoin="round"/>
<path d="M54.37 24.72L56.75 25.91V39.71L54.37 38.52V24.72Z" fill="#5E4530" stroke="#4A3222" stroke-width="1.3" stroke-linejoin="round"/>
<path d="M56.75 23.53L59.13 24.72L56.75 25.91L54.37 24.72L56.75 23.53Z" fill="#7A593E" stroke="#4A3222" stroke-width="1.3" stroke-linejoin="round"/>
<path d="M33.63 37.47L31.25 38.66V52.46L33.63 51.27V37.47Z" fill="#4B3726" stroke="#4A3222" stroke-width="1.3" stroke-linejoin="round"/>
<path d="M28.87 37.47L31.25 38.66V52.46L28.87 51.27V37.47Z" fill="#5E4530" stroke="#4A3222" stroke-width="1.3" stroke-linejoin="round"/>
<path d="M31.25 36.28L33.63 37.47L31.25 38.66L28.87 37.47L31.25 36.28Z" fill="#7A593E" stroke="#4A3222" stroke-width="1.3" stroke-linejoin="round"/>
<path d="M61.85 21.12L31.25 36.42V40.02L61.85 24.72V21.12Z" fill="#566153" stroke="#4A3222" stroke-width="1.3" stroke-linejoin="round"/>
<path d="M0.650024 21.12L31.25 36.42V40.02L0.650024 24.72V21.12Z" fill="#6B7A68" stroke="#4A3222" stroke-width="1.3" stroke-linejoin="round"/>
<path d="M31.25 5.81995L61.85 21.1199L31.25 36.4199L0.650024 21.1199L31.25 5.81995Z" fill="#8B9D86" stroke="#4A3222" stroke-width="1.3" stroke-linejoin="round"/>
<path d="M34.99 15.95L31.25 17.82V36.42L34.99 34.55V15.95Z" fill="#566153" stroke="#4A3222" stroke-width="1.3" stroke-linejoin="round"/>
<path d="M0.650024 2.52002L31.25 17.82V36.42L0.650024 21.12V2.52002Z" fill="#6B7A68" stroke="#4A3222" stroke-width="1.3" stroke-linejoin="round"/>
<path d="M4.39002 0.650024L34.99 15.95L31.25 17.82L0.650024 2.52002L4.39002 0.650024Z" fill="#8B9D86" stroke="#4A3222" stroke-width="1.3" stroke-linejoin="round"/>
</svg>
