<svg width="67" height="53" viewBox="0 0 67 53" fill="none" xmlns="http://www.w3.org/2000/svg">
<path d="M65.59 25.26L18.67 48.72V50.4L65.59 26.94V25.26Z" fill="#533825" stroke="#4A3222" stroke-width="1.3" stroke-linejoin="round"/>
<path d="M0.650024 39.71L18.67 48.72V50.4L0.650024 41.39V39.71Z" fill="#68462E" stroke="#4A3222" stroke-width="1.3" stroke-linejoin="round"/>
<path d="M47.57 16.25L65.59 25.26L18.67 48.72L0.650024 39.71L47.57 16.25Z" fill="#865A3B" stroke="#4A3222" stroke-width="1.3" stroke-linejoin="round"/>
<path d="M49.95 2.23L47.57 3.42V22.62L49.95 21.43V2.23Z" fill="#432D1D" stroke="#4A3222" stroke-width="1.3" stroke-linejoin="round"/>
<path d="M45.19 2.23L47.57 3.42V22.62L45.19 21.43V2.23Z" fill="#533825" stroke="#4A3222" stroke-width="1.3" stroke-linejoin="round"/>
<path d="M47.57 1.03999L49.95 2.22999L47.57 3.41999L45.19 2.22999L47.57 1.03999Z" fill="#6C492F" stroke="#4A3222" stroke-width="1.3" stroke-linejoin="round"/>
<path d="M56.07 19.86L46.72 24.54V29.94L56.07 25.26V19.86Z" fill="#946043" stroke="#4A3222" stroke-width="1.3" stroke-linejoin="round"/>
<path d="M38.22 20.29L46.72 24.54V29.94L38.22 25.69V20.29Z" fill="#B87854" stroke="#4A3222" stroke-width="1.3" stroke-linejoin="round"/>
<path d="M47.57 15.61L56.07 19.86L46.72 24.54L38.22 20.29L47.57 15.61Z" fill="#EF9B6D" stroke="#4A3222" stroke-width="1.3" stroke-linejoin="round"/>
<path d="M64.57 9.53999L62.19 10.73V29.93L64.57 28.74V9.53999Z" fill="#432D1D" stroke="#4A3222" stroke-width="1.3" stroke-linejoin="round"/>
<path d="M59.81 9.53999L62.19 10.73V29.93L59.81 28.74V9.53999Z" fill="#533825" stroke="#4A3222" stroke-width="1.3" stroke-linejoin="round"/>
<path d="M62.19 8.34999L64.57 9.53999L62.19 10.73L59.81 9.53999L62.19 8.34999Z" fill="#6C492F" stroke="#4A3222" stroke-width="1.3" stroke-linejoin="round"/>
<path d="M6.43002 23.99L4.05002 25.18V44.38L6.43002 43.19V23.99Z" fill="#432D1D" stroke="#4A3222" stroke-width="1.3" stroke-linejoin="round"/>
<path d="M1.67001 23.99L4.05001 25.18V44.38L1.67001 43.19V23.99Z" fill="#533825" stroke="#4A3222" stroke-width="1.3" stroke-linejoin="round"/>
<path d="M4.05001 22.8L6.43002 23.99L4.05001 25.18L1.67001 23.99L4.05001 22.8Z" fill="#6C492F" stroke="#4A3222" stroke-width="1.3" stroke-linejoin="round"/>
<path d="M21.05 31.3L18.67 32.49V51.69L21.05 50.5V31.3Z" fill="#432D1D" stroke="#4A3222" stroke-width="1.3" stroke-linejoin="round"/>
<path d="M16.29 31.3L18.67 32.49V51.69L16.29 50.5V31.3Z" fill="#533825" stroke="#4A3222" stroke-width="1.3" stroke-linejoin="round"/>
<path d="M18.67 30.11L21.05 31.3L18.67 32.49L16.29 31.3L18.67 30.11Z" fill="#6C492F" stroke="#4A3222" stroke-width="1.3" stroke-linejoin="round"/>
<path d="M65.59 9.65999L18.67 33.12V34.8L65.59 11.34V9.65999Z" fill="#533825" stroke="#4A3222" stroke-width="1.3" stroke-linejoin="round"/>
<path d="M0.650024 24.11L18.67 33.12V34.8L0.650024 25.79V24.11Z" fill="#68462E" stroke="#4A3222" stroke-width="1.3" stroke-linejoin="round"/>
<path d="M47.57 0.649994L65.59 9.65999L18.67 33.12L0.650024 24.11L47.57 0.649994Z" fill="#865A3B" stroke="#4A3222" stroke-width="1.3" stroke-linejoin="round"/>
</svg>
