<svg width="67" height="53" viewBox="0 0 67 53" fill="none" xmlns="http://www.w3.org/2000/svg">
<path d="M65.59 37.71L47.57 46.72V48.4L65.59 39.39V37.71Z" fill="#533825" stroke="#4A3222" stroke-width="1.3" stroke-linejoin="round"/>
<path d="M0.650024 23.26L47.57 46.72V48.4L0.650024 24.94V23.26Z" fill="#68462E" stroke="#4A3222" stroke-width="1.3" stroke-linejoin="round"/>
<path d="M18.67 14.25L65.59 37.71L47.57 46.72L0.650024 23.26L18.67 14.25Z" fill="#865A3B" stroke="#4A3222" stroke-width="1.3" stroke-linejoin="round"/>
<path d="M21.05 2.23L18.67 3.42V22.62L21.05 21.43V2.23Z" fill="#432D1D" stroke="#4A3222" stroke-width="1.3" stroke-linejoin="round"/>
<path d="M16.29 2.23L18.67 3.42V22.62L16.29 21.43V2.23Z" fill="#533825" stroke="#4A3222" stroke-width="1.3" stroke-linejoin="round"/>
<path d="M18.67 1.03999L21.05 2.22999L18.67 3.41999L16.29 2.22999L18.67 1.03999Z" fill="#6C492F" stroke="#4A3222" stroke-width="1.3" stroke-linejoin="round"/>
<path d="M28.02 18.29L19.52 22.54V27.94L28.02 23.69V18.29Z" fill="#946043" stroke="#4A3222" stroke-width="1.3" stroke-linejoin="round"/>
<path d="M10.17 17.86L19.52 22.54V27.94L10.17 23.26V17.86Z" fill="#B87854" stroke="#4A3222" stroke-width="1.3" stroke-linejoin="round"/>
<path d="M18.67 13.61L28.02 18.29L19.52 22.54L10.17 17.86L18.67 13.61Z" fill="#EF9B6D" stroke="#4A3222" stroke-width="1.3" stroke-linejoin="round"/>
<path d="M6.43005 9.53999L4.05005 10.73V29.93L6.43005 28.74V9.53999Z" fill="#432D1D" stroke="#4A3222" stroke-width="1.3" stroke-linejoin="round"/>
<path d="M1.67004 9.53999L4.05004 10.73V29.93L1.67004 28.74V9.53999Z" fill="#533825" stroke="#4A3222" stroke-width="1.3" stroke-linejoin="round"/>
<path d="M4.05004 8.34999L6.43004 9.53999L4.05004 10.73L1.67004 9.53999L4.05004 8.34999Z" fill="#6C492F" stroke="#4A3222" stroke-width="1.3" stroke-linejoin="round"/>
<path d="M64.57 23.99L62.19 25.18V44.38L64.57 43.19V23.99Z" fill="#432D1D" stroke="#4A3222" stroke-width="1.3" stroke-linejoin="round"/>
<path d="M59.81 23.99L62.19 25.18V44.38L59.81 43.19V23.99Z" fill="#533825" stroke="#4A3222" stroke-width="1.3" stroke-linejoin="round"/>
<path d="M62.19 22.8L64.57 23.99L62.19 25.18L59.81 23.99L62.19 22.8Z" fill="#6C492F" stroke="#4A3222" stroke-width="1.3" stroke-linejoin="round"/>
<path d="M49.95 31.3L47.57 32.49V51.69L49.95 50.5V31.3Z" fill="#432D1D" stroke="#4A3222" stroke-width="1.3" stroke-linejoin="round"/>
<path d="M45.19 31.3L47.57 32.49V51.69L45.19 50.5V31.3Z" fill="#533825" stroke="#4A3222" stroke-width="1.3" stroke-linejoin="round"/>
<path d="M47.57 30.11L49.95 31.3L47.57 32.49L45.19 31.3L47.57 30.11Z" fill="#6C492F" stroke="#4A3222" stroke-width="1.3" stroke-linejoin="round"/>
<path d="M65.59 24.11L47.57 33.12V34.8L65.59 25.79V24.11Z" fill="#533825" stroke="#4A3222" stroke-width="1.3" stroke-linejoin="round"/>
<path d="M0.650024 9.65999L47.57 33.12V34.8L0.650024 11.34V9.65999Z" fill="#68462E" stroke="#4A3222" stroke-width="1.3" stroke-linejoin="round"/>
<path d="M18.67 0.649994L65.59 24.11L47.57 33.12L0.650024 9.65999L18.67 0.649994Z" fill="#865A3B" stroke="#4A3222" stroke-width="1.3" stroke-linejoin="round"/>
</svg>
