<svg width="67" height="53" viewBox="0 0 67 53" fill="none" xmlns="http://www.w3.org/2000/svg">
<path d="M65.59 25.26L18.67 48.72V50.4L65.59 26.94V25.26Z" fill="#533825" stroke="#4A3222" stroke-width="1.3" stroke-linejoin="round"/>
<path d="M0.649979 39.71L18.67 48.72V50.4L0.649979 41.39V39.71Z" fill="#68462E" stroke="#4A3222" stroke-width="1.3" stroke-linejoin="round"/>
<path d="M47.57 16.25L65.59 25.26L18.67 48.72L0.649979 39.71L47.57 16.25Z" fill="#865A3B" stroke="#4A3222" stroke-width="1.3" stroke-linejoin="round"/>
<path d="M49.95 2.23L47.57 3.42V22.62L49.95 21.43V2.23Z" fill="#432D1D" stroke="#4A3222" stroke-width="1.3" stroke-linejoin="round"/>
<path d="M45.19 2.23L47.57 3.42V22.62L45.19 21.43V2.23Z" fill="#533825" stroke="#4A3222" stroke-width="1.3" stroke-linejoin="round"/>
<path d="M47.57 1.03999L49.95 2.22999L47.57 3.41999L45.19 2.22999L47.57 1.03999Z" fill="#6C492F" stroke="#4A3222" stroke-width="1.3" stroke-linejoin="round"/>
<path d="M64.57 9.53999L62.19 10.73V29.93L64.57 28.74V9.53999Z" fill="#432D1D" stroke="#4A3222" stroke-width="1.3" stroke-linejoin="round"/>
<path d="M59.81 9.53999L62.19 10.73V29.93L59.81 28.74V9.53999Z" fill="#533825" stroke="#4A3222" stroke-width="1.3" stroke-linejoin="round"/>
<path d="M62.19 8.34999L64.57 9.53999L62.19 10.73L59.81 9.53999L62.19 8.34999Z" fill="#6C492F" stroke="#4A3222" stroke-width="1.3" stroke-linejoin="round"/>
<path d="M28.02 33.89L18.67 38.56V43.96L28.02 39.29V33.89Z" fill="#946043" stroke="#4A3222" stroke-width="1.3" stroke-linejoin="round"/>
<path d="M10.17 34.31L18.67 38.56V43.96L10.17 39.71V34.31Z" fill="#B87854" stroke="#4A3222" stroke-width="1.3" stroke-linejoin="round"/>
<path d="M19.52 29.64L28.02 33.89L18.67 38.56L10.17 34.31L19.52 29.64Z" fill="#EF9B6D" stroke="#4A3222" stroke-width="1.3" stroke-linejoin="round"/>
<path d="M6.42997 23.99L4.04997 25.18V44.38L6.42997 43.19V23.99Z" fill="#432D1D" stroke="#4A3222" stroke-width="1.3" stroke-linejoin="round"/>
<path d="M1.66998 23.99L4.04998 25.18V44.38L1.66998 43.19V23.99Z" fill="#533825" stroke="#4A3222" stroke-width="1.3" stroke-linejoin="round"/>
<path d="M4.04998 22.8L6.42999 23.99L4.04998 25.18L1.66998 23.99L4.04998 22.8Z" fill="#6C492F" stroke="#4A3222" stroke-width="1.3" stroke-linejoin="round"/>
<path d="M21.05 31.3L18.67 32.49V51.69L21.05 50.5V31.3Z" fill="#432D1D" stroke="#4A3222" stroke-width="1.3" stroke-linejoin="round"/>
<path d="M16.29 31.3L18.67 32.49V51.69L16.29 50.5V31.3Z" fill="#533825" stroke="#4A3222" stroke-width="1.3" stroke-linejoin="round"/>
<path d="M18.67 30.11L21.05 31.3L18.67 32.49L16.29 31.3L18.67 30.11Z" fill="#6C492F" stroke="#4A3222" stroke-width="1.3" stroke-linejoin="round"/>
<path d="M65.59 9.65999L18.67 33.12V34.8L65.59 11.34V9.65999Z" fill="#533825" stroke="#4A3222" stroke-width="1.3" stroke-linejoin="round"/>
<path d="M0.649979 24.11L18.67 33.12V34.8L0.649979 25.79V24.11Z" fill="#68462E" stroke="#4A3222" stroke-width="1.3" stroke-linejoin="round"/>
<path d="M47.57 0.649994L65.59 9.65999L18.67 33.12L0.649979 24.11L47.57 0.649994Z" fill="#865A3B" stroke="#4A3222" stroke-width="1.3" stroke-linejoin="round"/>
</svg>
