<svg xmlns="http://www.w3.org/2000/svg" viewBox="-50.92 -23.59 72.94 59.04" width="72.94" height="59.04">
<rect id="bounds" x="-50.92" y="-23.59" width="72.94" height="59.04" fill="none" stroke="none"></rect>
<polygon points="18.02,5.02 -28.9,28.48 -28.9,30.16 18.02,6.7" fill="#533825" stroke="#4a3222" stroke-width="1.3" stroke-linejoin="round"></polygon>
<polygon points="-46.92,19.47 -28.9,28.48 -28.9,30.16 -46.92,21.15" fill="#68462e" stroke="#4a3222" stroke-width="1.3" stroke-linejoin="round"></polygon>
<polygon points="0,-3.99 18.02,5.02 -28.9,28.48 -46.92,19.47" fill="#865a3b" stroke="#4a3222" stroke-width="1.3" stroke-linejoin="round"></polygon>
<polygon points="18.02,-10.58 -28.9,12.88 -28.9,14.56 18.02,-8.9" fill="#533825" stroke="#4a3222" stroke-width="1.3" stroke-linejoin="round"></polygon>
<polygon points="-46.92,3.87 -28.9,12.88 -28.9,14.56 -46.92,5.55" fill="#68462e" stroke="#4a3222" stroke-width="1.3" stroke-linejoin="round"></polygon>
<polygon points="0,-19.59 18.02,-10.58 -28.9,12.88 -46.92,3.87" fill="#865a3b" stroke="#4a3222" stroke-width="1.3" stroke-linejoin="round"></polygon>
<polygon points="2.38,-18.01 0,-16.82 0,2.38 2.38,1.19" fill="#432d1d" stroke="#4a3222" stroke-width="1.3" stroke-linejoin="round"></polygon>
<polygon points="-2.38,-18.01 0,-16.82 0,2.38 -2.38,1.19" fill="#533825" stroke="#4a3222" stroke-width="1.3" stroke-linejoin="round"></polygon>
<polygon points="0,-19.2 2.38,-18.01 0,-16.82 -2.38,-18.01" fill="#6c492f" stroke="#4a3222" stroke-width="1.3" stroke-linejoin="round"></polygon>
<polygon points="17,-10.7 14.62,-9.51 14.62,9.69 17,8.5" fill="#432d1d" stroke="#4a3222" stroke-width="1.3" stroke-linejoin="round"></polygon>
<polygon points="12.24,-10.7 14.62,-9.51 14.62,9.69 12.24,8.5" fill="#533825" stroke="#4a3222" stroke-width="1.3" stroke-linejoin="round"></polygon>
<polygon points="14.62,-11.89 17,-10.7 14.62,-9.51 12.24,-10.7" fill="#6c492f" stroke="#4a3222" stroke-width="1.3" stroke-linejoin="round"></polygon>
<polygon points="-19.55,13.65 -28.9,18.32 -28.9,23.72 -19.55,19.05" fill="#946043" stroke="#4a3222" stroke-width="1.3" stroke-linejoin="round"></polygon>
<polygon points="-37.4,14.07 -28.9,18.32 -28.9,23.72 -37.4,19.47" fill="#b87854" stroke="#4a3222" stroke-width="1.3" stroke-linejoin="round"></polygon>
<polygon points="-28.05,9.4 -19.55,13.65 -28.9,18.32 -37.4,14.07" fill="#ef9b6d" stroke="#4a3222" stroke-width="1.3" stroke-linejoin="round"></polygon>
<polygon points="-41.14,3.75 -43.52,4.94 -43.52,24.14 -41.14,22.95" fill="#432d1d" stroke="#4a3222" stroke-width="1.3" stroke-linejoin="round"></polygon>
<polygon points="-45.9,3.75 -43.52,4.94 -43.52,24.14 -45.9,22.95" fill="#533825" stroke="#4a3222" stroke-width="1.3" stroke-linejoin="round"></polygon>
<polygon points="-43.52,2.56 -41.14,3.75 -43.52,4.94 -45.9,3.75" fill="#6c492f" stroke="#4a3222" stroke-width="1.3" stroke-linejoin="round"></polygon>
<polygon points="-26.52,11.06 -28.9,12.25 -28.9,31.45 -26.52,30.26" fill="#432d1d" stroke="#4a3222" stroke-width="1.3" stroke-linejoin="round"></polygon>
<polygon points="-31.28,11.06 -28.9,12.25 -28.9,31.45 -31.28,30.26" fill="#533825" stroke="#4a3222" stroke-width="1.3" stroke-linejoin="round"></polygon>
<polygon points="-28.9,9.87 -26.52,11.06 -28.9,12.25 -31.28,11.06" fill="#6c492f" stroke="#4a3222" stroke-width="1.3" stroke-linejoin="round"></polygon>
</svg>