<svg xmlns="http://www.w3.org/2000/svg" viewBox="-31.2 -26.45 62.4 53.91" width="62.4" height="53.91">
<rect id="bounds" x="-31.2" y="-26.45" width="62.4" height="53.91" fill="none" stroke="none"></rect>
<polygon points="27.2,-8.85 0,4.75 0,7.39 27.2,-6.21" fill="#734f33" stroke="#4a3222" stroke-width="1.3" stroke-linejoin="round"></polygon>
<polygon points="-27.2,-8.85 0,4.75 0,7.39 -27.2,-6.21" fill="#906340" stroke="#4a3222" stroke-width="1.3" stroke-linejoin="round"></polygon>
<polygon points="0,-22.45 27.2,-8.85 0,4.75 -27.2,-8.85" fill="#ba8053" stroke="#4a3222" stroke-width="1.3" stroke-linejoin="round"></polygon>
<polygon points="2.72,-15.56 0,-14.2 0,4.76 2.72,3.4" fill="#533925" stroke="#4a3222" stroke-width="1.3" stroke-linejoin="round"></polygon>
<polygon points="-2.72,-15.56 0,-14.2 0,4.76 -2.72,3.4" fill="#68472e" stroke="#4a3222" stroke-width="1.3" stroke-linejoin="round"></polygon>
<polygon points="0,-16.92 2.72,-15.56 0,-14.2 -2.72,-15.56" fill="#865c3b" stroke="#4a3222" stroke-width="1.3" stroke-linejoin="round"></polygon>
<polygon points="21.42,-6.21 18.7,-4.85 18.7,14.11 21.42,12.75" fill="#533925" stroke="#4a3222" stroke-width="1.3" stroke-linejoin="round"></polygon>
<polygon points="15.98,-6.21 18.7,-4.85 18.7,14.11 15.98,12.75" fill="#68472e" stroke="#4a3222" stroke-width="1.3" stroke-linejoin="round"></polygon>
<polygon points="18.7,-7.57 21.42,-6.21 18.7,-4.85 15.98,-6.21" fill="#865c3b" stroke="#4a3222" stroke-width="1.3" stroke-linejoin="round"></polygon>
<polygon points="-15.98,-6.21 -18.7,-4.85 -18.7,14.11 -15.98,12.75" fill="#533925" stroke="#4a3222" stroke-width="1.3" stroke-linejoin="round"></polygon>
<polygon points="-21.42,-6.21 -18.7,-4.85 -18.7,14.11 -21.42,12.75" fill="#68472e" stroke="#4a3222" stroke-width="1.3" stroke-linejoin="round"></polygon>
<polygon points="-18.7,-7.57 -15.98,-6.21 -18.7,-4.85 -21.42,-6.21" fill="#865c3b" stroke="#4a3222" stroke-width="1.3" stroke-linejoin="round"></polygon>
<polygon points="2.72,3.14 0,4.5 0,23.46 2.72,22.1" fill="#533925" stroke="#4a3222" stroke-width="1.3" stroke-linejoin="round"></polygon>
<polygon points="-2.72,3.14 0,4.5 0,23.46 -2.72,22.1" fill="#68472e" stroke="#4a3222" stroke-width="1.3" stroke-linejoin="round"></polygon>
<polygon points="0,1.78 2.72,3.14 0,4.5 -2.72,3.14" fill="#865c3b" stroke="#4a3222" stroke-width="1.3" stroke-linejoin="round"></polygon>
</svg>