<svg width="148" height="104" viewBox="0 0 148 104" fill="none" xmlns="http://www.w3.org/2000/svg">
<path d="M95.85 5.75L10.85 48.25V77.05L95.85 34.55V5.75Z" fill="#847353" stroke="#4A3222" stroke-width="1.3" stroke-linejoin="round"/>
<path d="M0.650024 43.15L10.85 48.25V77.05L0.650024 71.95V43.15Z" fill="#AA9B7E" stroke="#4A3222" stroke-width="1.3" stroke-linejoin="round"/>
<path d="M85.65 0.650024L95.85 5.75002L10.85 48.25L0.650024 43.15L85.65 0.650024Z" fill="#C4B8A1" stroke="#4A3222" stroke-width="1.3" stroke-linejoin="round"/>
<path d="M146.65 38.95L137.3 43.62V64.62L146.65 59.95V38.95Z" fill="#847353" stroke="#4A3222" stroke-width="1.3" stroke-linejoin="round"/>
<path d="M86.3 18.13L137.3 43.62V64.62L86.3 39.13V18.13Z" fill="#AA9B7E" stroke="#4A3222" stroke-width="1.3" stroke-linejoin="round"/>
<path d="M95.65 13.45L146.65 38.95L137.3 43.62L86.3 18.13L95.65 13.45Z" fill="#C4B8A1" stroke="#4A3222" stroke-width="1.3" stroke-linejoin="round"/>
<path d="M133.9 52.12L67.6 85.28V96.08L133.9 62.93V52.12Z" fill="#847353" stroke="#4A3222" stroke-width="1.3" stroke-linejoin="round"/>
<path d="M29.35 66.15L67.6 85.28V96.08L29.35 76.95V66.15Z" fill="#85A25E" stroke="#4A3222" stroke-width="1.3" stroke-linejoin="round"/>
<path d="M95.65 33L133.9 52.12L67.6 85.28L29.35 66.15L95.65 33Z" fill="#C4B8A1" stroke="#4A3222" stroke-width="1.3" stroke-linejoin="round"/>
<path d="M131.35 45.1L100.41 60.57V67.17L131.35 51.7V45.1Z" fill="#847353" stroke="#4A3222" stroke-width="1.3" stroke-linejoin="round"/>
<path d="M64.71 42.72L100.41 60.57V67.17L64.71 49.32V42.72Z" fill="#97B96A" stroke="#4A3222" stroke-width="1.3" stroke-linejoin="round"/>
<path d="M95.65 27.25L131.35 45.1L100.41 60.57L64.71 42.72L95.65 27.25Z" fill="#C4B8A1" stroke="#4A3222" stroke-width="1.3" stroke-linejoin="round"/>
<path d="M99.05 61.25L68.11 76.72V83.32L99.05 67.85V61.25Z" fill="#847353" stroke="#4A3222" stroke-width="1.3" stroke-linejoin="round"/>
<path d="M32.41 58.87L68.11 76.72V83.32L32.41 65.47V58.87Z" fill="#97B96A" stroke="#4A3222" stroke-width="1.3" stroke-linejoin="round"/>
<path d="M63.35 43.4L99.05 61.25L68.11 76.72L32.41 58.87L63.35 43.4Z" fill="#C4B8A1" stroke="#4A3222" stroke-width="1.3" stroke-linejoin="round"/>
<path d="M71 76.78L61.65 81.45V102.45L71 97.78V76.78Z" fill="#847353" stroke="#4A3222" stroke-width="1.3" stroke-linejoin="round"/>
<path d="M10.65 55.95L61.65 81.45V102.45L10.65 76.95V55.95Z" fill="#AA9B7E" stroke="#4A3222" stroke-width="1.3" stroke-linejoin="round"/>
<path d="M20 51.28L71 76.78L61.65 81.45L10.65 55.95L20 51.28Z" fill="#C4B8A1" stroke="#4A3222" stroke-width="1.3" stroke-linejoin="round"/>
</svg>
