<svg xmlns="http://www.w3.org/2000/svg" viewBox="-55 -32.8 144 104.8" width="144" height="104.8">
<rect id="bounds" x="-55" y="-32.8" width="144" height="104.8" fill="none" stroke="none"></rect>
<polygon points="85,13.7 74.8,18.8 74.8,47.6 85,42.5" fill="#6a824b" stroke="#4a3222" stroke-width="1.3" stroke-linejoin="round"></polygon>
<polygon points="-10.2,-23.7 74.8,18.8 74.8,47.6 -10.2,5.1" fill="#85a25e" stroke="#4a3222" stroke-width="1.3" stroke-linejoin="round"></polygon>
<polygon points="0,-28.8 85,13.7 74.8,18.8 -10.2,-23.7" fill="#acd279" stroke="#4a3222" stroke-width="1.3" stroke-linejoin="round"></polygon>
<polygon points="9.35,-16.32 -41.65,9.17 -41.65,30.17 9.35,4.68" fill="#6a824b" stroke="#4a3222" stroke-width="1.3" stroke-linejoin="round"></polygon>
<polygon points="-51,4.5 -41.65,9.17 -41.65,30.17 -51,25.5" fill="#85a25e" stroke="#4a3222" stroke-width="1.3" stroke-linejoin="round"></polygon>
<polygon points="0,-21 9.35,-16.32 -41.65,9.17 -51,4.5" fill="#acd279" stroke="#4a3222" stroke-width="1.3" stroke-linejoin="round"></polygon>
<polygon points="66.3,31.7 28.05,50.83 28.05,61.63 66.3,42.5" fill="#6a824b" stroke="#4a3222" stroke-width="1.3" stroke-linejoin="round"></polygon>
<polygon points="-38.25,17.67 28.05,50.83 28.05,61.63 -38.25,28.48" fill="#85a25e" stroke="#4a3222" stroke-width="1.3" stroke-linejoin="round"></polygon>
<polygon points="0,-1.45 66.3,31.7 28.05,50.83 -38.25,17.67" fill="#acd279" stroke="#4a3222" stroke-width="1.3" stroke-linejoin="round"></polygon>
<polygon points="30.94,8.27 -4.76,26.12 -4.76,32.72 30.94,14.87" fill="#799455" stroke="#4a3222" stroke-width="1.3" stroke-linejoin="round"></polygon>
<polygon points="-35.7,10.65 -4.76,26.12 -4.76,32.72 -35.7,17.25" fill="#97b96a" stroke="#4a3222" stroke-width="1.3" stroke-linejoin="round"></polygon>
<polygon points="0,-7.2 30.94,8.27 -4.76,26.12 -35.7,10.65" fill="#c4f08a" stroke="#4a3222" stroke-width="1.3" stroke-linejoin="round"></polygon>
<polygon points="63.24,24.42 27.54,42.27 27.54,48.87 63.24,31.02" fill="#799455" stroke="#4a3222" stroke-width="1.3" stroke-linejoin="round"></polygon>
<polygon points="-3.4,26.8 27.54,42.27 27.54,48.87 -3.4,33.4" fill="#97b96a" stroke="#4a3222" stroke-width="1.3" stroke-linejoin="round"></polygon>
<polygon points="32.3,8.95 63.24,24.42 27.54,42.27 -3.4,26.8" fill="#c4f08a" stroke="#4a3222" stroke-width="1.3" stroke-linejoin="round"></polygon>
<polygon points="85,21.5 34,47 34,68 85,42.5" fill="#6a824b" stroke="#4a3222" stroke-width="1.3" stroke-linejoin="round"></polygon>
<polygon points="24.65,42.33 34,47 34,68 24.65,63.33" fill="#85a25e" stroke="#4a3222" stroke-width="1.3" stroke-linejoin="round"></polygon>
<polygon points="75.65,16.83 85,21.5 34,47 24.65,42.33" fill="#acd279" stroke="#4a3222" stroke-width="1.3" stroke-linejoin="round"></polygon>
</svg>