<svg xmlns="http://www.w3.org/2000/svg" viewBox="-89 -25 144 97" width="144" height="97">
<rect id="bounds" x="-89" y="-25" width="144" height="97" fill="none" stroke="none"></rect>
<polygon points="51,4.5 41.65,9.17 41.65,30.17 51,25.5" fill="#6a824b" stroke="#4a3222" stroke-width="1.3" stroke-linejoin="round"></polygon>
<polygon points="-9.35,-16.33 41.65,9.17 41.65,30.17 -9.35,4.67" fill="#85a25e" stroke="#4a3222" stroke-width="1.3" stroke-linejoin="round"></polygon>
<polygon points="0,-21 51,4.5 41.65,9.17 -9.35,-16.33" fill="#acd279" stroke="#4a3222" stroke-width="1.3" stroke-linejoin="round"></polygon>
<polygon points="32.3,14.7 -34,47.85 -34,58.65 32.3,25.5" fill="#6a824b" stroke="#4a3222" stroke-width="1.3" stroke-linejoin="round"></polygon>
<polygon points="-72.25,28.73 -34,47.85 -34,58.65 -72.25,39.53" fill="#85a25e" stroke="#4a3222" stroke-width="1.3" stroke-linejoin="round"></polygon>
<polygon points="-5.95,-4.43 32.3,14.7 -34,47.85 -72.25,28.73" fill="#acd279" stroke="#4a3222" stroke-width="1.3" stroke-linejoin="round"></polygon>
<polygon points="29.24,8.78 -1.7,24.25 -1.7,30.85 29.24,15.38" fill="#799455" stroke="#4a3222" stroke-width="1.3" stroke-linejoin="round"></polygon>
<polygon points="-37.4,6.4 -1.7,24.25 -1.7,30.85 -37.4,13" fill="#97b96a" stroke="#4a3222" stroke-width="1.3" stroke-linejoin="round"></polygon>
<polygon points="-6.46,-9.07 29.24,8.78 -1.7,24.25 -37.4,6.4" fill="#c4f08a" stroke="#4a3222" stroke-width="1.3" stroke-linejoin="round"></polygon>
<polygon points="51,-3.3 -34,39.2 -34,68 51,25.5" fill="#6a824b" stroke="#4a3222" stroke-width="1.3" stroke-linejoin="round"></polygon>
<polygon points="-44.2,34.1 -34,39.2 -34,68 -44.2,62.9" fill="#85a25e" stroke="#4a3222" stroke-width="1.3" stroke-linejoin="round"></polygon>
<polygon points="40.8,-8.4 51,-3.3 -34,39.2 -44.2,34.1" fill="#acd279" stroke="#4a3222" stroke-width="1.3" stroke-linejoin="round"></polygon>
<polygon points="-3.06,24.93 -34,40.4 -34,47 -3.06,31.53" fill="#799455" stroke="#4a3222" stroke-width="1.3" stroke-linejoin="round"></polygon>
<polygon points="-69.7,22.55 -34,40.4 -34,47 -69.7,29.15" fill="#97b96a" stroke="#4a3222" stroke-width="1.3" stroke-linejoin="round"></polygon>
<polygon points="-38.76,7.08 -3.06,24.93 -34,40.4 -69.7,22.55" fill="#c4f08a" stroke="#4a3222" stroke-width="1.3" stroke-linejoin="round"></polygon>
<polygon points="-24.65,42.33 -34,47 -34,68 -24.65,63.33" fill="#6a824b" stroke="#4a3222" stroke-width="1.3" stroke-linejoin="round"></polygon>
<polygon points="-85,21.5 -34,47 -34,68 -85,42.5" fill="#85a25e" stroke="#4a3222" stroke-width="1.3" stroke-linejoin="round"></polygon>
<polygon points="-75.65,16.83 -24.65,42.33 -34,47 -85,21.5" fill="#acd279" stroke="#4a3222" stroke-width="1.3" stroke-linejoin="round"></polygon>
</svg>