<svg width="148" height="104" viewBox="0 0 148 104" fill="none" xmlns="http://www.w3.org/2000/svg">
<path d="M146.65 43.15L136.45 48.25V77.05L146.65 71.95V43.15Z" fill="#847353" stroke="#4A3222" stroke-width="1.3" stroke-linejoin="round"/>
<path d="M51.45 5.75L136.45 48.25V77.05L51.45 34.55V5.75Z" fill="#AA9B7E" stroke="#4A3222" stroke-width="1.3" stroke-linejoin="round"/>
<path d="M61.65 0.650024L146.65 43.15L136.45 48.25L51.45 5.75002L61.65 0.650024Z" fill="#C4B8A1" stroke="#4A3222" stroke-width="1.3" stroke-linejoin="round"/>
<path d="M61 18.13L10 43.62V64.62L61 39.13V18.13Z" fill="#847353" stroke="#4A3222" stroke-width="1.3" stroke-linejoin="round"/>
<path d="M0.650024 38.95L10 43.62V64.62L0.650024 59.95V38.95Z" fill="#AA9B7E" stroke="#4A3222" stroke-width="1.3" stroke-linejoin="round"/>
<path d="M51.65 13.45L61 18.13L10 43.62L0.650024 38.95L51.65 13.45Z" fill="#C4B8A1" stroke="#4A3222" stroke-width="1.3" stroke-linejoin="round"/>
<path d="M117.95 66.15L79.7 85.28V96.08L117.95 76.95V66.15Z" fill="#6A824B" stroke="#4A3222" stroke-width="1.3" stroke-linejoin="round"/>
<path d="M13.4 52.12L79.7 85.28V96.08L13.4 62.93V52.12Z" fill="#AA9B7E" stroke="#4A3222" stroke-width="1.3" stroke-linejoin="round"/>
<path d="M51.65 33L117.95 66.15L79.7 85.28L13.4 52.12L51.65 33Z" fill="#C4B8A1" stroke="#4A3222" stroke-width="1.3" stroke-linejoin="round"/>
<path d="M82.59 42.72L46.89 60.57V67.17L82.59 49.32V42.72Z" fill="#799455" stroke="#4A3222" stroke-width="1.3" stroke-linejoin="round"/>
<path d="M15.95 45.1L46.89 60.57V67.17L15.95 51.7V45.1Z" fill="#AA9B7E" stroke="#4A3222" stroke-width="1.3" stroke-linejoin="round"/>
<path d="M51.65 27.25L82.59 42.72L46.89 60.57L15.95 45.1L51.65 27.25Z" fill="#C4B8A1" stroke="#4A3222" stroke-width="1.3" stroke-linejoin="round"/>
<path d="M114.89 58.87L79.19 76.72V83.32L114.89 65.47V58.87Z" fill="#799455" stroke="#4A3222" stroke-width="1.3" stroke-linejoin="round"/>
<path d="M48.25 61.25L79.19 76.72V83.32L48.25 67.85V61.25Z" fill="#AA9B7E" stroke="#4A3222" stroke-width="1.3" stroke-linejoin="round"/>
<path d="M83.95 43.4L114.89 58.87L79.19 76.72L48.25 61.25L83.95 43.4Z" fill="#C4B8A1" stroke="#4A3222" stroke-width="1.3" stroke-linejoin="round"/>
<path d="M136.65 55.95L85.65 81.45V102.45L136.65 76.95V55.95Z" fill="#847353" stroke="#4A3222" stroke-width="1.3" stroke-linejoin="round"/>
<path d="M76.3 76.78L85.65 81.45V102.45L76.3 97.78V76.78Z" fill="#AA9B7E" stroke="#4A3222" stroke-width="1.3" stroke-linejoin="round"/>
<path d="M127.3 51.28L136.65 55.95L85.65 81.45L76.3 76.78L127.3 51.28Z" fill="#C4B8A1" stroke="#4A3222" stroke-width="1.3" stroke-linejoin="round"/>
</svg>
