<svg width="138" height="91" viewBox="0 0 138 91" fill="none" xmlns="http://www.w3.org/2000/svg">
<path d="M136.65 26.15L127.3 30.82V51.82L136.65 47.15V26.15Z" fill="#6A824B" stroke="#4A3222" stroke-width="1.3" stroke-linejoin="round"/>
<path d="M76.3 5.32001L127.3 30.82V51.82L76.3 26.32V5.32001Z" fill="#AA9B7E" stroke="#4A3222" stroke-width="1.3" stroke-linejoin="round"/>
<path d="M85.65 0.650024L136.65 26.15L127.3 30.82L76.3 5.32002L85.65 0.650024Z" fill="#C4B8A1" stroke="#4A3222" stroke-width="1.3" stroke-linejoin="round"/>
<path d="M117.95 36.35L51.65 69.5V80.3L117.95 47.15V36.35Z" fill="#6A824B" stroke="#4A3222" stroke-width="1.3" stroke-linejoin="round"/>
<path d="M13.4 50.38L51.65 69.5V80.3L13.4 61.18V50.38Z" fill="#85A25E" stroke="#4A3222" stroke-width="1.3" stroke-linejoin="round"/>
<path d="M79.7 17.22L117.95 36.35L51.65 69.5L13.4 50.38L79.7 17.22Z" fill="#ACD279" stroke="#4A3222" stroke-width="1.3" stroke-linejoin="round"/>
<path d="M114.89 30.4301L83.95 45.9001V52.5001L114.89 37.0301V30.4301Z" fill="#799455" stroke="#4A3222" stroke-width="1.3" stroke-linejoin="round"/>
<path d="M48.25 28.05L83.95 45.9V52.5L48.25 34.65V28.05Z" fill="#97B96A" stroke="#4A3222" stroke-width="1.3" stroke-linejoin="round"/>
<path d="M79.19 12.58L114.89 30.43L83.95 45.9L48.25 28.05L79.19 12.58Z" fill="#C4B8A1" stroke="#4A3222" stroke-width="1.3" stroke-linejoin="round"/>
<path d="M41.45 55.75L51.65 60.85V89.65L41.45 84.55V55.75Z" fill="#85A25E" stroke="#4A3222" stroke-width="1.3" stroke-linejoin="round"/>
<path d="M82.59 46.58L51.65 62.05V68.65L82.59 53.18V46.58Z" fill="#799455" stroke="#4A3222" stroke-width="1.3" stroke-linejoin="round"/>
<path d="M15.95 44.2L51.65 62.05V68.65L15.95 50.8V44.2Z" fill="#97B96A" stroke="#4A3222" stroke-width="1.3" stroke-linejoin="round"/>
<path d="M46.89 28.73L82.59 46.58L51.65 62.05L15.95 44.2L46.89 28.73Z" fill="#C4B8A1" stroke="#4A3222" stroke-width="1.3" stroke-linejoin="round"/>
<path d="M61 63.98L51.65 68.65V89.65L61 84.98V63.98Z" fill="#6A824B" stroke="#4A3222" stroke-width="1.3" stroke-linejoin="round"/>
<path d="M0.649994 43.15L51.65 68.65V89.65L0.649994 64.15V43.15Z" fill="#AA9B7E" stroke="#4A3222" stroke-width="1.3" stroke-linejoin="round"/>
<path d="M9.99999 38.48L61 63.98L51.65 68.65L0.649994 43.15L9.99999 38.48Z" fill="#C4B8A1" stroke="#4A3222" stroke-width="1.3" stroke-linejoin="round"/>
<path d="M136.65 18.35L51.65 60.85V89.65L136.65 47.15V18.35Z" fill="#847353" stroke="#4A3222" stroke-width="1.3" stroke-linejoin="round"/>
<path d="M126.45 13.25L136.65 18.35L51.65 60.85L41.45 55.75L126.45 13.25Z" fill="#C4B8A1" stroke="#4A3222" stroke-width="1.3" stroke-linejoin="round"/>
<path d="M41.65 84.701V57.319C41.65 56.9473 42.0412 56.7056 42.3736 56.8718L51.3736 61.3718C51.543 61.4565 51.65 61.6296 51.65 61.819V89.201C51.65 89.5727 51.2588 89.8144 50.9264 89.6482L41.9264 85.1482C41.757 85.0635 41.65 84.8904 41.65 84.701Z" fill="#AA9B7E" stroke="#4A3222" stroke-width="1.3"/>
</svg>
