<svg xmlns="http://www.w3.org/2000/svg" viewBox="-30.52 -64.39 86.54 106.64" width="86.54" height="106.64">
<rect id="bounds" x="-30.52" y="-64.39" width="86.54" height="106.64" fill="none" stroke="none"></rect>
<polygon points="52.02,22.02 25.5,35.28 25.5,36.96 52.02,23.7" fill="#4b3726" stroke="#4a3222" stroke-width="1.3" stroke-linejoin="round"></polygon>
<polygon points="-26.52,9.27 25.5,35.28 25.5,36.96 -26.52,10.95" fill="#5e4530" stroke="#4a3222" stroke-width="1.3" stroke-linejoin="round"></polygon>
<polygon points="0,-3.99 52.02,22.02 25.5,35.28 -26.52,9.27" fill="#7a593e" stroke="#4a3222" stroke-width="1.3" stroke-linejoin="round"></polygon>
<polygon points="52.02,3.22 25.5,16.48 25.5,18.16 52.02,4.9" fill="#4b3726" stroke="#4a3222" stroke-width="1.3" stroke-linejoin="round"></polygon>
<polygon points="-26.52,-9.53 25.5,16.48 25.5,18.16 -26.52,-7.85" fill="#5e4530" stroke="#4a3222" stroke-width="1.3" stroke-linejoin="round"></polygon>
<polygon points="0,-22.79 52.02,3.22 25.5,16.48 -26.52,-9.53" fill="#7a593e" stroke="#4a3222" stroke-width="1.3" stroke-linejoin="round"></polygon>
<polygon points="52.02,-15.58 25.5,-2.32 25.5,-0.64 52.02,-13.9" fill="#4b3726" stroke="#4a3222" stroke-width="1.3" stroke-linejoin="round"></polygon>
<polygon points="-26.52,-28.33 25.5,-2.32 25.5,-0.64 -26.52,-26.65" fill="#5e4530" stroke="#4a3222" stroke-width="1.3" stroke-linejoin="round"></polygon>
<polygon points="0,-41.59 52.02,-15.58 25.5,-2.32 -26.52,-28.33" fill="#7a593e" stroke="#4a3222" stroke-width="1.3" stroke-linejoin="round"></polygon>
<polygon points="52.02,-34.38 25.5,-21.12 25.5,-19.44 52.02,-32.7" fill="#4b3726" stroke="#4a3222" stroke-width="1.3" stroke-linejoin="round"></polygon>
<polygon points="-26.52,-47.13 25.5,-21.12 25.5,-19.44 -26.52,-45.45" fill="#5e4530" stroke="#4a3222" stroke-width="1.3" stroke-linejoin="round"></polygon>
<polygon points="0,-60.39 52.02,-34.38 25.5,-21.12 -26.52,-47.13" fill="#7a593e" stroke="#4a3222" stroke-width="1.3" stroke-linejoin="round"></polygon>
<polygon points="2.38,-58.81 0,-57.62 0,2.38 2.38,1.19" fill="#3d2c1f" stroke="#4a3222" stroke-width="1.3" stroke-linejoin="round"></polygon>
<polygon points="-2.38,-58.81 0,-57.62 0,2.38 -2.38,1.19" fill="#4c3726" stroke="#4a3222" stroke-width="1.3" stroke-linejoin="round"></polygon>
<polygon points="0,-60 2.38,-58.81 0,-57.62 -2.38,-58.81" fill="#624832" stroke="#4a3222" stroke-width="1.3" stroke-linejoin="round"></polygon>
<polygon points="23.8,-30.33 6.8,-21.83 6.8,-16.43 23.8,-24.93" fill="#9e8548" stroke="#4a3222" stroke-width="1.3" stroke-linejoin="round"></polygon>
<polygon points="-2.55,-26.51 6.8,-21.83 6.8,-16.43 -2.55,-21.1" fill="#c6a75a" stroke="#4a3222" stroke-width="1.3" stroke-linejoin="round"></polygon>
<polygon points="14.45,-35.01 23.8,-30.33 6.8,-21.83 -2.55,-26.51" fill="#ffd875" stroke="#4a3222" stroke-width="1.3" stroke-linejoin="round"></polygon>
<polygon points="-20.74,-47.25 -23.12,-46.06 -23.12,13.94 -20.74,12.75" fill="#3d2c1f" stroke="#4a3222" stroke-width="1.3" stroke-linejoin="round"></polygon>
<polygon points="-25.5,-47.25 -23.12,-46.06 -23.12,13.94 -25.5,12.75" fill="#4c3726" stroke="#4a3222" stroke-width="1.3" stroke-linejoin="round"></polygon>
<polygon points="-23.12,-48.44 -20.74,-47.25 -23.12,-46.06 -25.5,-47.25" fill="#624832" stroke="#4a3222" stroke-width="1.3" stroke-linejoin="round"></polygon>
<polygon points="33.15,-6.85 16.15,1.65 16.15,7.05 33.15,-1.45" fill="#6a824b" stroke="#4a3222" stroke-width="1.3" stroke-linejoin="round"></polygon>
<polygon points="6.8,-3.03 16.15,1.65 16.15,7.05 6.8,2.37" fill="#85a25e" stroke="#4a3222" stroke-width="1.3" stroke-linejoin="round"></polygon>
<polygon points="23.8,-11.53 33.15,-6.85 16.15,1.65 6.8,-3.03" fill="#acd279" stroke="#4a3222" stroke-width="1.3" stroke-linejoin="round"></polygon>
<polygon points="42.5,16.62 25.5,25.12 25.5,30.52 42.5,22.02" fill="#946043" stroke="#4a3222" stroke-width="1.3" stroke-linejoin="round"></polygon>
<polygon points="16.15,20.45 25.5,25.12 25.5,30.52 16.15,25.85" fill="#b87854" stroke="#4a3222" stroke-width="1.3" stroke-linejoin="round"></polygon>
<polygon points="33.15,11.95 42.5,16.62 25.5,25.12 16.15,20.45" fill="#ef9b6d" stroke="#4a3222" stroke-width="1.3" stroke-linejoin="round"></polygon>
<polygon points="51,-34.5 48.62,-33.31 48.62,26.69 51,25.5" fill="#3d2c1f" stroke="#4a3222" stroke-width="1.3" stroke-linejoin="round"></polygon>
<polygon points="46.24,-34.5 48.62,-33.31 48.62,26.69 46.24,25.5" fill="#4c3726" stroke="#4a3222" stroke-width="1.3" stroke-linejoin="round"></polygon>
<polygon points="48.62,-35.69 51,-34.5 48.62,-33.31 46.24,-34.5" fill="#624832" stroke="#4a3222" stroke-width="1.3" stroke-linejoin="round"></polygon>
<polygon points="27.88,-22.94 25.5,-21.75 25.5,38.25 27.88,37.06" fill="#3d2c1f" stroke="#4a3222" stroke-width="1.3" stroke-linejoin="round"></polygon>
<polygon points="23.12,-22.94 25.5,-21.75 25.5,38.25 23.12,37.06" fill="#4c3726" stroke="#4a3222" stroke-width="1.3" stroke-linejoin="round"></polygon>
<polygon points="25.5,-24.13 27.88,-22.94 25.5,-21.75 23.12,-22.94" fill="#624832" stroke="#4a3222" stroke-width="1.3" stroke-linejoin="round"></polygon>
</svg>