<svg width="80" height="100" viewBox="0 0 80 100" fill="none" xmlns="http://www.w3.org/2000/svg">
<path d="M79.19 70.3101L27.17 96.3201V98.0001L79.19 71.9901V70.3101Z" fill="#4B3726" stroke="#4A3222" stroke-width="1.3" stroke-linejoin="round"/>
<path d="M0.650024 83.0601L27.17 96.3201V98.0001L0.650024 84.7401V83.0601Z" fill="#5E4530" stroke="#4A3222" stroke-width="1.3" stroke-linejoin="round"/>
<path d="M52.67 57.05L79.19 70.31L27.17 96.32L0.650024 83.06L52.67 57.05Z" fill="#7A593E" stroke="#4A3222" stroke-width="1.3" stroke-linejoin="round"/>
<path d="M55.05 2.23004L52.67 3.42004V63.42L55.05 62.23V2.23004Z" fill="#3D2C1F" stroke="#4A3222" stroke-width="1.3" stroke-linejoin="round"/>
<path d="M50.29 2.23004L52.67 3.42004V63.42L50.29 62.23V2.23004Z" fill="#4C3726" stroke="#4A3222" stroke-width="1.3" stroke-linejoin="round"/>
<path d="M52.67 1.04004L55.05 2.23004L52.67 3.42004L50.29 2.23004L52.67 1.04004Z" fill="#624832" stroke="#4A3222" stroke-width="1.3" stroke-linejoin="round"/>
<path d="M69.67 64.91L60.32 69.58V74.98L69.67 70.31V64.91Z" fill="#946043" stroke="#4A3222" stroke-width="1.3" stroke-linejoin="round"/>
<path d="M43.32 61.09L60.32 69.58V74.98L43.32 66.49V61.09Z" fill="#B87854" stroke="#4A3222" stroke-width="1.3" stroke-linejoin="round"/>
<path d="M52.67 56.41L69.67 64.91L60.32 69.58L43.32 61.09L52.67 56.41Z" fill="#EF9B6D" stroke="#4A3222" stroke-width="1.3" stroke-linejoin="round"/>
<path d="M79.19 51.51L27.17 77.52V79.2L79.19 53.19V51.51Z" fill="#4B3726" stroke="#4A3222" stroke-width="1.3" stroke-linejoin="round"/>
<path d="M0.650024 64.26L27.17 77.52V79.2L0.650024 65.94V64.26Z" fill="#5E4530" stroke="#4A3222" stroke-width="1.3" stroke-linejoin="round"/>
<path d="M52.67 38.2501L79.19 51.5101L27.17 77.5201L0.650024 64.2601L52.67 38.2501Z" fill="#7A593E" stroke="#4A3222" stroke-width="1.3" stroke-linejoin="round"/>
<path d="M60.32 50.78L50.97 55.46V60.86L60.32 56.18V50.78Z" fill="#6A824B" stroke="#4A3222" stroke-width="1.3" stroke-linejoin="round"/>
<path d="M33.97 46.96L50.97 55.46V60.86L33.97 52.36V46.96Z" fill="#85A25E" stroke="#4A3222" stroke-width="1.3" stroke-linejoin="round"/>
<path d="M43.32 42.29L60.32 50.78L50.97 55.46L33.97 46.96L43.32 42.29Z" fill="#ACD279" stroke="#4A3222" stroke-width="1.3" stroke-linejoin="round"/>
<path d="M79.19 32.71L27.17 58.72V60.4L79.19 34.39V32.71Z" fill="#4B3726" stroke="#4A3222" stroke-width="1.3" stroke-linejoin="round"/>
<path d="M0.650024 45.46L27.17 58.72V60.4L0.650024 47.14V45.46Z" fill="#5E4530" stroke="#4A3222" stroke-width="1.3" stroke-linejoin="round"/>
<path d="M52.67 19.45L79.19 32.71L27.17 58.72L0.650024 45.46L52.67 19.45Z" fill="#7A593E" stroke="#4A3222" stroke-width="1.3" stroke-linejoin="round"/>
<path d="M78.17 13.79L75.79 14.98V74.98L78.17 73.79V13.79Z" fill="#3D2C1F" stroke="#4A3222" stroke-width="1.3" stroke-linejoin="round"/>
<path d="M73.41 13.79L75.79 14.98V74.98L73.41 73.79V13.79Z" fill="#4C3726" stroke="#4A3222" stroke-width="1.3" stroke-linejoin="round"/>
<path d="M75.79 12.6L78.17 13.79L75.79 14.98L73.41 13.79L75.79 12.6Z" fill="#624832" stroke="#4A3222" stroke-width="1.3" stroke-linejoin="round"/>
<path d="M50.97 36.66L41.62 41.33V46.74L50.97 42.06V36.66Z" fill="#9E8548" stroke="#4A3222" stroke-width="1.3" stroke-linejoin="round"/>
<path d="M24.62 32.84L41.62 41.33V46.74L24.62 38.24V32.84Z" fill="#C6A75A" stroke="#4A3222" stroke-width="1.3" stroke-linejoin="round"/>
<path d="M33.97 28.16L50.97 36.66L41.62 41.33L24.62 32.84L33.97 28.16Z" fill="#FFD875" stroke="#4A3222" stroke-width="1.3" stroke-linejoin="round"/>
<path d="M6.43002 26.54L4.05002 27.73V87.73L6.43002 86.54V26.54Z" fill="#3D2C1F" stroke="#4A3222" stroke-width="1.3" stroke-linejoin="round"/>
<path d="M1.67004 26.54L4.05005 27.73V87.73L1.67004 86.54V26.54Z" fill="#4C3726" stroke="#4A3222" stroke-width="1.3" stroke-linejoin="round"/>
<path d="M4.05005 25.35L6.43004 26.54L4.05005 27.73L1.67004 26.54L4.05005 25.35Z" fill="#624832" stroke="#4A3222" stroke-width="1.3" stroke-linejoin="round"/>
<path d="M29.55 38.1L27.17 39.29V99.29L29.55 98.1V38.1Z" fill="#3D2C1F" stroke="#4A3222" stroke-width="1.3" stroke-linejoin="round"/>
<path d="M24.79 38.1L27.17 39.29V99.29L24.79 98.1V38.1Z" fill="#4C3726" stroke="#4A3222" stroke-width="1.3" stroke-linejoin="round"/>
<path d="M27.17 36.91L29.55 38.1L27.17 39.29L24.79 38.1L27.17 36.91Z" fill="#624832" stroke="#4A3222" stroke-width="1.3" stroke-linejoin="round"/>
<path d="M79.19 13.91L27.17 39.92V41.6L79.19 15.59V13.91Z" fill="#4B3726" stroke="#4A3222" stroke-width="1.3" stroke-linejoin="round"/>
<path d="M0.650024 26.66L27.17 39.92V41.6L0.650024 28.34V26.66Z" fill="#5E4530" stroke="#4A3222" stroke-width="1.3" stroke-linejoin="round"/>
<path d="M52.67 0.650024L79.19 13.91L27.17 39.92L0.650024 26.66L52.67 0.650024Z" fill="#7A593E" stroke="#4A3222" stroke-width="1.3" stroke-linejoin="round"/>
</svg>
