<svg width="80" height="100" viewBox="0 0 80 100" fill="none" xmlns="http://www.w3.org/2000/svg">
<path d="M79.19 83.0601L52.67 96.3201V98.0001L79.19 84.7401V83.0601Z" fill="#4B3726" stroke="#4A3222" stroke-width="1.3" stroke-linejoin="round"/>
<path d="M0.650024 70.3101L52.67 96.3201V98.0001L0.650024 71.9901V70.3101Z" fill="#5E4530" stroke="#4A3222" stroke-width="1.3" stroke-linejoin="round"/>
<path d="M27.17 57.05L79.19 83.06L52.67 96.32L0.650024 70.31L27.17 57.05Z" fill="#7A593E" stroke="#4A3222" stroke-width="1.3" stroke-linejoin="round"/>
<path d="M29.55 2.23004L27.17 3.42004V63.42L29.55 62.23V2.23004Z" fill="#3D2C1F" stroke="#4A3222" stroke-width="1.3" stroke-linejoin="round"/>
<path d="M24.79 2.23004L27.17 3.42004V63.42L24.79 62.23V2.23004Z" fill="#4C3726" stroke="#4A3222" stroke-width="1.3" stroke-linejoin="round"/>
<path d="M27.17 1.04004L29.55 2.23004L27.17 3.42004L24.79 2.23004L27.17 1.04004Z" fill="#624832" stroke="#4A3222" stroke-width="1.3" stroke-linejoin="round"/>
<path d="M36.52 61.09L19.52 69.58V74.98L36.52 66.49V61.09Z" fill="#946043" stroke="#4A3222" stroke-width="1.3" stroke-linejoin="round"/>
<path d="M10.17 64.91L19.52 69.58V74.98L10.17 70.31V64.91Z" fill="#B87854" stroke="#4A3222" stroke-width="1.3" stroke-linejoin="round"/>
<path d="M27.17 56.41L36.52 61.09L19.52 69.58L10.17 64.91L27.17 56.41Z" fill="#EF9B6D" stroke="#4A3222" stroke-width="1.3" stroke-linejoin="round"/>
<path d="M4.05004 12.6L6.43004 13.79L4.05004 14.98L1.67004 13.79L4.05004 12.6Z" fill="#624832" stroke="#4A3222" stroke-width="1.3" stroke-linejoin="round"/>
<path d="M78.17 26.54L75.79 27.73V87.73L78.17 86.54V26.54Z" fill="#3D2C1F" stroke="#4A3222" stroke-width="1.3" stroke-linejoin="round"/>
<path d="M73.41 26.54L75.79 27.73V87.73L73.41 86.54V26.54Z" fill="#4C3726" stroke="#4A3222" stroke-width="1.3" stroke-linejoin="round"/>
<path d="M75.79 25.35L78.17 26.54L75.79 27.73L73.41 26.54L75.79 25.35Z" fill="#624832" stroke="#4A3222" stroke-width="1.3" stroke-linejoin="round"/>
<path d="M52.67 36.91L55.05 38.1L52.67 39.29L50.29 38.1L52.67 36.91Z" fill="#624832" stroke="#4A3222" stroke-width="1.3" stroke-linejoin="round"/>
<path d="M79.19 64.26L52.67 77.52V79.2L79.19 65.94V64.26Z" fill="#4B3726" stroke="#4A3222" stroke-width="1.3" stroke-linejoin="round"/>
<path d="M0.650024 51.51L52.67 77.52V79.2L0.650024 53.19V51.51Z" fill="#5E4530" stroke="#4A3222" stroke-width="1.3" stroke-linejoin="round"/>
<path d="M27.17 38.2501L79.19 64.2601L52.67 77.5201L0.650024 51.5101L27.17 38.2501Z" fill="#7A593E" stroke="#4A3222" stroke-width="1.3" stroke-linejoin="round"/>
<path d="M45.87 46.96L28.87 55.46V60.86L45.87 52.36V46.96Z" fill="#6A824B" stroke="#4A3222" stroke-width="1.3" stroke-linejoin="round"/>
<path d="M19.52 50.78L28.87 55.46V60.86L19.52 56.18V50.78Z" fill="#85A25E" stroke="#4A3222" stroke-width="1.3" stroke-linejoin="round"/>
<path d="M36.52 42.29L45.87 46.96L28.87 55.46L19.52 50.78L36.52 42.29Z" fill="#ACD279" stroke="#4A3222" stroke-width="1.3" stroke-linejoin="round"/>
<path d="M79.19 45.46L52.67 58.72V60.4L79.19 47.14V45.46Z" fill="#4B3726" stroke="#4A3222" stroke-width="1.3" stroke-linejoin="round"/>
<path d="M0.650024 32.71L52.67 58.72V60.4L0.650024 34.39V32.71Z" fill="#5E4530" stroke="#4A3222" stroke-width="1.3" stroke-linejoin="round"/>
<path d="M27.17 19.45L79.19 45.46L52.67 58.72L0.650024 32.71L27.17 19.45Z" fill="#7A593E" stroke="#4A3222" stroke-width="1.3" stroke-linejoin="round"/>
<path d="M55.05 38.1L52.67 39.29V99.29L55.05 98.1V38.1Z" fill="#3D2C1F" stroke="#4A3222" stroke-width="1.3" stroke-linejoin="round"/>
<path d="M50.29 38.1L52.67 39.29V99.29L50.29 98.1V38.1Z" fill="#4C3726" stroke="#4A3222" stroke-width="1.3" stroke-linejoin="round"/>
<path d="M6.43005 13.79L4.05005 14.98V74.98L6.43005 73.79V13.79Z" fill="#3D2C1F" stroke="#4A3222" stroke-width="1.3" stroke-linejoin="round"/>
<path d="M1.67004 13.79L4.05004 14.98V74.98L1.67004 73.79V13.79Z" fill="#4C3726" stroke="#4A3222" stroke-width="1.3" stroke-linejoin="round"/>
<path d="M55.22 32.84L38.22 41.33V46.74L55.22 38.24V32.84Z" fill="#9E8548" stroke="#4A3222" stroke-width="1.3" stroke-linejoin="round"/>
<path d="M28.87 36.66L38.22 41.33V46.74L28.87 42.06V36.66Z" fill="#C6A75A" stroke="#4A3222" stroke-width="1.3" stroke-linejoin="round"/>
<path d="M45.87 28.16L55.22 32.84L38.22 41.33L28.87 36.66L45.87 28.16Z" fill="#FFD875" stroke="#4A3222" stroke-width="1.3" stroke-linejoin="round"/>
<path d="M79.19 26.66L52.67 39.92V41.6L79.19 28.34V26.66Z" fill="#4B3726" stroke="#4A3222" stroke-width="1.3" stroke-linejoin="round"/>
<path d="M0.650024 13.91L52.67 39.92V41.6L0.650024 15.59V13.91Z" fill="#5E4530" stroke="#4A3222" stroke-width="1.3" stroke-linejoin="round"/>
<path d="M27.17 0.650024L79.19 26.66L52.67 39.92L0.650024 13.91L27.17 0.650024Z" fill="#7A593E" stroke="#4A3222" stroke-width="1.3" stroke-linejoin="round"/>
</svg>
