<svg width="80" height="100" viewBox="0 0 80 100" fill="none" xmlns="http://www.w3.org/2000/svg">
<path d="M79.19 70.3101L27.17 96.3201V98.0001L79.19 71.9901V70.3101Z" fill="#4B3726" stroke="#4A3222" stroke-width="1.3" stroke-linejoin="round"/>
<path d="M0.649979 83.0601L27.17 96.3201V98.0001L0.649979 84.7401V83.0601Z" fill="#5E4530" stroke="#4A3222" stroke-width="1.3" stroke-linejoin="round"/>
<path d="M52.67 57.05L79.19 70.31L27.17 96.32L0.649979 83.06L52.67 57.05Z" fill="#7A593E" stroke="#4A3222" stroke-width="1.3" stroke-linejoin="round"/>
<path d="M79.19 51.51L27.17 77.52V79.2L79.19 53.19V51.51Z" fill="#4B3726" stroke="#4A3222" stroke-width="1.3" stroke-linejoin="round"/>
<path d="M0.649979 64.26L27.17 77.52V79.2L0.649979 65.94V64.26Z" fill="#5E4530" stroke="#4A3222" stroke-width="1.3" stroke-linejoin="round"/>
<path d="M52.67 38.2501L79.19 51.5101L27.17 77.5201L0.649979 64.2601L52.67 38.2501Z" fill="#7A593E" stroke="#4A3222" stroke-width="1.3" stroke-linejoin="round"/>
<path d="M79.19 32.71L27.17 58.72V60.4L79.19 34.39V32.71Z" fill="#4B3726" stroke="#4A3222" stroke-width="1.3" stroke-linejoin="round"/>
<path d="M0.649979 45.46L27.17 58.72V60.4L0.649979 47.14V45.46Z" fill="#5E4530" stroke="#4A3222" stroke-width="1.3" stroke-linejoin="round"/>
<path d="M52.67 19.45L79.19 32.71L27.17 58.72L0.649979 45.46L52.67 19.45Z" fill="#7A593E" stroke="#4A3222" stroke-width="1.3" stroke-linejoin="round"/>
<path d="M79.19 13.91L27.17 39.92V41.6L79.19 15.59V13.91Z" fill="#4B3726" stroke="#4A3222" stroke-width="1.3" stroke-linejoin="round"/>
<path d="M0.649979 26.66L27.17 39.92V41.6L0.649979 28.34V26.66Z" fill="#5E4530" stroke="#4A3222" stroke-width="1.3" stroke-linejoin="round"/>
<path d="M52.67 0.650024L79.19 13.91L27.17 39.92L0.649979 26.66L52.67 0.650024Z" fill="#7A593E" stroke="#4A3222" stroke-width="1.3" stroke-linejoin="round"/>
<path d="M55.05 2.23004L52.67 3.42004V63.42L55.05 62.23V2.23004Z" fill="#3D2C1F" stroke="#4A3222" stroke-width="1.3" stroke-linejoin="round"/>
<path d="M50.29 2.23004L52.67 3.42004V63.42L50.29 62.23V2.23004Z" fill="#4C3726" stroke="#4A3222" stroke-width="1.3" stroke-linejoin="round"/>
<path d="M52.67 1.04004L55.05 2.23004L52.67 3.42004L50.29 2.23004L52.67 1.04004Z" fill="#624832" stroke="#4A3222" stroke-width="1.3" stroke-linejoin="round"/>
<path d="M55.22 34.53L45.87 39.21V44.61L55.22 39.94V34.53Z" fill="#9E8548" stroke="#4A3222" stroke-width="1.3" stroke-linejoin="round"/>
<path d="M28.87 30.71L45.87 39.21V44.61L28.87 36.11V30.71Z" fill="#C6A75A" stroke="#4A3222" stroke-width="1.3" stroke-linejoin="round"/>
<path d="M38.22 26.03L55.22 34.53L45.87 39.21L28.87 30.71L38.22 26.03Z" fill="#FFD875" stroke="#4A3222" stroke-width="1.3" stroke-linejoin="round"/>
<path d="M78.17 13.79L75.79 14.98V74.98L78.17 73.79V13.79Z" fill="#3D2C1F" stroke="#4A3222" stroke-width="1.3" stroke-linejoin="round"/>
<path d="M73.41 13.79L75.79 14.98V74.98L73.41 73.79V13.79Z" fill="#4C3726" stroke="#4A3222" stroke-width="1.3" stroke-linejoin="round"/>
<path d="M75.79 12.6L78.17 13.79L75.79 14.98L73.41 13.79L75.79 12.6Z" fill="#624832" stroke="#4A3222" stroke-width="1.3" stroke-linejoin="round"/>
<path d="M45.87 58.01L36.52 62.69V68.09L45.87 63.41V58.01Z" fill="#6A824B" stroke="#4A3222" stroke-width="1.3" stroke-linejoin="round"/>
<path d="M19.52 54.1901L36.52 62.6901V68.0901L19.52 59.5901V54.1901Z" fill="#85A25E" stroke="#4A3222" stroke-width="1.3" stroke-linejoin="round"/>
<path d="M28.87 49.51L45.87 58.01L36.52 62.69L19.52 54.19L28.87 49.51Z" fill="#ACD279" stroke="#4A3222" stroke-width="1.3" stroke-linejoin="round"/>
<path d="M36.52 81.4901L27.17 86.1601V91.5601L36.52 86.8901V81.4901Z" fill="#946043" stroke="#4A3222" stroke-width="1.3" stroke-linejoin="round"/>
<path d="M10.17 77.66L27.17 86.16V91.56L10.17 83.06V77.66Z" fill="#B87854" stroke="#4A3222" stroke-width="1.3" stroke-linejoin="round"/>
<path d="M19.52 72.9901L36.52 81.4901L27.17 86.1601L10.17 77.6601L19.52 72.9901Z" fill="#EF9B6D" stroke="#4A3222" stroke-width="1.3" stroke-linejoin="round"/>
<path d="M6.42999 26.54L4.04999 27.73V87.73L6.42999 86.54V26.54Z" fill="#3D2C1F" stroke="#4A3222" stroke-width="1.3" stroke-linejoin="round"/>
<path d="M1.66998 26.54L4.04998 27.73V87.73L1.66998 86.54V26.54Z" fill="#4C3726" stroke="#4A3222" stroke-width="1.3" stroke-linejoin="round"/>
<path d="M4.04998 25.35L6.42998 26.54L4.04998 27.73L1.66998 26.54L4.04998 25.35Z" fill="#624832" stroke="#4A3222" stroke-width="1.3" stroke-linejoin="round"/>
<path d="M29.55 38.1L27.17 39.29V99.29L29.55 98.1V38.1Z" fill="#3D2C1F" stroke="#4A3222" stroke-width="1.3" stroke-linejoin="round"/>
<path d="M24.79 38.1L27.17 39.29V99.29L24.79 98.1V38.1Z" fill="#4C3726" stroke="#4A3222" stroke-width="1.3" stroke-linejoin="round"/>
<path d="M27.17 36.91L29.55 38.1L27.17 39.29L24.79 38.1L27.17 36.91Z" fill="#624832" stroke="#4A3222" stroke-width="1.3" stroke-linejoin="round"/>
</svg>
