<svg width="80" height="100" viewBox="0 0 80 100" fill="none" xmlns="http://www.w3.org/2000/svg">
<path d="M29.55 2.23004L27.17 3.42004V63.42L29.55 62.23V2.23004Z" fill="#3D2C1F" stroke="#4A3222" stroke-width="1.3" stroke-linejoin="round"/>
<path d="M24.79 2.23004L27.17 3.42004V63.42L24.79 62.23V2.23004Z" fill="#4C3726" stroke="#4A3222" stroke-width="1.3" stroke-linejoin="round"/>
<path d="M79.19 83.0601L52.67 96.3201V98.0001L79.19 84.7401V83.0601Z" fill="#4B3726" stroke="#4A3222" stroke-width="1.3" stroke-linejoin="round"/>
<path d="M0.650024 70.3101L52.67 96.3201V98.0001L0.650024 71.9901V70.3101Z" fill="#5E4530" stroke="#4A3222" stroke-width="1.3" stroke-linejoin="round"/>
<path d="M27.17 57.05L79.19 83.06L52.67 96.32L0.650024 70.31L27.17 57.05Z" fill="#7A593E" stroke="#4A3222" stroke-width="1.3" stroke-linejoin="round"/>
<path d="M79.19 45.46L52.67 58.72V60.4L79.19 47.14V45.46Z" fill="#4B3726" stroke="#4A3222" stroke-width="1.3" stroke-linejoin="round"/>
<path d="M69.67 77.66L52.67 86.16V91.56L69.67 83.06V77.66Z" fill="#946043" stroke="#4A3222" stroke-width="1.3" stroke-linejoin="round"/>
<path d="M43.32 81.49L52.67 86.16V91.56L43.32 86.89V81.49Z" fill="#B87854" stroke="#4A3222" stroke-width="1.3" stroke-linejoin="round"/>
<path d="M60.32 72.99L69.67 77.66L52.67 86.16L43.32 81.49L60.32 72.99Z" fill="#EF9B6D" stroke="#4A3222" stroke-width="1.3" stroke-linejoin="round"/>
<path d="M79.19 64.26L52.67 77.52V79.2L79.19 65.94V64.26Z" fill="#4B3726" stroke="#4A3222" stroke-width="1.3" stroke-linejoin="round"/>
<path d="M0.650024 51.51L52.67 77.52V79.2L0.650024 53.19V51.51Z" fill="#5E4530" stroke="#4A3222" stroke-width="1.3" stroke-linejoin="round"/>
<path d="M27.17 38.2501L79.19 64.2601L52.67 77.5201L0.650024 51.5101L27.17 38.2501Z" fill="#7A593E" stroke="#4A3222" stroke-width="1.3" stroke-linejoin="round"/>
<path d="M60.32 54.1901L43.32 62.6901V68.0901L60.32 59.5901V54.1901Z" fill="#6A824B" stroke="#4A3222" stroke-width="1.3" stroke-linejoin="round"/>
<path d="M33.97 58.01L43.32 62.69V68.09L33.97 63.41V58.01Z" fill="#85A25E" stroke="#4A3222" stroke-width="1.3" stroke-linejoin="round"/>
<path d="M50.97 49.51L60.32 54.19L43.32 62.69L33.97 58.01L50.97 49.51Z" fill="#ACD279" stroke="#4A3222" stroke-width="1.3" stroke-linejoin="round"/>
<path d="M0.650024 32.71L52.67 58.72V60.4L0.650024 34.39V32.71Z" fill="#5E4530" stroke="#4A3222" stroke-width="1.3" stroke-linejoin="round"/>
<path d="M27.17 19.45L79.19 45.46L52.67 58.72L0.650024 32.71L27.17 19.45Z" fill="#7A593E" stroke="#4A3222" stroke-width="1.3" stroke-linejoin="round"/>
<path d="M27.17 1.04004L29.55 2.23004L27.17 3.42004L24.79 2.23004L27.17 1.04004Z" fill="#624832" stroke="#4A3222" stroke-width="1.3" stroke-linejoin="round"/>
<path d="M50.97 30.71L33.97 39.21V44.61L50.97 36.11V30.71Z" fill="#9E8548" stroke="#4A3222" stroke-width="1.3" stroke-linejoin="round"/>
<path d="M24.62 34.53L33.97 39.21V44.61L24.62 39.94V34.53Z" fill="#C6A75A" stroke="#4A3222" stroke-width="1.3" stroke-linejoin="round"/>
<path d="M41.62 26.03L50.97 30.71L33.97 39.21L24.62 34.53L41.62 26.03Z" fill="#FFD875" stroke="#4A3222" stroke-width="1.3" stroke-linejoin="round"/>
<path d="M6.43002 13.79L4.05002 14.98V74.98L6.43002 73.79V13.79Z" fill="#3D2C1F" stroke="#4A3222" stroke-width="1.3" stroke-linejoin="round"/>
<path d="M1.67001 13.79L4.05001 14.98V74.98L1.67001 73.79V13.79Z" fill="#4C3726" stroke="#4A3222" stroke-width="1.3" stroke-linejoin="round"/>
<path d="M4.05001 12.6L6.43001 13.79L4.05001 14.98L1.67001 13.79L4.05001 12.6Z" fill="#624832" stroke="#4A3222" stroke-width="1.3" stroke-linejoin="round"/>
<path d="M78.17 26.54L75.79 27.73V87.73L78.17 86.54V26.54Z" fill="#3D2C1F" stroke="#4A3222" stroke-width="1.3" stroke-linejoin="round"/>
<path d="M73.41 26.54L75.79 27.73V87.73L73.41 86.54V26.54Z" fill="#4C3726" stroke="#4A3222" stroke-width="1.3" stroke-linejoin="round"/>
<path d="M75.79 25.35L78.17 26.54L75.79 27.73L73.41 26.54L75.79 25.35Z" fill="#624832" stroke="#4A3222" stroke-width="1.3" stroke-linejoin="round"/>
<path d="M55.05 38.1L52.67 39.29V99.29L55.05 98.1V38.1Z" fill="#3D2C1F" stroke="#4A3222" stroke-width="1.3" stroke-linejoin="round"/>
<path d="M50.29 38.1L52.67 39.29V99.29L50.29 98.1V38.1Z" fill="#4C3726" stroke="#4A3222" stroke-width="1.3" stroke-linejoin="round"/>
<path d="M52.67 36.91L55.05 38.1L52.67 39.29L50.29 38.1L52.67 36.91Z" fill="#624832" stroke="#4A3222" stroke-width="1.3" stroke-linejoin="round"/>
<path d="M79.19 26.66L52.67 39.92V41.6L79.19 28.34V26.66Z" fill="#4B3726" stroke="#4A3222" stroke-width="1.3" stroke-linejoin="round"/>
<path d="M0.650024 13.91L52.67 39.92V41.6L0.650024 15.59V13.91Z" fill="#5E4530" stroke="#4A3222" stroke-width="1.3" stroke-linejoin="round"/>
<path d="M27.17 0.650024L79.19 26.66L52.67 39.92L0.650024 13.91L27.17 0.650024Z" fill="#7A593E" stroke="#4A3222" stroke-width="1.3" stroke-linejoin="round"/>
</svg>
